<?xml version="1.0" encoding="UTF-8"?>
<!DOCTYPE svg PUBLIC "-//W3C//DTD SVG 1.1//EN" "http://www.w3.org/Graphics/SVG/1.1/DTD/svg11.dtd">
<svg xmlns="http://www.w3.org/2000/svg" version="1.1" width="53px" height="53px" style="shape-rendering:geometricPrecision; text-rendering:geometricPrecision; image-rendering:optimizeQuality; fill-rule:evenodd; clip-rule:evenodd" xmlns:xlink="http://www.w3.org/1999/xlink">
<g><path style="opacity:0.914" fill="#ddc326" d="M 28.5,1.5 C 27.5977,3.34068 26.2644,4.67401 24.5,5.5C 21.9557,2.69346 20.9557,3.36012 21.5,7.5C 19.4176,7.52801 17.5843,6.86135 16,5.5C 15.5045,7.4727 15.3379,9.4727 15.5,11.5C 13.901,11.7678 12.5676,11.4345 11.5,10.5C 12.5,10.5 13.5,10.5 14.5,10.5C 14.5,8.5 14.5,6.5 14.5,4.5C 18.8134,2.04083 23.4801,1.04083 28.5,1.5 Z"/></g>
<g><path style="opacity:1" fill="#d4b91f" d="M 28.5,1.5 C 33.4553,2.36392 37.7886,4.36392 41.5,7.5C 38.7915,10.2362 37.1249,9.56951 36.5,5.5C 34.5,6.5 32.5,7.5 30.5,8.5C 30.5086,6.69161 30.0086,5.02494 29,3.5C 28.059,5.06136 26.8924,6.39469 25.5,7.5C 24.7025,7.04311 24.3691,6.37644 24.5,5.5C 26.2644,4.67401 27.5977,3.34068 28.5,1.5 Z"/></g>
<g><path style="opacity:1" fill="#e9cc21" d="M 14.5,4.5 C 14.5,6.5 14.5,8.5 14.5,10.5C 13.5,10.5 12.5,10.5 11.5,10.5C 10.209,10.2627 9.20895,10.596 8.5,11.5C 7.60141,12.9943 7.93474,14.4943 9.5,16C 7.41444,16.3153 5.41444,16.8153 3.5,17.5C 5.35475,11.6444 9.02141,7.31102 14.5,4.5 Z"/></g>
<g><path style="opacity:1" fill="#c9af1c" d="M 36.5,5.5 C 37.1249,9.56951 38.7915,10.2362 41.5,7.5C 46.8452,11.8539 49.8452,17.5206 50.5,24.5C 49.8333,24.5 49.1667,24.5 48.5,24.5C 47.0697,23.4625 45.403,22.7959 43.5,22.5C 44.0476,20.6064 45.0476,18.9397 46.5,17.5C 44.604,16.5344 42.604,16.2011 40.5,16.5C 41.6352,14.2549 42.1352,11.9216 42,9.5C 37.4775,12.6837 35.6442,11.3504 36.5,5.5 Z"/></g>
<g><path style="opacity:1" fill="#c9ae1c" d="M 21.5,9.5 C 27.3506,8.67402 32.684,9.84069 37.5,13C 38.8228,13.8159 39.4894,14.9826 39.5,16.5C 34.6169,11.5271 28.9502,9.86039 22.5,11.5C 19.3257,12.0102 16.9923,13.6769 15.5,16.5C 14.5987,17.2905 13.9321,18.2905 13.5,19.5C 12.596,20.209 12.2627,21.209 12.5,22.5C 11.8333,24.8333 11.1667,27.1667 10.5,29.5C 10.5,29.1667 10.5,28.8333 10.5,28.5C 10.5,25.8333 10.5,23.1667 10.5,20.5C 12.522,15.1446 16.1887,11.478 21.5,9.5 Z"/></g>
<g><path style="opacity:1" fill="#faed46" d="M 24.5,5.5 C 24.3691,6.37644 24.7025,7.04311 25.5,7.5C 26.8924,6.39469 28.059,5.06136 29,3.5C 30.0086,5.02494 30.5086,6.69161 30.5,8.5C 27.2869,8.19 24.2869,8.52333 21.5,9.5C 16.1887,11.478 12.522,15.1446 10.5,20.5C 9.73209,21.2625 9.23209,22.2625 9,23.5C 7.07479,22.1196 5.24146,20.6196 3.5,19C 10.3673,19.6578 12.0339,17.1578 8.5,11.5C 9.20895,10.596 10.209,10.2627 11.5,10.5C 12.5676,11.4345 13.901,11.7678 15.5,11.5C 15.3379,9.4727 15.5045,7.4727 16,5.5C 17.5843,6.86135 19.4176,7.52801 21.5,7.5C 20.9557,3.36012 21.9557,2.69346 24.5,5.5 Z"/></g>
<g><path style="opacity:1" fill="#eed626" d="M 22.5,11.5 C 28.9502,9.86039 34.6169,11.5271 39.5,16.5C 40.3705,19.1123 41.0372,21.779 41.5,24.5C 38.4728,22.1395 35.8062,19.4729 33.5,16.5C 32.8333,16.5 32.1667,16.5 31.5,16.5C 31.6716,15.5084 31.3382,14.8417 30.5,14.5C 29.8333,14.5 29.5,14.1667 29.5,13.5C 27.7211,11.6565 25.3878,10.9898 22.5,11.5 Z"/></g>
<g><path style="opacity:1" fill="#f5db2a" d="M 36.5,5.5 C 35.6442,11.3504 37.4775,12.6837 42,9.5C 42.1352,11.9216 41.6352,14.2549 40.5,16.5C 40.1667,16.5 39.8333,16.5 39.5,16.5C 39.4894,14.9826 38.8228,13.8159 37.5,13C 32.684,9.84069 27.3506,8.67402 21.5,9.5C 24.2869,8.52333 27.2869,8.19 30.5,8.5C 32.5,7.5 34.5,6.5 36.5,5.5 Z"/></g>
<g><path style="opacity:1" fill="#f7ee39" d="M 22.5,11.5 C 25.3878,10.9898 27.7211,11.6565 29.5,13.5C 25.4698,13.8493 22.4698,15.8493 20.5,19.5C 19.7784,19.9175 19.2784,20.5842 19,21.5C 17.8236,19.8043 16.657,18.1376 15.5,16.5C 16.9923,13.6769 19.3257,12.0102 22.5,11.5 Z"/></g>
<g><path style="opacity:1" fill="#d9c927" d="M 29.5,13.5 C 29.5,14.1667 29.8333,14.5 30.5,14.5C 30.7373,15.791 30.404,16.791 29.5,17.5C 29.2504,16.0779 28.417,15.0779 27,14.5C 25.2927,16.0375 23.7927,17.7041 22.5,19.5C 24.0746,21.1137 24.7413,23.1137 24.5,25.5C 24.5,26.8333 24.5,28.1667 24.5,29.5C 23.1667,29.5 21.8333,29.5 20.5,29.5C 20.5,30.8333 20.5,32.1667 20.5,33.5C 20.1667,33.5 19.8333,33.5 19.5,33.5C 18.6618,33.1583 18.3284,32.4916 18.5,31.5C 18.5,30.5 18.5,29.5 18.5,28.5C 19.8333,28.5 21.1667,28.5 22.5,28.5C 22.7105,25.248 22.0438,22.248 20.5,19.5C 22.4698,15.8493 25.4698,13.8493 29.5,13.5 Z"/></g>
<g><path style="opacity:1" fill="#f4e32f" d="M 31.5,16.5 C 32.1667,16.5 32.8333,16.5 33.5,16.5C 33.3433,17.8734 33.51,19.2068 34,20.5C 35.8257,22.9231 37.8257,25.2564 40,27.5C 40.7796,29.3869 40.6129,31.0536 39.5,32.5C 37.0832,27.882 34.4165,23.5486 31.5,19.5C 31.5,18.5 31.5,17.5 31.5,16.5 Z"/></g>
<g><path style="opacity:1" fill="#f2dc2a" d="M 33.5,16.5 C 35.8062,19.4729 38.4728,22.1395 41.5,24.5C 41.2155,26.4147 41.5489,28.0813 42.5,29.5C 42.1667,30.8333 41.8333,32.1667 41.5,33.5C 40.8333,33.8333 40.1667,34.1667 39.5,34.5C 39.5,33.8333 39.5,33.1667 39.5,32.5C 40.6129,31.0536 40.7796,29.3869 40,27.5C 37.8257,25.2564 35.8257,22.9231 34,20.5C 33.51,19.2068 33.3433,17.8734 33.5,16.5 Z"/></g>
<g><path style="opacity:1" fill="#f5e834" d="M 15.5,16.5 C 16.657,18.1376 17.8236,19.8043 19,21.5C 19.2784,20.5842 19.7784,19.9175 20.5,19.5C 22.0438,22.248 22.7105,25.248 22.5,28.5C 21.1667,28.5 19.8333,28.5 18.5,28.5C 18.5,29.5 18.5,30.5 18.5,31.5C 18.0047,28.6569 16.5047,26.3235 14,24.5C 13.5065,22.8659 13.3398,21.1992 13.5,19.5C 13.9321,18.2905 14.5987,17.2905 15.5,16.5 Z"/></g>
<g><path style="opacity:1" fill="#fbf833" d="M 29.5,17.5 C 29.7678,19.099 29.4345,20.4324 28.5,21.5C 26.8583,19.9192 24.8583,19.2525 22.5,19.5C 23.7927,17.7041 25.2927,16.0375 27,14.5C 28.417,15.0779 29.2504,16.0779 29.5,17.5 Z"/></g>
<g><path style="opacity:1" fill="#bea920" d="M 30.5,14.5 C 31.3382,14.8417 31.6716,15.5084 31.5,16.5C 31.5,17.5 31.5,18.5 31.5,19.5C 30.6311,21.984 29.9644,24.6507 29.5,27.5C 29.2528,28.7133 28.5862,29.38 27.5,29.5C 27.5,28.8333 27.5,28.1667 27.5,27.5C 28.4614,25.7354 28.7947,23.7354 28.5,21.5C 29.4345,20.4324 29.7678,19.099 29.5,17.5C 30.404,16.791 30.7373,15.791 30.5,14.5 Z"/></g>
<g><path style="opacity:1" fill="#edd122" d="M 39.5,16.5 C 39.8333,16.5 40.1667,16.5 40.5,16.5C 42.604,16.2011 44.604,16.5344 46.5,17.5C 45.0476,18.9397 44.0476,20.6064 43.5,22.5C 42.5318,24.6074 42.1984,26.9407 42.5,29.5C 41.5489,28.0813 41.2155,26.4147 41.5,24.5C 41.0372,21.779 40.3705,19.1123 39.5,16.5 Z"/></g>
<g><path style="opacity:1" fill="#f8f852" d="M 22.5,19.5 C 24.8583,19.2525 26.8583,19.9192 28.5,21.5C 28.7947,23.7354 28.4614,25.7354 27.5,27.5C 27.1788,25.9519 26.1788,25.2852 24.5,25.5C 24.7413,23.1137 24.0746,21.1137 22.5,19.5 Z"/></g>
<g><path style="opacity:1" fill="#f4e935" d="M 31.5,19.5 C 34.4165,23.5486 37.0832,27.882 39.5,32.5C 39.5,33.1667 39.5,33.8333 39.5,34.5C 39.1667,34.5 38.8333,34.5 38.5,34.5C 36.4598,32.8047 34.6264,30.8047 33,28.5C 32.6012,28.7284 32.4346,29.0618 32.5,29.5C 31.5084,29.3284 30.8417,29.6618 30.5,30.5C 29.209,30.7373 28.209,30.404 27.5,29.5C 28.5862,29.38 29.2528,28.7133 29.5,27.5C 29.9644,24.6507 30.6311,21.984 31.5,19.5 Z"/></g>
<g><path style="opacity:1" fill="#d6bb1f" d="M 8.5,11.5 C 12.0339,17.1578 10.3673,19.6578 3.5,19C 5.24146,20.6196 7.07479,22.1196 9,23.5C 9.23209,22.2625 9.73209,21.2625 10.5,20.5C 10.5,23.1667 10.5,25.8333 10.5,28.5C 9.83855,27.2825 9.17189,25.9492 8.5,24.5C 6.1419,25.1539 4.47523,26.4872 3.5,28.5C 3.24171,30.1902 3.24171,32.1902 3.5,34.5C 2.02695,31.9831 1.36029,29.1498 1.5,26C 1.36029,22.8502 2.02695,20.0169 3.5,17.5C 5.41444,16.8153 7.41444,16.3153 9.5,16C 7.93474,14.4943 7.60141,12.9943 8.5,11.5 Z"/></g>
<g><path style="opacity:0.945" fill="#b19b1b" d="M 48.5,24.5 C 49.1667,24.5 49.8333,24.5 50.5,24.5C 50.5,25.1667 50.5,25.8333 50.5,26.5C 47.9664,26.2591 46.2998,27.2591 45.5,29.5C 44.7109,29.2172 44.0442,28.7172 43.5,28C 45.2331,26.8111 46.8998,25.6444 48.5,24.5 Z"/></g>
<g><path style="opacity:0.955" fill="#d9bd1e" d="M 50.5,26.5 C 50.8294,29.2282 50.1628,31.5615 48.5,33.5C 48.1667,33.5 47.8333,33.5 47.5,33.5C 47.2671,31.9382 46.6005,30.6049 45.5,29.5C 46.2998,27.2591 47.9664,26.2591 50.5,26.5 Z"/></g>
<g><path style="opacity:1" fill="#efd626" d="M 13.5,19.5 C 13.3398,21.1992 13.5065,22.8659 14,24.5C 16.5047,26.3235 18.0047,28.6569 18.5,31.5C 18.3284,32.4916 18.6618,33.1583 19.5,33.5C 19.5,34.1667 19.5,34.8333 19.5,35.5C 22.1094,39.4059 25.7761,41.4059 30.5,41.5C 30.1667,41.5 29.8333,41.5 29.5,41.5C 26.4816,41.6646 23.4816,41.498 20.5,41C 19.5842,40.7216 18.9175,40.2216 18.5,39.5C 18.9382,39.5654 19.2716,39.3988 19.5,39C 14.0034,34.8404 11.6701,29.3404 12.5,22.5C 12.2627,21.209 12.596,20.209 13.5,19.5 Z"/></g>
<g><path style="opacity:1" fill="#f8ef39" d="M 38.5,34.5 C 34.0875,40.6614 29.4208,40.9947 24.5,35.5C 27.1667,35.5 29.8333,35.5 32.5,35.5C 32.5,33.5 32.5,31.5 32.5,29.5C 32.4346,29.0618 32.6012,28.7284 33,28.5C 34.6264,30.8047 36.4598,32.8047 38.5,34.5 Z"/></g>
<g><path style="opacity:1" fill="#f7e030" d="M 43.5,22.5 C 45.403,22.7959 47.0697,23.4625 48.5,24.5C 46.8998,25.6444 45.2331,26.8111 43.5,28C 44.0442,28.7172 44.7109,29.2172 45.5,29.5C 46.6005,30.6049 47.2671,31.9382 47.5,33.5C 45.5,33.5 43.5,33.5 41.5,33.5C 41.8333,32.1667 42.1667,30.8333 42.5,29.5C 42.1984,26.9407 42.5318,24.6074 43.5,22.5 Z"/></g>
<g><path style="opacity:1" fill="#fdfb27" d="M 24.5,25.5 C 26.1788,25.2852 27.1788,25.9519 27.5,27.5C 27.5,28.1667 27.5,28.8333 27.5,29.5C 28.209,30.404 29.209,30.7373 30.5,30.5C 30.5,31.5 30.5,32.5 30.5,33.5C 27.1667,33.5 23.8333,33.5 20.5,33.5C 20.5,32.1667 20.5,30.8333 20.5,29.5C 21.8333,29.5 23.1667,29.5 24.5,29.5C 24.5,28.1667 24.5,26.8333 24.5,25.5 Z"/></g>
<g><path style="opacity:1" fill="#f7db26" d="M 10.5,28.5 C 10.5,28.8333 10.5,29.1667 10.5,29.5C 11.4827,33.4689 13.4827,36.8023 16.5,39.5C 15.1667,40.1667 15.1667,40.8333 16.5,41.5C 15.2196,42.9313 13.5529,43.5979 11.5,43.5C 11.3184,41.4086 11.6518,39.4086 12.5,37.5C 10.1667,36.8333 7.83333,36.1667 5.5,35.5C 6.83333,33.8333 8.16667,32.1667 9.5,30.5C 7.58905,29.5233 5.58905,28.8567 3.5,28.5C 4.47523,26.4872 6.1419,25.1539 8.5,24.5C 9.17189,25.9492 9.83855,27.2825 10.5,28.5 Z"/></g>
<g><path style="opacity:1" fill="#b3a221" d="M 32.5,29.5 C 32.5,31.5 32.5,33.5 32.5,35.5C 29.8333,35.5 27.1667,35.5 24.5,35.5C 22.8333,35.5 21.1667,35.5 19.5,35.5C 19.5,34.8333 19.5,34.1667 19.5,33.5C 19.8333,33.5 20.1667,33.5 20.5,33.5C 23.8333,33.5 27.1667,33.5 30.5,33.5C 30.5,32.5 30.5,31.5 30.5,30.5C 30.8417,29.6618 31.5084,29.3284 32.5,29.5 Z"/></g>
<g><path style="opacity:0.99" fill="#c4ae22" d="M 41.5,33.5 C 43.5,33.5 45.5,33.5 47.5,33.5C 47.8333,33.5 48.1667,33.5 48.5,33.5C 48.5,34.1667 48.5,34.8333 48.5,35.5C 43.4935,34.6077 42.4935,35.941 45.5,39.5C 45.573,41.0269 44.9063,42.0269 43.5,42.5C 38.8427,38.8673 37.5094,39.8673 39.5,45.5C 38.8333,45.1667 38.1667,44.8333 37.5,44.5C 37.634,42.7085 37.3007,41.0418 36.5,39.5C 38.924,39.8076 41.2573,39.4742 43.5,38.5C 42.0499,37.1502 41.3832,35.4835 41.5,33.5 Z"/></g>
<g><path style="opacity:0.995" fill="#edcf21" d="M 48.5,35.5 C 47.9744,37.2303 46.9744,38.5637 45.5,39.5C 42.4935,35.941 43.4935,34.6077 48.5,35.5 Z"/></g>
<g><path style="opacity:1" fill="#ddc01e" d="M 12.5,22.5 C 11.6701,29.3404 14.0034,34.8404 19.5,39C 19.2716,39.3988 18.9382,39.5654 18.5,39.5C 17.8333,39.5 17.1667,39.5 16.5,39.5C 13.4827,36.8023 11.4827,33.4689 10.5,29.5C 11.1667,27.1667 11.8333,24.8333 12.5,22.5 Z"/></g>
<g><path style="opacity:1" fill="#f4e234" d="M 41.5,33.5 C 41.3832,35.4835 42.0499,37.1502 43.5,38.5C 41.2573,39.4742 38.924,39.8076 36.5,39.5C 34.4214,39.9707 32.4214,40.6373 30.5,41.5C 25.7761,41.4059 22.1094,39.4059 19.5,35.5C 21.1667,35.5 22.8333,35.5 24.5,35.5C 29.4208,40.9947 34.0875,40.6614 38.5,34.5C 38.8333,34.5 39.1667,34.5 39.5,34.5C 40.1667,34.1667 40.8333,33.8333 41.5,33.5 Z"/></g>
<g><path style="opacity:0.965" fill="#c7ad1c" d="M 3.5,28.5 C 5.58905,28.8567 7.58905,29.5233 9.5,30.5C 8.16667,32.1667 6.83333,33.8333 5.5,35.5C 7.83333,36.1667 10.1667,36.8333 12.5,37.5C 11.6518,39.4086 11.3184,41.4086 11.5,43.5C 13.5529,43.5979 15.2196,42.9313 16.5,41.5C 17.4972,41.4701 18.1639,41.9701 18.5,43C 19.0779,44.8114 19.5779,46.6447 20,48.5C 21.0391,47.2899 22.2058,46.2899 23.5,45.5C 23.2624,47.4044 22.2624,48.7377 20.5,49.5C 19.8333,49.5 19.1667,49.5 18.5,49.5C 18.3332,43.2538 16.3332,42.2538 12.5,46.5C 7.96799,43.6365 4.96799,39.6365 3.5,34.5C 3.24171,32.1902 3.24171,30.1902 3.5,28.5 Z"/></g>
<g><path style="opacity:1" fill="#edcf23" d="M 43.5,42.5 C 42.7377,44.2624 41.4044,45.2624 39.5,45.5C 37.5094,39.8673 38.8427,38.8673 43.5,42.5 Z"/></g>
<g><path style="opacity:1" fill="#f7e234" d="M 16.5,39.5 C 17.1667,39.5 17.8333,39.5 18.5,39.5C 18.9175,40.2216 19.5842,40.7216 20.5,41C 23.4816,41.498 26.4816,41.6646 29.5,41.5C 28.1667,42.1667 26.8333,42.8333 25.5,43.5C 24.5,43.8333 23.8333,44.5 23.5,45.5C 22.2058,46.2899 21.0391,47.2899 20,48.5C 19.5779,46.6447 19.0779,44.8114 18.5,43C 18.1639,41.9701 17.4972,41.4701 16.5,41.5C 15.1667,40.8333 15.1667,40.1667 16.5,39.5 Z"/></g>
<g><path style="opacity:1" fill="#b9a21d" d="M 25.5,43.5 C 26.6005,44.6049 27.2671,45.9382 27.5,47.5C 26.3951,46.3995 25.0618,45.7329 23.5,45.5C 23.8333,44.5 24.5,43.8333 25.5,43.5 Z"/></g>
<g><path style="opacity:1" fill="#f9f250" d="M 36.5,39.5 C 37.3007,41.0418 37.634,42.7085 37.5,44.5C 37.5654,44.9382 37.3988,45.2716 37,45.5C 32.5487,41.0483 29.8821,42.0483 29,48.5C 28.6174,47.944 28.1174,47.6107 27.5,47.5C 27.2671,45.9382 26.6005,44.6049 25.5,43.5C 26.8333,42.8333 28.1667,42.1667 29.5,41.5C 29.8333,41.5 30.1667,41.5 30.5,41.5C 32.4214,40.6373 34.4214,39.9707 36.5,39.5 Z"/></g>
<g><path style="opacity:0.488" fill="#dbbf1e" d="M 18.5,49.5 C 16.5,48.5 14.5,47.5 12.5,46.5C 16.3332,42.2538 18.3332,43.2538 18.5,49.5 Z"/></g>
<g><path style="opacity:1" fill="#e0c626" d="M 37.5,44.5 C 38.1667,44.8333 38.8333,45.1667 39.5,45.5C 33.822,50.1636 27.4887,51.4969 20.5,49.5C 22.2624,48.7377 23.2624,47.4044 23.5,45.5C 25.0618,45.7329 26.3951,46.3995 27.5,47.5C 28.1174,47.6107 28.6174,47.944 29,48.5C 29.8821,42.0483 32.5487,41.0483 37,45.5C 37.3988,45.2716 37.5654,44.9382 37.5,44.5 Z"/></g>
</svg>
