<?xml version="1.0" encoding="UTF-8"?>
<!DOCTYPE svg PUBLIC "-//W3C//DTD SVG 1.1//EN" "http://www.w3.org/Graphics/SVG/1.1/DTD/svg11.dtd">
<svg xmlns="http://www.w3.org/2000/svg" version="1.1" width="53px" height="53px" style="shape-rendering:geometricPrecision; text-rendering:geometricPrecision; image-rendering:optimizeQuality; fill-rule:evenodd; clip-rule:evenodd" xmlns:xlink="http://www.w3.org/1999/xlink">
<g><path style="opacity:0.922" fill="#d6bc20" d="M 21.5,1.5 C 23.8333,1.5 26.1667,1.5 28.5,1.5C 28.1075,3.2838 27.4408,4.95047 26.5,6.5C 25.8826,6.61071 25.3826,6.94404 25,7.5C 23.5576,5.60887 22.3909,3.60887 21.5,1.5 Z"/></g>
<g><path style="opacity:1" fill="#ceb31d" d="M 29.5,1.5 C 33.2937,2.41986 36.6271,4.08653 39.5,6.5C 39.5,7.5 39.5,8.5 39.5,9.5C 40.552,9.35055 41.552,9.51722 42.5,10C 41.2625,10.2321 40.2625,10.7321 39.5,11.5C 37.8356,10.0512 37.0023,8.05119 37,5.5C 32.1722,8.82652 29.6722,7.49318 29.5,1.5 Z"/></g>
<g><path style="opacity:1" fill="#e4cb28" d="M 20.5,2.5 C 20.5,4.16667 20.5,5.83333 20.5,7.5C 18.4176,7.52801 16.5843,6.86135 15,5.5C 14.5065,7.13414 14.3398,8.80081 14.5,10.5C 12.6693,9.94784 11.0026,9.94784 9.5,10.5C 10.3094,12.0709 10.6427,13.7376 10.5,15.5C 8.90097,15.2322 7.56764,15.5655 6.5,16.5C 5.5,16.1667 4.83333,15.5 4.5,14.5C 7.83277,7.83405 13.1661,3.83405 20.5,2.5 Z"/></g>
<g><path style="opacity:1" fill="#f8df2d" d="M 28.5,1.5 C 28.8333,1.5 29.1667,1.5 29.5,1.5C 29.6722,7.49318 32.1722,8.82652 37,5.5C 37.0023,8.05119 37.8356,10.0512 39.5,11.5C 40.5,11.5 41.5,11.5 42.5,11.5C 42.5792,12.9305 42.2458,14.2638 41.5,15.5C 43.396,16.4656 45.396,16.7989 47.5,16.5C 48.1667,16.5 48.5,16.8333 48.5,17.5C 42.2092,19.9938 42.2092,21.9938 48.5,23.5C 48.5,23.8333 48.5,24.1667 48.5,24.5C 46.6329,25.7598 45.2995,27.4265 44.5,29.5C 43.8333,28.8333 43.1667,28.1667 42.5,27.5C 43.055,23.2935 42.055,19.6269 39.5,16.5C 36.8945,11.9186 32.8945,9.25189 27.5,8.5C 27.1667,7.83333 26.8333,7.16667 26.5,6.5C 27.4408,4.95047 28.1075,3.2838 28.5,1.5 Z"/></g>
<g><path style="opacity:1" fill="#cab01c" d="M 27.5,8.5 C 32.8945,9.25189 36.8945,11.9186 39.5,16.5C 39.5,17.1667 39.1667,17.5 38.5,17.5C 37.4154,15.4131 35.7488,14.0798 33.5,13.5C 29.7885,10.6854 25.7885,10.0187 21.5,11.5C 19.5659,12.1103 17.8993,13.1103 16.5,14.5C 15.5,14.8333 14.8333,15.5 14.5,16.5C 13.0687,17.7804 12.4021,19.4471 12.5,21.5C 11.2854,25.0326 11.2854,28.6992 12.5,32.5C 12.5,33.1667 12.1667,33.5 11.5,33.5C 9.27243,29.924 8.27243,25.924 8.5,21.5C 11.8331,12.8405 18.1664,8.50721 27.5,8.5 Z"/></g>
<g><path style="opacity:1" fill="#f9ef4c" d="M 21.5,1.5 C 22.3909,3.60887 23.5576,5.60887 25,7.5C 25.3826,6.94404 25.8826,6.61071 26.5,6.5C 26.8333,7.16667 27.1667,7.83333 27.5,8.5C 18.1664,8.50721 11.8331,12.8405 8.5,21.5C 8.5,20.8333 8.16667,20.5 7.5,20.5C 8.47091,19.0379 8.13758,17.7046 6.5,16.5C 7.56764,15.5655 8.90097,15.2322 10.5,15.5C 10.6427,13.7376 10.3094,12.0709 9.5,10.5C 11.0026,9.94784 12.6693,9.94784 14.5,10.5C 14.3398,8.80081 14.5065,7.13414 15,5.5C 16.5843,6.86135 18.4176,7.52801 20.5,7.5C 20.5,5.83333 20.5,4.16667 20.5,2.5C 20.5,1.83333 20.8333,1.5 21.5,1.5 Z"/></g>
<g><path style="opacity:0.353" fill="#ceb31d" d="M 39.5,6.5 C 44.0372,8.36734 46.7039,11.7007 47.5,16.5C 45.396,16.7989 43.396,16.4656 41.5,15.5C 42.2458,14.2638 42.5792,12.9305 42.5,11.5C 41.5,11.5 40.5,11.5 39.5,11.5C 40.2625,10.7321 41.2625,10.2321 42.5,10C 41.552,9.51722 40.552,9.35055 39.5,9.5C 39.5,8.5 39.5,7.5 39.5,6.5 Z"/></g>
<g><path style="opacity:1" fill="#f2e12f" d="M 21.5,11.5 C 25.7885,10.0187 29.7885,10.6854 33.5,13.5C 35.8744,18.9328 37.8744,24.5995 39.5,30.5C 39.3404,32.153 38.6737,33.4863 37.5,34.5C 36.3264,27.3071 33.9931,20.6404 30.5,14.5C 29.791,13.596 28.791,13.2627 27.5,13.5C 26.0821,11.6921 24.0821,11.0254 21.5,11.5 Z"/></g>
<g><path style="opacity:1" fill="#f7ee39" d="M 21.5,11.5 C 24.0821,11.0254 26.0821,11.6921 27.5,13.5C 23.1068,13.8653 20.1068,16.1986 18.5,20.5C 19.0662,18.3592 18.3995,16.3592 16.5,14.5C 17.8993,13.1103 19.5659,12.1103 21.5,11.5 Z"/></g>
<g><path style="opacity:1" fill="#decf31" d="M 27.5,13.5 C 28.791,13.2627 29.791,13.596 30.5,14.5C 30.5,19.5 30.5,24.5 30.5,29.5C 31.791,29.2627 32.791,29.596 33.5,30.5C 32.5084,30.3284 31.8417,30.6618 31.5,31.5C 29.901,31.7678 28.5676,31.4345 27.5,30.5C 28.8117,28.2568 29.4783,25.5902 29.5,22.5C 29.4975,19.6445 29.1641,16.9779 28.5,14.5C 26.302,14.1201 24.6354,14.7868 23.5,16.5C 19.5218,19.3904 19.8551,20.7237 24.5,20.5C 24.5,23.5 24.5,26.5 24.5,29.5C 24.5,30.1667 24.1667,30.5 23.5,30.5C 23.5,27.5 23.5,24.5 23.5,21.5C 21.7085,21.634 20.0418,21.3007 18.5,20.5C 20.1068,16.1986 23.1068,13.8653 27.5,13.5 Z"/></g>
<g><path style="opacity:1" fill="#f1db29" d="M 33.5,13.5 C 35.7488,14.0798 37.4154,15.4131 38.5,17.5C 40.6314,21.7921 40.9648,26.1254 39.5,30.5C 37.8744,24.5995 35.8744,18.9328 33.5,13.5 Z"/></g>
<g><path style="opacity:0.98" fill="#dfc320" d="M 4.5,14.5 C 4.83333,15.5 5.5,16.1667 6.5,16.5C 8.13758,17.7046 8.47091,19.0379 7.5,20.5C 2.61006,20.6392 2.27672,22.1392 6.5,25C 5.08992,26.3717 3.42325,27.205 1.5,27.5C 0.964511,22.6882 1.96451,18.3548 4.5,14.5 Z"/></g>
<g><path style="opacity:1" fill="#f2e12e" d="M 14.5,16.5 C 15.6896,20.9376 17.0229,25.2709 18.5,29.5C 19.791,29.2627 20.791,29.596 21.5,30.5C 20.5,30.5 19.5,30.5 18.5,30.5C 17.603,31.5981 16.7697,31.5981 16,30.5C 15.8826,27.0365 14.7159,24.0365 12.5,21.5C 12.4021,19.4471 13.0687,17.7804 14.5,16.5 Z"/></g>
<g><path style="opacity:1" fill="#faf83a" d="M 28.5,14.5 C 28.5,16.1667 28.5,17.8333 28.5,19.5C 27.7784,19.9175 27.2784,20.5842 27,21.5C 25.3506,20.1155 24.1839,18.4488 23.5,16.5C 24.6354,14.7868 26.302,14.1201 28.5,14.5 Z"/></g>
<g><path style="opacity:0.573" fill="#e1c41f" d="M 48.5,18.5 C 50.0739,20.1016 50.7406,22.1016 50.5,24.5C 49.8333,24.5 49.1667,24.5 48.5,24.5C 48.5,24.1667 48.5,23.8333 48.5,23.5C 48.9382,23.5654 49.2716,23.3988 49.5,23C 48.1667,22.3333 46.8333,21.6667 45.5,21C 46.5707,20.1482 47.5707,19.3149 48.5,18.5 Z"/></g>
<g><path style="opacity:1" fill="#f7eb35" d="M 30.5,14.5 C 33.9931,20.6404 36.3264,27.3071 37.5,34.5C 37.1667,35.5 36.5,36.1667 35.5,36.5C 34.9518,34.3736 34.2852,32.3736 33.5,30.5C 32.791,29.596 31.791,29.2627 30.5,29.5C 30.5,24.5 30.5,19.5 30.5,14.5 Z"/></g>
<g><path style="opacity:1" fill="#c0a71e" d="M 48.5,17.5 C 48.5,17.8333 48.5,18.1667 48.5,18.5C 47.5707,19.3149 46.5707,20.1482 45.5,21C 46.8333,21.6667 48.1667,22.3333 49.5,23C 49.2716,23.3988 48.9382,23.5654 48.5,23.5C 42.2092,21.9938 42.2092,19.9938 48.5,17.5 Z"/></g>
<g><path style="opacity:1" fill="#efda2a" d="M 12.5,21.5 C 14.7159,24.0365 15.8826,27.0365 16,30.5C 16.7697,31.5981 17.603,31.5981 18.5,30.5C 18.2053,32.7354 18.5386,34.7354 19.5,36.5C 24.1667,36.5 28.8333,36.5 33.5,36.5C 28.8333,37.1667 24.1667,37.8333 19.5,38.5C 16.5468,37.2128 14.2135,35.2128 12.5,32.5C 11.2854,28.6992 11.2854,25.0326 12.5,21.5 Z"/></g>
<g><path style="opacity:1" fill="#f6e935" d="M 16.5,14.5 C 18.3995,16.3592 19.0662,18.3592 18.5,20.5C 18.5,21.5 18.5,22.5 18.5,23.5C 19.8333,23.5 21.1667,23.5 22.5,23.5C 22.8016,26.0593 22.4682,28.3926 21.5,30.5C 20.791,29.596 19.791,29.2627 18.5,29.5C 17.0229,25.2709 15.6896,20.9376 14.5,16.5C 14.8333,15.5 15.5,14.8333 16.5,14.5 Z"/></g>
<g><path style="opacity:1" fill="#f7f74e" d="M 23.5,16.5 C 24.1839,18.4488 25.3506,20.1155 27,21.5C 27.2784,20.5842 27.7784,19.9175 28.5,19.5C 27.8857,23.1352 27.5524,26.8019 27.5,30.5C 28.5676,31.4345 29.901,31.7678 31.5,31.5C 31.5,32.8333 31.5,34.1667 31.5,35.5C 27.5,35.5 23.5,35.5 19.5,35.5C 19.5,35.1667 19.5,34.8333 19.5,34.5C 21.8333,34.5 24.1667,34.5 26.5,34.5C 26.5979,32.4471 25.9313,30.7804 24.5,29.5C 24.5,26.5 24.5,23.5 24.5,20.5C 19.8551,20.7237 19.5218,19.3904 23.5,16.5 Z"/></g>
<g><path style="opacity:1" fill="#b29d1e" d="M 28.5,14.5 C 29.1641,16.9779 29.4975,19.6445 29.5,22.5C 29.4783,25.5902 28.8117,28.2568 27.5,30.5C 27.5524,26.8019 27.8857,23.1352 28.5,19.5C 28.5,17.8333 28.5,16.1667 28.5,14.5 Z"/></g>
<g><path style="opacity:1" fill="#f8de2d" d="M 7.5,20.5 C 8.16667,20.5 8.5,20.8333 8.5,21.5C 8.27243,25.924 9.27243,29.924 11.5,33.5C 11.5,33.8333 11.5,34.1667 11.5,34.5C 10.8333,34.5 10.1667,34.5 9.5,34.5C 7.16667,34.5 4.83333,34.5 2.5,34.5C 2.5,34.1667 2.5,33.8333 2.5,33.5C 8.02835,31.0298 7.69502,29.3632 1.5,28.5C 1.5,28.1667 1.5,27.8333 1.5,27.5C 3.42325,27.205 5.08992,26.3717 6.5,25C 2.27672,22.1392 2.61006,20.6392 7.5,20.5 Z"/></g>
<g><path style="opacity:1" fill="#cbb823" d="M 18.5,20.5 C 20.0418,21.3007 21.7085,21.634 23.5,21.5C 23.5,24.5 23.5,27.5 23.5,30.5C 22.4324,31.4345 21.099,31.7678 19.5,31.5C 19.5,32.5 19.5,33.5 19.5,34.5C 19.5,34.8333 19.5,35.1667 19.5,35.5C 19.5,35.8333 19.5,36.1667 19.5,36.5C 18.5386,34.7354 18.2053,32.7354 18.5,30.5C 19.5,30.5 20.5,30.5 21.5,30.5C 22.4682,28.3926 22.8016,26.0593 22.5,23.5C 21.1667,23.5 19.8333,23.5 18.5,23.5C 18.5,22.5 18.5,21.5 18.5,20.5 Z"/></g>
<g><path style="opacity:0.616" fill="#e9cb20" d="M 50.5,26.5 C 50.5,27.8333 50.5,29.1667 50.5,30.5C 45.1667,29.1667 45.1667,27.8333 50.5,26.5 Z"/></g>
<g><path style="opacity:1" fill="#b59f1e" d="M 48.5,24.5 C 49.1667,24.5 49.8333,24.5 50.5,24.5C 50.5,25.1667 50.5,25.8333 50.5,26.5C 45.1667,27.8333 45.1667,29.1667 50.5,30.5C 50.1667,31.1667 49.8333,31.8333 49.5,32.5C 47.5887,31.925 45.922,30.925 44.5,29.5C 45.2995,27.4265 46.6329,25.7598 48.5,24.5 Z"/></g>
<g><path style="opacity:0.765" fill="#d4b91d" d="M 1.5,28.5 C 7.69502,29.3632 8.02835,31.0298 2.5,33.5C 1.69929,31.9582 1.36596,30.2915 1.5,28.5 Z"/></g>
<g><path style="opacity:1" fill="#fcfa37" d="M 24.5,29.5 C 25.9313,30.7804 26.5979,32.4471 26.5,34.5C 24.1667,34.5 21.8333,34.5 19.5,34.5C 19.5,33.5 19.5,32.5 19.5,31.5C 21.099,31.7678 22.4324,31.4345 23.5,30.5C 24.1667,30.5 24.5,30.1667 24.5,29.5 Z"/></g>
<g><path style="opacity:1" fill="#a4911f" d="M 33.5,30.5 C 33.5,32.5 33.5,34.5 33.5,36.5C 28.8333,36.5 24.1667,36.5 19.5,36.5C 19.5,36.1667 19.5,35.8333 19.5,35.5C 23.5,35.5 27.5,35.5 31.5,35.5C 31.5,34.1667 31.5,32.8333 31.5,31.5C 31.8417,30.6618 32.5084,30.3284 33.5,30.5 Z"/></g>
<g><path style="opacity:1" fill="#ead028" d="M 42.5,34.5 C 44.2646,33.5386 46.2646,33.2053 48.5,33.5C 48.5979,35.5529 47.9313,37.2196 46.5,38.5C 45.5977,36.6593 44.2644,35.326 42.5,34.5 Z"/></g>
<g><path style="opacity:1" fill="#faf04d" d="M 42.5,27.5 C 43.1667,28.1667 43.8333,28.8333 44.5,29.5C 45.922,30.925 47.5887,31.925 49.5,32.5C 49.5,33.1667 49.1667,33.5 48.5,33.5C 46.2646,33.2053 44.2646,33.5386 42.5,34.5C 42.7031,36.0443 43.3698,37.3777 44.5,38.5C 42.9547,39.4519 41.288,39.7852 39.5,39.5C 39.6602,41.1992 39.4935,42.8659 39,44.5C 37.4157,43.1387 35.5824,42.472 33.5,42.5C 33.6602,44.1992 33.4935,45.8659 33,47.5C 31.6288,45.9586 30.1288,44.6253 28.5,43.5C 27.6618,43.1583 27.3284,42.4916 27.5,41.5C 35.7825,40.214 40.7825,35.5474 42.5,27.5 Z"/></g>
<g><path style="opacity:1" fill="#f9ef38" d="M 33.5,30.5 C 34.2852,32.3736 34.9518,34.3736 35.5,36.5C 31.6155,40.2259 26.9489,41.3926 21.5,40C 20.5842,39.7216 19.9175,39.2216 19.5,38.5C 24.1667,37.8333 28.8333,37.1667 33.5,36.5C 33.5,34.5 33.5,32.5 33.5,30.5 Z"/></g>
<g><path style="opacity:1" fill="#c8ae1c" d="M 2.5,34.5 C 4.83333,34.5 7.16667,34.5 9.5,34.5C 9.29689,36.0443 8.63023,37.3777 7.5,38.5C 9.04533,39.4519 10.712,39.7852 12.5,39.5C 12.3398,41.1992 12.5065,42.8659 13,44.5C 14.5843,43.1387 16.4176,42.472 18.5,42.5C 18.2053,44.7354 18.5386,46.7354 19.5,48.5C 19.5,48.8333 19.5,49.1667 19.5,49.5C 11.5507,47.0344 5.88403,42.0344 2.5,34.5 Z"/></g>
<g><path style="opacity:1" fill="#f9df2d" d="M 9.5,34.5 C 10.1667,34.5 10.8333,34.5 11.5,34.5C 15.3824,39.9131 20.7157,42.2465 27.5,41.5C 27.3284,42.4916 27.6618,43.1583 28.5,43.5C 28.2287,45.3117 27.562,46.9783 26.5,48.5C 23.882,43.3151 21.5486,43.3151 19.5,48.5C 18.5386,46.7354 18.2053,44.7354 18.5,42.5C 16.4176,42.472 14.5843,43.1387 13,44.5C 12.5065,42.8659 12.3398,41.1992 12.5,39.5C 10.712,39.7852 9.04533,39.4519 7.5,38.5C 8.63023,37.3777 9.29689,36.0443 9.5,34.5 Z"/></g>
<g><path style="opacity:1" fill="#ebd024" d="M 39.5,16.5 C 42.055,19.6269 43.055,23.2935 42.5,27.5C 40.7825,35.5474 35.7825,40.214 27.5,41.5C 20.7157,42.2465 15.3824,39.9131 11.5,34.5C 11.5,34.1667 11.5,33.8333 11.5,33.5C 12.1667,33.5 12.5,33.1667 12.5,32.5C 14.2135,35.2128 16.5468,37.2128 19.5,38.5C 19.9175,39.2216 20.5842,39.7216 21.5,40C 26.9489,41.3926 31.6155,40.2259 35.5,36.5C 36.5,36.1667 37.1667,35.5 37.5,34.5C 38.6737,33.4863 39.3404,32.153 39.5,30.5C 40.9648,26.1254 40.6314,21.7921 38.5,17.5C 39.1667,17.5 39.5,17.1667 39.5,16.5 Z"/></g>
<g><path style="opacity:0.655" fill="#c2ad26" d="M 42.5,34.5 C 44.2644,35.326 45.5977,36.6593 46.5,38.5C 46.0679,39.7095 45.4013,40.7095 44.5,41.5C 40.9259,39.9912 39.9259,40.9912 41.5,44.5C 41.1583,45.3382 40.4916,45.6716 39.5,45.5C 36.4633,43.8141 35.13,44.8141 35.5,48.5C 34.609,49.1098 33.609,49.4431 32.5,49.5C 29.9655,45.2277 28.6321,45.561 28.5,50.5C 27.5,50.5 26.5,50.5 25.5,50.5C 24.1925,45.9737 22.5258,45.6404 20.5,49.5C 20.1667,49.5 19.8333,49.5 19.5,49.5C 19.5,49.1667 19.5,48.8333 19.5,48.5C 21.5486,43.3151 23.882,43.3151 26.5,48.5C 27.562,46.9783 28.2287,45.3117 28.5,43.5C 30.1288,44.6253 31.6288,45.9586 33,47.5C 33.4935,45.8659 33.6602,44.1992 33.5,42.5C 35.5824,42.472 37.4157,43.1387 39,44.5C 39.4935,42.8659 39.6602,41.1992 39.5,39.5C 41.288,39.7852 42.9547,39.4519 44.5,38.5C 43.3698,37.3777 42.7031,36.0443 42.5,34.5 Z"/></g>
<g><path style="opacity:0.741" fill="#efd327" d="M 44.5,41.5 C 43.8333,42.8333 42.8333,43.8333 41.5,44.5C 39.9259,40.9912 40.9259,39.9912 44.5,41.5 Z"/></g>
<g><path style="opacity:0.28" fill="#f1d527" d="M 39.5,45.5 C 38.5637,46.9744 37.2303,47.9744 35.5,48.5C 35.13,44.8141 36.4633,43.8141 39.5,45.5 Z"/></g>
<g><path style="opacity:0.98" fill="#e2c51e" d="M 25.5,50.5 C 23.5853,50.7845 21.9187,50.4511 20.5,49.5C 22.5258,45.6404 24.1925,45.9737 25.5,50.5 Z"/></g>
<g><path style="opacity:0.835" fill="#ecce21" d="M 32.5,49.5 C 31.1667,49.8333 29.8333,50.1667 28.5,50.5C 28.6321,45.561 29.9655,45.2277 32.5,49.5 Z"/></g>
</svg>
