<?xml version="1.0" encoding="UTF-8"?>
<!DOCTYPE svg PUBLIC "-//W3C//DTD SVG 1.1//EN" "http://www.w3.org/Graphics/SVG/1.1/DTD/svg11.dtd">
<svg xmlns="http://www.w3.org/2000/svg" version="1.1" width="53px" height="53px" style="shape-rendering:geometricPrecision; text-rendering:geometricPrecision; image-rendering:optimizeQuality; fill-rule:evenodd; clip-rule:evenodd" xmlns:xlink="http://www.w3.org/1999/xlink">
<g><path style="opacity:0.933" fill="#dabf21" d="M 30.5,2.5 C 29.8333,2.5 29.5,2.83333 29.5,3.5C 27.8459,4.75032 26.1793,6.08365 24.5,7.5C 23.4884,6.12835 22.4884,4.79502 21.5,3.5C 21.5,3.16667 21.5,2.83333 21.5,2.5C 24.5,1.16667 27.5,1.16667 30.5,2.5 Z"/></g>
<g><path style="opacity:1" fill="#fcf14b" d="M 21.5,3.5 C 22.4884,4.79502 23.4884,6.12835 24.5,7.5C 24.5,7.83333 24.5,8.16667 24.5,8.5C 23.5,8.5 22.5,8.5 21.5,8.5C 21.1667,8.5 20.8333,8.5 20.5,8.5C 20.2155,6.58533 20.5489,4.91866 21.5,3.5 Z"/></g>
<g><path style="opacity:1" fill="#f8e234" d="M 29.5,3.5 C 29.238,4.97782 29.5713,6.31116 30.5,7.5C 31.8599,6.82006 33.1932,6.15339 34.5,5.5C 34.7678,7.09903 34.4345,8.43236 33.5,9.5C 32.8333,9.5 32.1667,9.5 31.5,9.5C 29.283,8.63137 26.9496,8.29803 24.5,8.5C 24.5,8.16667 24.5,7.83333 24.5,7.5C 26.1793,6.08365 27.8459,4.75032 29.5,3.5 Z"/></g>
<g><path style="opacity:0.667" fill="#e0c828" d="M 21.5,2.5 C 21.5,2.83333 21.5,3.16667 21.5,3.5C 20.5489,4.91866 20.2155,6.58533 20.5,8.5C 18.321,8.16003 16.4877,7.16003 15,5.5C 15.1349,7.42471 15.3016,9.42471 15.5,11.5C 13.901,11.7678 12.5676,11.4345 11.5,10.5C 12.675,10.719 13.675,10.3857 14.5,9.5C 13.7542,8.26381 13.4208,6.93047 13.5,5.5C 15.7916,3.73292 18.4582,2.73292 21.5,2.5 Z"/></g>
<g><path style="opacity:1" fill="#d3b81e" d="M 30.5,2.5 C 32.7857,2.59495 34.7857,3.26162 36.5,4.5C 36.1667,4.5 35.8333,4.5 35.5,4.5C 34.8333,4.5 34.5,4.83333 34.5,5.5C 33.1932,6.15339 31.8599,6.82006 30.5,7.5C 29.5713,6.31116 29.238,4.97782 29.5,3.5C 29.5,2.83333 29.8333,2.5 30.5,2.5 Z"/></g>
<g><path style="opacity:1" fill="#f9f555" d="M 20.5,8.5 C 20.8333,8.5 21.1667,8.5 21.5,8.5C 20.0351,9.73685 18.3684,10.7368 16.5,11.5C 16.1667,11.5 15.8333,11.5 15.5,11.5C 15.3016,9.42471 15.1349,7.42471 15,5.5C 16.4877,7.16003 18.321,8.16003 20.5,8.5 Z"/></g>
<g><path style="opacity:0.09" fill="#ceb31c" d="M 35.5,4.5 C 35.8333,4.5 36.1667,4.5 36.5,4.5C 38.8525,5.34026 40.8525,6.6736 42.5,8.5C 41.8333,8.5 41.1667,8.5 40.5,8.5C 40.5654,8.06178 40.3988,7.72845 40,7.5C 36.4541,10.4058 34.9541,9.40578 35.5,4.5 Z"/></g>
<g><path style="opacity:1" fill="#f5d824" d="M 35.5,4.5 C 34.9541,9.40578 36.4541,10.4058 40,7.5C 40.3988,7.72845 40.5654,8.06178 40.5,8.5C 39.6993,10.0418 39.366,11.7085 39.5,13.5C 39.5,13.8333 39.5,14.1667 39.5,14.5C 37.4752,12.8036 35.4752,11.137 33.5,9.5C 34.4345,8.43236 34.7678,7.09903 34.5,5.5C 34.5,4.83333 34.8333,4.5 35.5,4.5 Z"/></g>
<g><path style="opacity:1" fill="#c6ac1c" d="M 21.5,8.5 C 22.5,8.5 23.5,8.5 24.5,8.5C 26.9496,8.29803 29.283,8.63137 31.5,9.5C 28.8333,10.1667 26.1667,10.8333 23.5,11.5C 21.847,11.6596 20.5137,12.3263 19.5,13.5C 19.1667,13.5 18.8333,13.5 18.5,13.5C 17.5,13.5 16.5,13.5 15.5,13.5C 15.8333,12.8333 16.1667,12.1667 16.5,11.5C 18.3684,10.7368 20.0351,9.73685 21.5,8.5 Z"/></g>
<g><path style="opacity:0.459" fill="#e6ca24" d="M 13.5,5.5 C 13.4208,6.93047 13.7542,8.26381 14.5,9.5C 13.675,10.3857 12.675,10.719 11.5,10.5C 10.6236,10.3691 9.95689,10.7025 9.5,11.5C 10.4565,13.0754 11.1231,14.742 11.5,16.5C 9.4727,16.3379 7.4727,16.5045 5.5,17C 6.38053,17.7083 7.0472,18.5416 7.5,19.5C 5.93819,19.2671 4.60486,18.6005 3.5,17.5C 5.4359,12.2709 8.76924,8.27089 13.5,5.5 Z"/></g>
<g><path style="opacity:1" fill="#d1b61d" d="M 31.5,9.5 C 32.1667,9.5 32.8333,9.5 33.5,9.5C 35.4752,11.137 37.4752,12.8036 39.5,14.5C 39.8333,15.1667 40.1667,15.8333 40.5,16.5C 40.5,17.1667 40.5,17.8333 40.5,18.5C 38.8333,17.1667 37.1667,15.8333 35.5,14.5C 34.3406,12.7497 32.674,11.7497 30.5,11.5C 29.8333,11.5 29.1667,11.5 28.5,11.5C 26.8333,11.5 25.1667,11.5 23.5,11.5C 26.1667,10.8333 28.8333,10.1667 31.5,9.5 Z"/></g>
<g><path style="opacity:1" fill="#c5ab1c" d="M 40.5,8.5 C 41.1667,8.5 41.8333,8.5 42.5,8.5C 44.543,9.57935 45.8763,11.246 46.5,13.5C 45.5977,15.3407 44.2644,16.674 42.5,17.5C 45.6382,13.1431 44.6382,11.8098 39.5,13.5C 39.366,11.7085 39.6993,10.0418 40.5,8.5 Z"/></g>
<g><path style="opacity:1" fill="#f8ef4d" d="M 11.5,10.5 C 12.5676,11.4345 13.901,11.7678 15.5,11.5C 15.8333,11.5 16.1667,11.5 16.5,11.5C 16.1667,12.1667 15.8333,12.8333 15.5,13.5C 14.1667,14.5 12.8333,15.5 11.5,16.5C 11.1231,14.742 10.4565,13.0754 9.5,11.5C 9.95689,10.7025 10.6236,10.3691 11.5,10.5 Z"/></g>
<g><path style="opacity:1" fill="#f8ef3a" d="M 23.5,11.5 C 25.1667,11.5 26.8333,11.5 28.5,11.5C 28.5,12.1667 28.5,12.8333 28.5,13.5C 24.8166,12.6798 22.4832,14.0131 21.5,17.5C 20.6554,16.3285 19.9887,14.9952 19.5,13.5C 20.5137,12.3263 21.847,11.6596 23.5,11.5 Z"/></g>
<g><path style="opacity:1" fill="#f7d921" d="M 42.5,17.5 C 42.5,17.8333 42.5,18.1667 42.5,18.5C 41.8333,17.8333 41.1667,17.1667 40.5,16.5C 40.1667,15.8333 39.8333,15.1667 39.5,14.5C 39.5,14.1667 39.5,13.8333 39.5,13.5C 44.6382,11.8098 45.6382,13.1431 42.5,17.5 Z"/></g>
<g><path style="opacity:1" fill="#f6ea35" d="M 18.5,13.5 C 18.8333,13.5 19.1667,13.5 19.5,13.5C 19.9887,14.9952 20.6554,16.3285 21.5,17.5C 20.8333,18.5 20.1667,19.5 19.5,20.5C 18.71,19.3915 18.21,18.0581 18,16.5C 17.31,17.7383 16.81,17.7383 16.5,16.5C 17.1667,15.5 17.8333,14.5 18.5,13.5 Z"/></g>
<g><path style="opacity:1" fill="#d7c623" d="M 28.5,13.5 C 29.1667,13.5 29.5,13.8333 29.5,14.5C 28.5489,15.9187 28.2155,17.5853 28.5,19.5C 28.1667,19.5 27.8333,19.5 27.5,19.5C 27.5,17.8333 27.5,16.1667 27.5,14.5C 26.448,14.3505 25.448,14.5172 24.5,15C 23.5,16.6667 22.5,18.3333 21.5,20C 22.7375,20.2321 23.7375,20.7321 24.5,21.5C 24.5172,23.5648 24.8505,25.5648 25.5,27.5C 25.2294,29.4305 24.2294,30.7638 22.5,31.5C 22.1667,31.5 21.8333,31.5 21.5,31.5C 21.5,30.8333 21.5,30.1667 21.5,29.5C 23.1484,27.5441 23.8151,25.2108 23.5,22.5C 21.5168,22.8432 20.1834,22.1765 19.5,20.5C 20.1667,19.5 20.8333,18.5 21.5,17.5C 22.4832,14.0131 24.8166,12.6798 28.5,13.5 Z"/></g>
<g><path style="opacity:1" fill="#f0d827" d="M 30.5,11.5 C 32.674,11.7497 34.3406,12.7497 35.5,14.5C 36.6546,18.7975 38.3213,22.7975 40.5,26.5C 40.5,27.5 40.5,28.5 40.5,29.5C 37.9549,24.1854 34.9549,19.1854 31.5,14.5C 31.4431,13.391 31.1098,12.391 30.5,11.5 Z"/></g>
<g><path style="opacity:1" fill="#c7ad1d" d="M 15.5,13.5 C 16.5,13.5 17.5,13.5 18.5,13.5C 17.8333,14.5 17.1667,15.5 16.5,16.5C 15.8333,16.5 15.5,16.8333 15.5,17.5C 14.8333,17.5 14.5,17.8333 14.5,18.5C 14.1667,18.5 13.8333,18.5 13.5,18.5C 12.8333,18.5 12.1667,18.5 11.5,18.5C 11.5,17.8333 11.5,17.1667 11.5,16.5C 12.8333,15.5 14.1667,14.5 15.5,13.5 Z"/></g>
<g><path style="opacity:1" fill="#fcf922" d="M 27.5,19.5 C 27.1788,21.0481 26.1788,21.7148 24.5,21.5C 23.7375,20.7321 22.7375,20.2321 21.5,20C 22.5,18.3333 23.5,16.6667 24.5,15C 25.448,14.5172 26.448,14.3505 27.5,14.5C 27.5,16.1667 27.5,17.8333 27.5,19.5 Z"/></g>
<g><path style="opacity:1" fill="#d3b71c" d="M 46.5,13.5 C 48.4725,16.0836 49.4725,19.0836 49.5,22.5C 46.001,22.741 45.6677,21.9076 48.5,20C 48.2716,19.6012 47.9382,19.4346 47.5,19.5C 46.0813,18.5489 44.4147,18.2155 42.5,18.5C 42.5,18.1667 42.5,17.8333 42.5,17.5C 44.2644,16.674 45.5977,15.3407 46.5,13.5 Z"/></g>
<g><path style="opacity:1" fill="#f9e638" d="M 11.5,16.5 C 11.5,17.1667 11.5,17.8333 11.5,18.5C 10.5655,19.5676 10.2322,20.901 10.5,22.5C 9.83333,23.5 9.16667,24.5 8.5,25.5C 6.89674,25.6882 5.56341,25.1882 4.5,24C 6.16667,23 7.83333,22 9.5,21C 8.9558,20.2828 8.28913,19.7828 7.5,19.5C 7.0472,18.5416 6.38053,17.7083 5.5,17C 7.4727,16.5045 9.4727,16.3379 11.5,16.5 Z"/></g>
<g><path style="opacity:1" fill="#f4e632" d="M 28.5,11.5 C 29.1667,11.5 29.8333,11.5 30.5,11.5C 31.1098,12.391 31.4431,13.391 31.5,14.5C 31.5,15.5 31.5,16.5 31.5,17.5C 31.5,18.8333 31.5,20.1667 31.5,21.5C 31.2606,23.4672 31.5939,25.3005 32.5,27C 31.9056,27.4643 31.2389,27.631 30.5,27.5C 29.9198,23.19 29.5865,18.8566 29.5,14.5C 29.5,13.8333 29.1667,13.5 28.5,13.5C 28.5,12.8333 28.5,12.1667 28.5,11.5 Z"/></g>
<g><path style="opacity:1" fill="#f3e331" d="M 16.5,16.5 C 16.81,17.7383 17.31,17.7383 18,16.5C 18.21,18.0581 18.71,19.3915 19.5,20.5C 20.1834,22.1765 21.5168,22.8432 23.5,22.5C 23.8151,25.2108 23.1484,27.5441 21.5,29.5C 21.1667,29.5 20.8333,29.5 20.5,29.5C 18.8321,25.495 17.1654,21.495 15.5,17.5C 15.5,16.8333 15.8333,16.5 16.5,16.5 Z"/></g>
<g><path style="opacity:1" fill="#f4e22f" d="M 31.5,17.5 C 34.1805,22.1987 36.8472,26.8654 39.5,31.5C 39.573,33.0269 38.9063,34.0269 37.5,34.5C 36.8333,33.1667 36.1667,31.8333 35.5,30.5C 34.9579,27.0878 33.6246,24.0878 31.5,21.5C 31.5,20.1667 31.5,18.8333 31.5,17.5 Z"/></g>
<g><path style="opacity:1" fill="#f2dd2b" d="M 31.5,14.5 C 34.9549,19.1854 37.9549,24.1854 40.5,29.5C 40.6716,30.4916 40.3382,31.1583 39.5,31.5C 36.8472,26.8654 34.1805,22.1987 31.5,17.5C 31.5,16.5 31.5,15.5 31.5,14.5 Z"/></g>
<g><path style="opacity:1" fill="#efd323" d="M 35.5,14.5 C 37.1667,15.8333 38.8333,17.1667 40.5,18.5C 40.5,19.5 40.5,20.5 40.5,21.5C 40.5,23.1667 40.5,24.8333 40.5,26.5C 38.3213,22.7975 36.6546,18.7975 35.5,14.5 Z"/></g>
<g><path style="opacity:1" fill="#edcf1f" d="M 3.5,17.5 C 4.60486,18.6005 5.93819,19.2671 7.5,19.5C 6.51435,21.4077 4.84769,22.4077 2.5,22.5C 2.62867,20.7839 2.962,19.1172 3.5,17.5 Z"/></g>
<g><path style="opacity:1" fill="#f0d625" d="M 13.5,18.5 C 13.8333,18.5 14.1667,18.5 14.5,18.5C 15.98,23.6068 17.6467,28.6068 19.5,33.5C 19.5,34.8333 19.5,36.1667 19.5,37.5C 17.9855,33.8951 16.3188,30.2284 14.5,26.5C 13.5344,24.604 13.2011,22.604 13.5,20.5C 13.5,19.8333 13.5,19.1667 13.5,18.5 Z"/></g>
<g><path style="opacity:1" fill="#f2dd2a" d="M 15.5,17.5 C 17.1654,21.495 18.8321,25.495 20.5,29.5C 20.7678,31.099 20.4345,32.4324 19.5,33.5C 17.6467,28.6068 15.98,23.6068 14.5,18.5C 14.5,17.8333 14.8333,17.5 15.5,17.5 Z"/></g>
<g><path style="opacity:1" fill="#e3c61e" d="M 40.5,16.5 C 41.1667,17.1667 41.8333,17.8333 42.5,18.5C 42.5,21.8333 42.5,25.1667 42.5,28.5C 42.5,28.8333 42.5,29.1667 42.5,29.5C 41.8333,26.8333 41.1667,24.1667 40.5,21.5C 40.5,20.5 40.5,19.5 40.5,18.5C 40.5,17.8333 40.5,17.1667 40.5,16.5 Z"/></g>
<g><path style="opacity:1" fill="#bda51c" d="M 47.5,19.5 C 47.9382,19.4346 48.2716,19.6012 48.5,20C 45.6677,21.9076 46.001,22.741 49.5,22.5C 49.5,23.8333 49.5,25.1667 49.5,26.5C 47.9731,26.427 46.9731,27.0937 46.5,28.5C 45.5084,28.6716 44.8417,28.3382 44.5,27.5C 45.7653,26.5207 47.0986,25.5207 48.5,24.5C 43.8747,23.2858 43.5414,21.6191 47.5,19.5 Z"/></g>
<g><path style="opacity:1" fill="#baa51f" d="M 29.5,14.5 C 29.5865,18.8566 29.9198,23.19 30.5,27.5C 30.1583,28.3382 29.4916,28.6716 28.5,28.5C 28.5,28.1667 28.5,27.8333 28.5,27.5C 28.5,24.8333 28.5,22.1667 28.5,19.5C 28.2155,17.5853 28.5489,15.9187 29.5,14.5 Z"/></g>
<g><path style="opacity:1" fill="#cbb01c" d="M 11.5,18.5 C 12.1667,18.5 12.8333,18.5 13.5,18.5C 13.5,19.1667 13.5,19.8333 13.5,20.5C 12.5269,22.9479 12.1936,25.6146 12.5,28.5C 12.6716,29.4916 12.3382,30.1583 11.5,30.5C 10.612,27.9455 10.2786,25.2788 10.5,22.5C 10.2322,20.901 10.5655,19.5676 11.5,18.5 Z"/></g>
<g><path style="opacity:1" fill="#eee131" d="M 31.5,21.5 C 33.6246,24.0878 34.9579,27.0878 35.5,30.5C 34.6618,30.8417 34.3284,31.5084 34.5,32.5C 33.9987,30.754 33.3321,29.754 32.5,29.5C 30.901,29.7678 29.5676,29.4345 28.5,28.5C 29.4916,28.6716 30.1583,28.3382 30.5,27.5C 31.2389,27.631 31.9056,27.4643 32.5,27C 31.5939,25.3005 31.2606,23.4672 31.5,21.5 Z"/></g>
<g><path style="opacity:1" fill="#f9f850" d="M 27.5,19.5 C 27.8333,19.5 28.1667,19.5 28.5,19.5C 28.5,22.1667 28.5,24.8333 28.5,27.5C 27.5,27.5 26.5,27.5 25.5,27.5C 24.8505,25.5648 24.5172,23.5648 24.5,21.5C 26.1788,21.7148 27.1788,21.0481 27.5,19.5 Z"/></g>
<g><path style="opacity:1" fill="#f6d925" d="M 42.5,18.5 C 44.4147,18.2155 46.0813,18.5489 47.5,19.5C 43.5414,21.6191 43.8747,23.2858 48.5,24.5C 47.0986,25.5207 45.7653,26.5207 44.5,27.5C 43.8333,27.8333 43.1667,28.1667 42.5,28.5C 42.5,25.1667 42.5,21.8333 42.5,18.5 Z"/></g>
<g><path style="opacity:1" fill="#d3b81e" d="M 7.5,19.5 C 8.28913,19.7828 8.9558,20.2828 9.5,21C 7.83333,22 6.16667,23 4.5,24C 5.56341,25.1882 6.89674,25.6882 8.5,25.5C 8.67158,26.4916 8.33825,27.1583 7.5,27.5C 5.95047,26.5592 4.2838,25.8925 2.5,25.5C 2.5,24.5 2.5,23.5 2.5,22.5C 4.84769,22.4077 6.51435,21.4077 7.5,19.5 Z"/></g>
<g><path style="opacity:1" fill="#eccf21" d="M 13.5,20.5 C 13.2011,22.604 13.5344,24.604 14.5,26.5C 16.3188,30.2284 17.9855,33.8951 19.5,37.5C 20.7804,38.9313 22.4471,39.5979 24.5,39.5C 24.5,40.1667 24.1667,40.5 23.5,40.5C 22.8333,40.5 22.1667,40.5 21.5,40.5C 20.1667,40.1667 18.8333,39.8333 17.5,39.5C 17.1667,38.8333 16.8333,38.1667 16.5,37.5C 16.9382,37.5654 17.2716,37.3988 17.5,37C 15.415,34.3178 13.7483,31.4845 12.5,28.5C 12.1936,25.6146 12.5269,22.9479 13.5,20.5 Z"/></g>
<g><path style="opacity:1" fill="#dcbf1d" d="M 2.5,25.5 C 4.2838,25.8925 5.95047,26.5592 7.5,27.5C 6.30646,28.2719 5.30646,29.2719 4.5,30.5C 3.83333,30.5 3.5,30.8333 3.5,31.5C 2.53862,29.7354 2.20528,27.7354 2.5,25.5 Z"/></g>
<g><path style="opacity:1" fill="#f9e333" d="M 44.5,27.5 C 44.8417,28.3382 45.5084,28.6716 46.5,28.5C 46.6107,29.1174 46.944,29.6174 47.5,30C 45.6854,30.7568 44.0188,31.5902 42.5,32.5C 42.1667,32.5 41.8333,32.5 41.5,32.5C 41.5569,31.391 41.8902,30.391 42.5,29.5C 42.5,29.1667 42.5,28.8333 42.5,28.5C 43.1667,28.1667 43.8333,27.8333 44.5,27.5 Z"/></g>
<g><path style="opacity:1" fill="#f4d928" d="M 10.5,22.5 C 10.2786,25.2788 10.612,27.9455 11.5,30.5C 11.5569,31.609 11.8902,32.609 12.5,33.5C 11.1667,34.8333 9.83333,34.8333 8.5,33.5C 8.80393,32.8501 9.13727,32.1835 9.5,31.5C 7.95467,30.5481 6.28801,30.2148 4.5,30.5C 5.30646,29.2719 6.30646,28.2719 7.5,27.5C 8.33825,27.1583 8.67158,26.4916 8.5,25.5C 9.16667,24.5 9.83333,23.5 10.5,22.5 Z"/></g>
<g><path style="opacity:0.149" fill="#d0b720" d="M 49.5,26.5 C 49.7947,28.7354 49.4614,30.7354 48.5,32.5C 44.4159,31.9453 43.7492,32.9453 46.5,35.5C 46.0302,36.463 45.3635,36.463 44.5,35.5C 43.8333,34.5 43.1667,33.5 42.5,32.5C 44.0188,31.5902 45.6854,30.7568 47.5,30C 46.944,29.6174 46.6107,29.1174 46.5,28.5C 46.9731,27.0937 47.9731,26.427 49.5,26.5 Z"/></g>
<g><path style="opacity:1" fill="#fbf711" d="M 25.5,27.5 C 26.5,27.5 27.5,27.5 28.5,27.5C 28.5,27.8333 28.5,28.1667 28.5,28.5C 29.5676,29.4345 30.901,29.7678 32.5,29.5C 32.5,30.8333 32.5,32.1667 32.5,33.5C 29.1194,33.4595 25.7861,33.7929 22.5,34.5C 22.5,33.5 22.5,32.5 22.5,31.5C 24.2294,30.7638 25.2294,29.4305 25.5,27.5 Z"/></g>
<g><path style="opacity:1" fill="#ad9b1c" d="M 34.5,32.5 C 34.2178,33.7777 33.5511,34.7777 32.5,35.5C 29.4552,35.5079 26.4552,35.8413 23.5,36.5C 21.744,35.4479 21.0773,33.7812 21.5,31.5C 21.8333,31.5 22.1667,31.5 22.5,31.5C 22.5,32.5 22.5,33.5 22.5,34.5C 25.7861,33.7929 29.1194,33.4595 32.5,33.5C 32.5,32.1667 32.5,30.8333 32.5,29.5C 33.3321,29.754 33.9987,30.754 34.5,32.5 Z"/></g>
<g><path style="opacity:1" fill="#dcbf1d" d="M 12.5,28.5 C 13.7483,31.4845 15.415,34.3178 17.5,37C 17.2716,37.3988 16.9382,37.5654 16.5,37.5C 14.8333,36.5 13.5,35.1667 12.5,33.5C 11.8902,32.609 11.5569,31.609 11.5,30.5C 12.3382,30.1583 12.6716,29.4916 12.5,28.5 Z"/></g>
<g><path style="opacity:1" fill="#eed223" d="M 40.5,21.5 C 41.1667,24.1667 41.8333,26.8333 42.5,29.5C 41.8902,30.391 41.5569,31.391 41.5,32.5C 40.1667,34.1667 38.8333,35.8333 37.5,37.5C 37.1667,37.5 36.8333,37.5 36.5,37.5C 36.5,37.1667 36.5,36.8333 36.5,36.5C 36.8333,35.8333 37.1667,35.1667 37.5,34.5C 38.9063,34.0269 39.573,33.0269 39.5,31.5C 40.3382,31.1583 40.6716,30.4916 40.5,29.5C 40.5,28.5 40.5,27.5 40.5,26.5C 40.5,24.8333 40.5,23.1667 40.5,21.5 Z"/></g>
<g><path style="opacity:1" fill="#fcef45" d="M 41.5,32.5 C 41.8333,32.5 42.1667,32.5 42.5,32.5C 43.1667,33.5 43.8333,34.5 44.5,35.5C 42.8333,36.1667 41.1667,36.8333 39.5,37.5C 39.5,37.8333 39.5,38.1667 39.5,38.5C 38.8333,38.1667 38.1667,37.8333 37.5,37.5C 38.8333,35.8333 40.1667,34.1667 41.5,32.5 Z"/></g>
<g><path style="opacity:1" fill="#f0d929" d="M 20.5,29.5 C 20.8333,29.5 21.1667,29.5 21.5,29.5C 21.5,30.1667 21.5,30.8333 21.5,31.5C 21.0773,33.7812 21.744,35.4479 23.5,36.5C 23.3893,37.1174 23.056,37.6174 22.5,38C 23.4158,38.2784 24.0825,38.7784 24.5,39.5C 22.4471,39.5979 20.7804,38.9313 19.5,37.5C 19.5,36.1667 19.5,34.8333 19.5,33.5C 20.4345,32.4324 20.7678,31.099 20.5,29.5 Z"/></g>
<g><path style="opacity:1" fill="#f5eb37" d="M 35.5,30.5 C 36.1667,31.8333 36.8333,33.1667 37.5,34.5C 37.1667,35.1667 36.8333,35.8333 36.5,36.5C 35.3951,37.6005 34.0618,38.2671 32.5,38.5C 33.1157,37.2022 33.1157,36.2022 32.5,35.5C 33.5511,34.7777 34.2178,33.7777 34.5,32.5C 34.3284,31.5084 34.6618,30.8417 35.5,30.5 Z"/></g>
<g><path style="opacity:0.381" fill="#d2b71c" d="M 4.5,30.5 C 6.28801,30.2148 7.95467,30.5481 9.5,31.5C 9.13727,32.1835 8.80393,32.8501 8.5,33.5C 7.83333,34.5 7.16667,35.5 6.5,36.5C 6.5,36.8333 6.5,37.1667 6.5,37.5C 6.5,37.8333 6.5,38.1667 6.5,38.5C 4.70732,36.5739 3.70732,34.2406 3.5,31.5C 3.5,30.8333 3.83333,30.5 4.5,30.5 Z"/></g>
<g><path style="opacity:0.988" fill="#ceb21b" d="M 6.5,37.5 C 7.97782,37.238 9.31116,37.5713 10.5,38.5C 9.34732,39.6868 9.34732,40.6868 10.5,41.5C 10.5,42.1667 10.8333,42.5 11.5,42.5C 11.5,42.8333 11.5,43.1667 11.5,43.5C 9.18365,42.578 7.51698,40.9113 6.5,38.5C 6.5,38.1667 6.5,37.8333 6.5,37.5 Z"/></g>
<g><path style="opacity:1" fill="#c2a91c" d="M 10.5,41.5 C 9.34732,40.6868 9.34732,39.6868 10.5,38.5C 9.31116,37.5713 7.97782,37.238 6.5,37.5C 6.5,37.1667 6.5,36.8333 6.5,36.5C 12.5958,34.5345 13.9291,36.2011 10.5,41.5 Z"/></g>
<g><path style="opacity:1" fill="#f7ec37" d="M 32.5,35.5 C 33.1157,36.2022 33.1157,37.2022 32.5,38.5C 30.0521,39.4731 27.3854,39.8064 24.5,39.5C 24.0825,38.7784 23.4158,38.2784 22.5,38C 23.056,37.6174 23.3893,37.1174 23.5,36.5C 26.4552,35.8413 29.4552,35.5079 32.5,35.5 Z"/></g>
<g><path style="opacity:1" fill="#b59e1d" d="M 39.5,37.5 C 41.7354,37.2053 43.7354,37.5386 45.5,38.5C 44.1667,38.5 42.8333,38.5 41.5,38.5C 41.7678,40.099 41.4345,41.4324 40.5,42.5C 40.5674,41.0413 40.2341,39.7079 39.5,38.5C 39.5,38.1667 39.5,37.8333 39.5,37.5 Z"/></g>
<g><path style="opacity:0.188" fill="#e2cb2c" d="M 48.5,32.5 C 48.539,35.089 47.539,37.089 45.5,38.5C 43.7354,37.5386 41.7354,37.2053 39.5,37.5C 41.1667,36.8333 42.8333,36.1667 44.5,35.5C 45.3635,36.463 46.0302,36.463 46.5,35.5C 43.7492,32.9453 44.4159,31.9453 48.5,32.5 Z"/></g>
<g><path style="opacity:1" fill="#fbf655" d="M 36.5,37.5 C 36.8333,37.5 37.1667,37.5 37.5,37.5C 38.1667,37.8333 38.8333,38.1667 39.5,38.5C 40.2341,39.7079 40.5674,41.0413 40.5,42.5C 40.1667,42.5 39.8333,42.5 39.5,42.5C 37.5648,41.8505 35.5648,41.5172 33.5,41.5C 33.5,41.1667 33.5,40.8333 33.5,40.5C 34.6935,39.7281 35.6935,38.7281 36.5,37.5 Z"/></g>
<g><path style="opacity:1" fill="#f6da25" d="M 8.5,33.5 C 9.83333,34.8333 11.1667,34.8333 12.5,33.5C 13.5,35.1667 14.8333,36.5 16.5,37.5C 16.8333,38.1667 17.1667,38.8333 17.5,39.5C 17.5,39.8333 17.5,40.1667 17.5,40.5C 15.2972,40.6036 13.2972,41.2702 11.5,42.5C 10.8333,42.5 10.5,42.1667 10.5,41.5C 13.9291,36.2011 12.5958,34.5345 6.5,36.5C 7.16667,35.5 7.83333,34.5 8.5,33.5 Z"/></g>
<g><path style="opacity:1" fill="#f0d729" d="M 36.5,36.5 C 36.5,36.8333 36.5,37.1667 36.5,37.5C 35.6935,38.7281 34.6935,39.7281 33.5,40.5C 31.7839,40.6287 30.1172,40.962 28.5,41.5C 26.5853,41.7845 24.9187,41.4511 23.5,40.5C 24.1667,40.5 24.5,40.1667 24.5,39.5C 27.3854,39.8064 30.0521,39.4731 32.5,38.5C 34.0618,38.2671 35.3951,37.6005 36.5,36.5 Z"/></g>
<g><path style="opacity:1" fill="#f9e231" d="M 17.5,39.5 C 18.8333,39.8333 20.1667,40.1667 21.5,40.5C 21.5,41.1667 21.5,41.8333 21.5,42.5C 20.5977,44.3407 19.2644,45.674 17.5,46.5C 17.5,44.5 17.5,42.5 17.5,40.5C 17.5,40.1667 17.5,39.8333 17.5,39.5 Z"/></g>
<g><path style="opacity:1" fill="#fdf956" d="M 33.5,40.5 C 33.5,40.8333 33.5,41.1667 33.5,41.5C 33.6602,43.1992 33.4935,44.8659 33,46.5C 31.9609,45.2899 30.7942,44.2899 29.5,43.5C 29.1667,42.8333 28.8333,42.1667 28.5,41.5C 30.1172,40.962 31.7839,40.6287 33.5,40.5 Z"/></g>
<g><path style="opacity:0.078" fill="#ecd32b" d="M 45.5,38.5 C 44.5806,41.0892 42.914,43.0892 40.5,44.5C 40.1667,43.8333 39.8333,43.1667 39.5,42.5C 39.8333,42.5 40.1667,42.5 40.5,42.5C 41.4345,41.4324 41.7678,40.099 41.5,38.5C 42.8333,38.5 44.1667,38.5 45.5,38.5 Z"/></g>
<g><path style="opacity:1" fill="#bda51c" d="M 17.5,40.5 C 17.5,42.5 17.5,44.5 17.5,46.5C 16.8375,42.839 14.8375,41.839 11.5,43.5C 11.5,43.1667 11.5,42.8333 11.5,42.5C 13.2972,41.2702 15.2972,40.6036 17.5,40.5 Z"/></g>
<g><path style="opacity:1" fill="#f7e83f" d="M 21.5,40.5 C 22.1667,40.5 22.8333,40.5 23.5,40.5C 24.9187,41.4511 26.5853,41.7845 28.5,41.5C 28.8333,42.1667 29.1667,42.8333 29.5,43.5C 28.8333,43.5 28.5,43.8333 28.5,44.5C 27.2876,45.2299 26.2876,46.2299 25.5,47.5C 24.8492,45.1526 23.5159,43.4859 21.5,42.5C 21.5,41.8333 21.5,41.1667 21.5,40.5 Z"/></g>
<g><path style="opacity:0.502" fill="#ccb21e" d="M 17.5,46.5 C 19.2644,45.674 20.5977,44.3407 21.5,42.5C 23.5159,43.4859 24.8492,45.1526 25.5,47.5C 26.2876,46.2299 27.2876,45.2299 28.5,44.5C 27.962,46.1172 27.6287,47.7839 27.5,49.5C 21.1035,50.0383 15.7702,48.0383 11.5,43.5C 14.8375,41.839 16.8375,42.839 17.5,46.5 Z"/></g>
<g><path style="opacity:1" fill="#e8cb21" d="M 28.5,44.5 C 30.1667,45.5 31.5,46.8333 32.5,48.5C 30.9582,49.3007 29.2915,49.634 27.5,49.5C 27.6287,47.7839 27.962,46.1172 28.5,44.5 Z"/></g>
<g><path style="opacity:0.384" fill="#f1d628" d="M 39.5,44.5 C 38.5637,45.9744 37.2303,46.9744 35.5,47.5C 34.6077,42.4935 35.941,41.4935 39.5,44.5 Z"/></g>
<g><path style="opacity:0.016" fill="#c9b72e" d="M 33.5,41.5 C 35.5648,41.5172 37.5648,41.8505 39.5,42.5C 39.8333,43.1667 40.1667,43.8333 40.5,44.5C 40.1667,44.5 39.8333,44.5 39.5,44.5C 35.941,41.4935 34.6077,42.4935 35.5,47.5C 34.609,48.1098 33.609,48.4431 32.5,48.5C 31.5,46.8333 30.1667,45.5 28.5,44.5C 28.5,43.8333 28.8333,43.5 29.5,43.5C 30.7942,44.2899 31.9609,45.2899 33,46.5C 33.4935,44.8659 33.6602,43.1992 33.5,41.5 Z"/></g>
</svg>
