<?xml version="1.0" encoding="UTF-8"?>
<!DOCTYPE svg PUBLIC "-//W3C//DTD SVG 1.1//EN" "http://www.w3.org/Graphics/SVG/1.1/DTD/svg11.dtd">
<svg xmlns="http://www.w3.org/2000/svg" version="1.1" width="53px" height="53px" style="shape-rendering:geometricPrecision; text-rendering:geometricPrecision; image-rendering:optimizeQuality; fill-rule:evenodd; clip-rule:evenodd" xmlns:xlink="http://www.w3.org/1999/xlink">
<g><path style="opacity:1" fill="#e1c623" d="M 19.5,2.5 C 21.6074,1.53178 23.9407,1.19845 26.5,1.5C 25.375,2.65225 25.375,3.65225 26.5,4.5C 23.6935,7.0443 24.3601,8.0443 28.5,7.5C 28.5,7.83333 28.5,8.16667 28.5,8.5C 26.5,8.5 24.5,8.5 22.5,8.5C 22.5,7.5 22.5,6.5 22.5,5.5C 21.8333,4.16667 20.8333,3.16667 19.5,2.5 Z"/></g>
<g><path style="opacity:1" fill="#d9bd1d" d="M 29.5,1.5 C 31.8333,2.16667 34.1667,2.83333 36.5,3.5C 36.5,3.83333 36.5,4.16667 36.5,4.5C 35.8333,4.83333 35.1667,5.16667 34.5,5.5C 33.6868,4.34732 32.6868,4.34732 31.5,5.5C 30.6376,4.23415 29.9709,2.90082 29.5,1.5 Z"/></g>
<g><path style="opacity:1" fill="#ebcf25" d="M 17.5,2.5 C 17.2287,4.31166 16.562,5.97832 15.5,7.5C 14.3132,6.34732 13.3132,6.34732 12.5,7.5C 11.8333,7.5 11.5,7.83333 11.5,8.5C 10.5655,9.56764 10.2322,10.901 10.5,12.5C 8.83333,12.5 7.16667,12.5 5.5,12.5C 8.59901,8.06613 12.599,4.73279 17.5,2.5 Z"/></g>
<g><path style="opacity:1" fill="#f7ea44" d="M 22.5,5.5 C 22.5,6.5 22.5,7.5 22.5,8.5C 20.847,8.6596 19.5137,9.32627 18.5,10.5C 18.1667,10.5 17.8333,10.5 17.5,10.5C 16.8333,9.83333 16.1667,9.16667 15.5,8.5C 17.6138,7.63982 18.7805,5.97315 19,3.5C 19.8159,4.82277 20.9826,5.48944 22.5,5.5 Z"/></g>
<g><path style="opacity:1" fill="#fbe635" d="M 29.5,7.5 C 29.1667,7.5 28.8333,7.5 28.5,7.5C 24.3601,8.0443 23.6935,7.0443 26.5,4.5C 26.7828,3.71087 27.2828,3.0442 28,2.5C 29.0086,4.02494 29.5086,5.69161 29.5,7.5 Z"/></g>
<g><path style="opacity:1" fill="#cbb11d" d="M 26.5,1.5 C 27.5,1.5 28.5,1.5 29.5,1.5C 29.9709,2.90082 30.6376,4.23415 31.5,5.5C 32.6868,4.34732 33.6868,4.34732 34.5,5.5C 32.9505,6.4408 31.2838,7.10746 29.5,7.5C 29.5086,5.69161 29.0086,4.02494 28,2.5C 27.2828,3.0442 26.7828,3.71087 26.5,4.5C 25.375,3.65225 25.375,2.65225 26.5,1.5 Z"/></g>
<g><path style="opacity:1" fill="#f6dd2b" d="M 36.5,4.5 C 36.2053,6.73535 36.5386,8.73535 37.5,10.5C 37.5,11.1667 37.5,11.8333 37.5,12.5C 35.3478,10.2218 32.6812,8.88842 29.5,8.5C 29.1667,8.5 28.8333,8.5 28.5,8.5C 28.5,8.16667 28.5,7.83333 28.5,7.5C 28.8333,7.5 29.1667,7.5 29.5,7.5C 31.2838,7.10746 32.9505,6.4408 34.5,5.5C 35.1667,5.16667 35.8333,4.83333 36.5,4.5 Z"/></g>
<g><path style="opacity:1" fill="#dbbf20" d="M 17.5,2.5 C 18.1667,2.5 18.8333,2.5 19.5,2.5C 20.8333,3.16667 21.8333,4.16667 22.5,5.5C 20.9826,5.48944 19.8159,4.82277 19,3.5C 18.7805,5.97315 17.6138,7.63982 15.5,8.5C 14.391,8.44312 13.391,8.10978 12.5,7.5C 13.3132,6.34732 14.3132,6.34732 15.5,7.5C 16.562,5.97832 17.2287,4.31166 17.5,2.5 Z"/></g>
<g><path style="opacity:1" fill="#c8ae1c" d="M 36.5,3.5 C 39.4323,4.79973 41.7656,6.79973 43.5,9.5C 42.8333,9.83333 42.1667,10.1667 41.5,10.5C 40.2946,9.31434 38.9613,9.31434 37.5,10.5C 36.5386,8.73535 36.2053,6.73535 36.5,4.5C 36.5,4.16667 36.5,3.83333 36.5,3.5 Z"/></g>
<g><path style="opacity:1" fill="#faf556" d="M 12.5,7.5 C 13.391,8.10978 14.391,8.44312 15.5,8.5C 16.1667,9.16667 16.8333,9.83333 17.5,10.5C 16.1667,11.5 14.8333,12.5 13.5,13.5C 13.1667,13.5 12.8333,13.5 12.5,13.5C 12.3713,11.7839 12.038,10.1172 11.5,8.5C 11.5,7.83333 11.8333,7.5 12.5,7.5 Z"/></g>
<g><path style="opacity:1" fill="#c6ac1c" d="M 22.5,8.5 C 24.5,8.5 26.5,8.5 28.5,8.5C 28.8333,8.5 29.1667,8.5 29.5,8.5C 27.8333,9.16667 26.1667,9.83333 24.5,10.5C 22.901,10.2322 21.5676,10.5655 20.5,11.5C 19.8333,11.8333 19.1667,12.1667 18.5,12.5C 18.5,11.8333 18.5,11.1667 18.5,10.5C 19.5137,9.32627 20.847,8.6596 22.5,8.5 Z"/></g>
<g><path style="opacity:1" fill="#d5ba1f" d="M 29.5,8.5 C 32.6812,8.88842 35.3478,10.2218 37.5,12.5C 37.8333,13.1667 38.1667,13.8333 38.5,14.5C 36.5,13.5 34.5,12.5 32.5,11.5C 31.609,10.8902 30.609,10.5569 29.5,10.5C 27.8333,10.5 26.1667,10.5 24.5,10.5C 26.1667,9.83333 27.8333,9.16667 29.5,8.5 Z"/></g>
<g><path style="opacity:1" fill="#fadf28" d="M 41.5,10.5 C 40.962,12.1172 40.6287,13.7839 40.5,15.5C 39.8333,15.1667 39.1667,14.8333 38.5,14.5C 38.1667,13.8333 37.8333,13.1667 37.5,12.5C 37.5,11.8333 37.5,11.1667 37.5,10.5C 38.9613,9.31434 40.2946,9.31434 41.5,10.5 Z"/></g>
<g><path style="opacity:1" fill="#f2e12f" d="M 20.5,11.5 C 21.5676,10.5655 22.901,10.2322 24.5,10.5C 26.1667,10.5 27.8333,10.5 29.5,10.5C 29.4326,11.9587 29.7659,13.2921 30.5,14.5C 28.1667,14.5 25.8333,14.5 23.5,14.5C 22.4019,13.603 22.4019,12.7697 23.5,12C 22.552,11.5172 21.552,11.3505 20.5,11.5 Z"/></g>
<g><path style="opacity:1" fill="#e0c523" d="M 11.5,8.5 C 12.038,10.1172 12.3713,11.7839 12.5,13.5C 9.91791,13.0254 7.91791,13.6921 6.5,15.5C 6.41423,16.4959 6.74756,17.3292 7.5,18C 5.84552,18.6077 4.17885,19.1077 2.5,19.5C 3.30524,17.0846 4.30524,14.7513 5.5,12.5C 7.16667,12.5 8.83333,12.5 10.5,12.5C 10.2322,10.901 10.5655,9.56764 11.5,8.5 Z"/></g>
<g><path style="opacity:1" fill="#f7f03a" d="M 20.5,11.5 C 21.552,11.3505 22.552,11.5172 23.5,12C 22.4019,12.7697 22.4019,13.603 23.5,14.5C 23.5,14.8333 23.5,15.1667 23.5,15.5C 21.1782,16.8021 19.8449,18.8021 19.5,21.5C 18.3496,19.3912 17.0163,17.3912 15.5,15.5C 16.1667,14.1667 17.1667,13.1667 18.5,12.5C 19.1667,12.1667 19.8333,11.8333 20.5,11.5 Z"/></g>
<g><path style="opacity:1" fill="#f0d726" d="M 29.5,10.5 C 30.609,10.5569 31.609,10.8902 32.5,11.5C 35.8361,16.1751 39.1694,20.8418 42.5,25.5C 42.5,25.8333 42.5,26.1667 42.5,26.5C 42.1667,27.8333 41.8333,29.1667 41.5,30.5C 39.0406,26.2616 36.5406,21.9283 34,17.5C 33.2411,15.9371 32.0744,14.9371 30.5,14.5C 29.7659,13.2921 29.4326,11.9587 29.5,10.5 Z"/></g>
<g><path style="opacity:1" fill="#ecd022" d="M 32.5,11.5 C 34.5,12.5 36.5,13.5 38.5,14.5C 39.1667,14.8333 39.8333,15.1667 40.5,15.5C 41.1481,17.0858 41.6481,18.7525 42,20.5C 42.3826,19.944 42.8826,19.6107 43.5,19.5C 43.5,20.1667 43.5,20.8333 43.5,21.5C 42.5655,22.5676 42.2322,23.901 42.5,25.5C 39.1694,20.8418 35.8361,16.1751 32.5,11.5 Z"/></g>
<g><path style="opacity:1" fill="#c2a91d" d="M 43.5,9.5 C 44.4706,11.4832 45.4706,13.4832 46.5,15.5C 44.5,15.5 42.5,15.5 40.5,15.5C 40.6287,13.7839 40.962,12.1172 41.5,10.5C 42.1667,10.1667 42.8333,9.83333 43.5,9.5 Z"/></g>
<g><path style="opacity:1" fill="#f9f14e" d="M 12.5,13.5 C 12.8333,13.5 13.1667,13.5 13.5,13.5C 12.2485,15.0009 11.2485,16.6675 10.5,18.5C 10.1667,18.5 9.83333,18.5 9.5,18.5C 8.83333,17.1667 7.83333,16.1667 6.5,15.5C 7.91791,13.6921 9.91791,13.0254 12.5,13.5 Z"/></g>
<g><path style="opacity:1" fill="#d4bf20" d="M 23.5,15.5 C 23.5,15.1667 23.5,14.8333 23.5,14.5C 25.8333,14.5 28.1667,14.5 30.5,14.5C 30.5,15.5 30.5,16.5 30.5,17.5C 30.7678,19.099 30.4345,20.4324 29.5,21.5C 29.7678,19.901 29.4345,18.5676 28.5,17.5C 27.4479,15.744 25.7812,15.0773 23.5,15.5 Z"/></g>
<g><path style="opacity:1" fill="#fae12d" d="M 40.5,15.5 C 42.5,15.5 44.5,15.5 46.5,15.5C 46.5,15.8333 46.5,16.1667 46.5,16.5C 45.2719,17.3065 44.2719,18.3065 43.5,19.5C 42.8826,19.6107 42.3826,19.944 42,20.5C 41.6481,18.7525 41.1481,17.0858 40.5,15.5 Z"/></g>
<g><path style="opacity:1" fill="#c7ad1b" d="M 17.5,10.5 C 17.8333,10.5 18.1667,10.5 18.5,10.5C 18.5,11.1667 18.5,11.8333 18.5,12.5C 17.1667,13.1667 16.1667,14.1667 15.5,15.5C 14.5987,16.2905 13.9321,17.2905 13.5,18.5C 12.6618,18.8417 12.3284,19.5084 12.5,20.5C 11.8333,23.5 11.1667,26.5 10.5,29.5C 10.5,28.8333 10.1667,28.5 9.5,28.5C 9.5,27.8333 9.5,27.1667 9.5,26.5C 9.40132,23.7628 9.73465,21.0961 10.5,18.5C 11.2485,16.6675 12.2485,15.0009 13.5,13.5C 14.8333,12.5 16.1667,11.5 17.5,10.5 Z"/></g>
<g><path style="opacity:1" fill="#f6ea35" d="M 15.5,15.5 C 17.0163,17.3912 18.3496,19.3912 19.5,21.5C 20.5,21.5 21.5,21.5 22.5,21.5C 22.5,23.8333 22.5,26.1667 22.5,28.5C 21.5,28.5 20.5,28.5 19.5,28.5C 17.9884,24.7991 15.9884,21.4658 13.5,18.5C 13.9321,17.2905 14.5987,16.2905 15.5,15.5 Z"/></g>
<g><path style="opacity:1" fill="#fcf925" d="M 23.5,15.5 C 25.7812,15.0773 27.4479,15.744 28.5,17.5C 28.634,19.2915 28.3007,20.9582 27.5,22.5C 26.5,22.5 25.5,22.5 24.5,22.5C 24.5,21.5 24.5,20.5 24.5,19.5C 23.448,19.6495 22.448,19.4828 21.5,19C 22.8228,18.1841 23.4894,17.0174 23.5,15.5 Z"/></g>
<g><path style="opacity:0.696" fill="#d5bc22" d="M 6.5,15.5 C 7.83333,16.1667 8.83333,17.1667 9.5,18.5C 7.98123,19.4098 6.31456,20.2432 4.5,21C 6.14117,22.129 7.14117,23.629 7.5,25.5C 6.5,26.1667 5.5,26.8333 4.5,27.5C 4.06178,27.5654 3.72845,27.3988 3.5,27C 6.1768,24.1642 5.51013,22.3308 1.5,21.5C 1.32842,20.5084 1.66175,19.8417 2.5,19.5C 4.17885,19.1077 5.84552,18.6077 7.5,18C 6.74756,17.3292 6.41423,16.4959 6.5,15.5 Z"/></g>
<g><path style="opacity:1" fill="#c0a91f" d="M 46.5,16.5 C 46.9382,16.4346 47.2716,16.6012 47.5,17C 44.9668,19.4608 45.6334,20.9608 49.5,21.5C 49.5,22.5 49.5,23.5 49.5,24.5C 44.8361,25.6432 44.5028,27.4765 48.5,30C 48.2716,30.3988 47.9382,30.5654 47.5,30.5C 45.8333,29.5 44.5,28.1667 43.5,26.5C 44.9869,25.1964 46.6536,24.0298 48.5,23C 46.8455,22.3923 45.1789,21.8923 43.5,21.5C 43.5,20.8333 43.5,20.1667 43.5,19.5C 44.2719,18.3065 45.2719,17.3065 46.5,16.5 Z"/></g>
<g><path style="opacity:0.933" fill="#d8bc1e" d="M 43.5,9.5 C 47.0667,12.6332 49.0667,16.6332 49.5,21.5C 45.6334,20.9608 44.9668,19.4608 47.5,17C 47.2716,16.6012 46.9382,16.4346 46.5,16.5C 46.5,16.1667 46.5,15.8333 46.5,15.5C 45.4706,13.4832 44.4706,11.4832 43.5,9.5 Z"/></g>
<g><path style="opacity:1" fill="#f8e63c" d="M 9.5,18.5 C 9.83333,18.5 10.1667,18.5 10.5,18.5C 9.73465,21.0961 9.40132,23.7628 9.5,26.5C 8.83333,26.1667 8.16667,25.8333 7.5,25.5C 7.14117,23.629 6.14117,22.129 4.5,21C 6.31456,20.2432 7.98123,19.4098 9.5,18.5 Z"/></g>
<g><path style="opacity:1" fill="#f3e02e" d="M 13.5,18.5 C 15.9884,21.4658 17.9884,24.7991 19.5,28.5C 19.5,28.8333 19.5,29.1667 19.5,29.5C 18.8333,29.5 18.5,29.8333 18.5,30.5C 17.0851,27.3761 15.0851,24.7095 12.5,22.5C 12.5,21.8333 12.5,21.1667 12.5,20.5C 12.3284,19.5084 12.6618,18.8417 13.5,18.5 Z"/></g>
<g><path style="opacity:1" fill="#f4e331" d="M 31.5,19.5 C 35.4671,23.3772 38.1338,28.0439 39.5,33.5C 38.925,35.4113 37.925,37.078 36.5,38.5C 35.8333,38.5 35.1667,38.5 34.5,38.5C 35.1667,37.5 35.8333,36.5 36.5,35.5C 37.6946,35.1344 38.3613,34.301 38.5,33C 35.308,28.9078 32.9746,24.4078 31.5,19.5 Z"/></g>
<g><path style="opacity:1" fill="#d3c326" d="M 23.5,15.5 C 23.4894,17.0174 22.8228,18.1841 21.5,19C 22.448,19.4828 23.448,19.6495 24.5,19.5C 24.5,20.5 24.5,21.5 24.5,22.5C 24.5,24.8333 24.5,27.1667 24.5,29.5C 23.1667,29.5 21.8333,29.5 20.5,29.5C 20.5,30.8333 20.5,32.1667 20.5,33.5C 23.8333,33.5 27.1667,33.5 30.5,33.5C 27.1667,34.1667 23.8333,34.8333 20.5,35.5C 19.5386,33.7354 19.2053,31.7354 19.5,29.5C 19.5,29.1667 19.5,28.8333 19.5,28.5C 20.5,28.5 21.5,28.5 22.5,28.5C 22.5,26.1667 22.5,23.8333 22.5,21.5C 21.5,21.5 20.5,21.5 19.5,21.5C 19.8449,18.8021 21.1782,16.8021 23.5,15.5 Z"/></g>
<g><path style="opacity:1" fill="#f2dd2c" d="M 30.5,14.5 C 32.0744,14.9371 33.2411,15.9371 34,17.5C 36.5406,21.9283 39.0406,26.2616 41.5,30.5C 41.8417,31.3382 42.5084,31.6716 43.5,31.5C 43.1583,32.3382 42.4916,32.6716 41.5,32.5C 40.8333,32.8333 40.1667,33.1667 39.5,33.5C 38.1338,28.0439 35.4671,23.3772 31.5,19.5C 31.6716,18.5084 31.3382,17.8417 30.5,17.5C 30.5,16.5 30.5,15.5 30.5,14.5 Z"/></g>
<g><path style="opacity:0.83" fill="#ddc11e" d="M 1.5,21.5 C 5.51013,22.3308 6.1768,24.1642 3.5,27C 3.72845,27.3988 4.06178,27.5654 4.5,27.5C 4.16667,28.1667 3.83333,28.8333 3.5,29.5C 2.83333,29.5 2.16667,29.5 1.5,29.5C 1.5,26.8333 1.5,24.1667 1.5,21.5 Z"/></g>
<g><path style="opacity:1" fill="#f9e637" d="M 43.5,21.5 C 45.1789,21.8923 46.8455,22.3923 48.5,23C 46.6536,24.0298 44.9869,25.1964 43.5,26.5C 43.1667,26.5 42.8333,26.5 42.5,26.5C 42.5,26.1667 42.5,25.8333 42.5,25.5C 42.2322,23.901 42.5655,22.5676 43.5,21.5 Z"/></g>
<g><path style="opacity:1" fill="#f2dc29" d="M 12.5,22.5 C 15.0851,24.7095 17.0851,27.3761 18.5,30.5C 18.5,31.5 18.5,32.5 18.5,33.5C 16.7188,30.9088 14.7188,28.5755 12.5,26.5C 12.5,25.1667 12.5,23.8333 12.5,22.5 Z"/></g>
<g><path style="opacity:1" fill="#f5e935" d="M 30.5,17.5 C 31.3382,17.8417 31.6716,18.5084 31.5,19.5C 32.9746,24.4078 35.308,28.9078 38.5,33C 38.3613,34.301 37.6946,35.1344 36.5,35.5C 35.1995,34.1184 34.3661,32.4517 34,30.5C 33.7216,31.4158 33.2216,32.0825 32.5,32.5C 32.5,31.8333 32.5,31.1667 32.5,30.5C 31.791,29.596 30.791,29.2627 29.5,29.5C 29.5,26.8333 29.5,24.1667 29.5,21.5C 30.4345,20.4324 30.7678,19.099 30.5,17.5 Z"/></g>
<g><path style="opacity:1" fill="#f0d725" d="M 12.5,26.5 C 14.7188,28.5755 16.7188,30.9088 18.5,33.5C 18.5,34.8333 18.5,36.1667 18.5,37.5C 14.1535,35.142 12.1535,31.4753 12.5,26.5 Z"/></g>
<g><path style="opacity:1" fill="#c5b62a" d="M 28.5,17.5 C 29.4345,18.5676 29.7678,19.901 29.5,21.5C 29.5,24.1667 29.5,26.8333 29.5,29.5C 30.791,29.2627 31.791,29.596 32.5,30.5C 31.8333,31.5 31.1667,32.5 30.5,33.5C 30.5,32.5 30.5,31.5 30.5,30.5C 29.5,30.5 28.5,30.5 27.5,30.5C 27.5,27.8333 27.5,25.1667 27.5,22.5C 28.3007,20.9582 28.634,19.2915 28.5,17.5 Z"/></g>
<g><path style="opacity:1" fill="#fbe22e" d="M 7.5,25.5 C 8.16667,25.8333 8.83333,26.1667 9.5,26.5C 9.5,27.1667 9.5,27.8333 9.5,28.5C 9.15829,29.3382 8.49162,29.6716 7.5,29.5C 6.16667,29.5 4.83333,29.5 3.5,29.5C 3.83333,28.8333 4.16667,28.1667 4.5,27.5C 5.5,26.8333 6.5,26.1667 7.5,25.5 Z"/></g>
<g><path style="opacity:1" fill="#fdf249" d="M 42.5,26.5 C 42.8333,26.5 43.1667,26.5 43.5,26.5C 44.5,28.1667 45.8333,29.5 47.5,30.5C 47.5,30.8333 47.5,31.1667 47.5,31.5C 46.1667,31.5 44.8333,31.5 43.5,31.5C 42.5084,31.6716 41.8417,31.3382 41.5,30.5C 41.8333,29.1667 42.1667,27.8333 42.5,26.5 Z"/></g>
<g><path style="opacity:0.576" fill="#e2c621" d="M 49.5,24.5 C 49.8016,27.0593 49.4682,29.3926 48.5,31.5C 48.1667,31.5 47.8333,31.5 47.5,31.5C 47.5,31.1667 47.5,30.8333 47.5,30.5C 47.9382,30.5654 48.2716,30.3988 48.5,30C 44.5028,27.4765 44.8361,25.6432 49.5,24.5 Z"/></g>
<g><path style="opacity:1" fill="#fdfd4b" d="M 24.5,22.5 C 25.5,22.5 26.5,22.5 27.5,22.5C 27.5,25.1667 27.5,27.8333 27.5,30.5C 26.609,29.8902 25.609,29.5569 24.5,29.5C 24.5,27.1667 24.5,24.8333 24.5,22.5 Z"/></g>
<g><path style="opacity:1" fill="#c5ab1c" d="M 1.5,29.5 C 2.16667,29.5 2.83333,29.5 3.5,29.5C 4.83333,29.5 6.16667,29.5 7.5,29.5C 8.09065,30.1515 8.75731,30.8182 9.5,31.5C 8.47565,32.8518 7.47565,34.1851 6.5,35.5C 5.35521,34.2073 5.68854,33.0407 7.5,32C 5.86586,31.5065 4.19919,31.3398 2.5,31.5C 2.16667,30.8333 1.83333,30.1667 1.5,29.5 Z"/></g>
<g><path style="opacity:1" fill="#fdfa22" d="M 24.5,29.5 C 25.609,29.5569 26.609,29.8902 27.5,30.5C 28.5,30.5 29.5,30.5 30.5,30.5C 30.5,31.5 30.5,32.5 30.5,33.5C 27.1667,33.5 23.8333,33.5 20.5,33.5C 20.5,32.1667 20.5,30.8333 20.5,29.5C 21.8333,29.5 23.1667,29.5 24.5,29.5 Z"/></g>
<g><path style="opacity:1" fill="#f8ef39" d="M 36.5,35.5 C 35.8333,36.5 35.1667,37.5 34.5,38.5C 31.9039,39.2653 29.2372,39.5987 26.5,39.5C 26.5,38.5 26.5,37.5 26.5,36.5C 28.7354,36.7947 30.7354,36.4614 32.5,35.5C 32.5,34.5 32.5,33.5 32.5,32.5C 33.2216,32.0825 33.7216,31.4158 34,30.5C 34.3661,32.4517 35.1995,34.1184 36.5,35.5 Z"/></g>
<g><path style="opacity:1" fill="#d1b61c" d="M 2.5,31.5 C 4.19919,31.3398 5.86586,31.5065 7.5,32C 5.68854,33.0407 5.35521,34.2073 6.5,35.5C 6.5,36.1667 6.83333,36.5 7.5,36.5C 7.16667,37.1667 6.83333,37.8333 6.5,38.5C 4.42841,36.6505 3.09508,34.3171 2.5,31.5 Z"/></g>
<g><path style="opacity:1" fill="#c3ad24" d="M 43.5,31.5 C 44.8333,31.5 46.1667,31.5 47.5,31.5C 47.8333,31.5 48.1667,31.5 48.5,31.5C 48.5,32.1667 48.5,32.8333 48.5,33.5C 44.5089,32.872 43.1755,34.2053 44.5,37.5C 44.1667,37.5 43.8333,37.5 43.5,37.5C 42.5592,35.9505 41.8925,34.2838 41.5,32.5C 42.4916,32.6716 43.1583,32.3382 43.5,31.5 Z"/></g>
<g><path style="opacity:1" fill="#dbbf1f" d="M 12.5,20.5 C 12.5,21.1667 12.5,21.8333 12.5,22.5C 12.5,23.8333 12.5,25.1667 12.5,26.5C 12.1535,31.4753 14.1535,35.142 18.5,37.5C 18.5,38.1667 18.1667,38.5 17.5,38.5C 16.5,37.8333 15.5,37.1667 14.5,36.5C 14.1667,35.5 13.5,34.8333 12.5,34.5C 11.5592,32.9505 10.8925,31.2838 10.5,29.5C 11.1667,26.5 11.8333,23.5 12.5,20.5 Z"/></g>
<g><path style="opacity:1" fill="#edd125" d="M 48.5,33.5 C 48.2503,35.674 47.2503,37.3406 45.5,38.5C 45.5,37.8333 45.1667,37.5 44.5,37.5C 43.1755,34.2053 44.5089,32.872 48.5,33.5 Z"/></g>
<g><path style="opacity:1" fill="#f9dd27" d="M 9.5,28.5 C 10.1667,28.5 10.5,28.8333 10.5,29.5C 10.8925,31.2838 11.5592,32.9505 12.5,34.5C 11.1667,35.1667 9.83333,35.8333 8.5,36.5C 8.16667,36.5 7.83333,36.5 7.5,36.5C 6.83333,36.5 6.5,36.1667 6.5,35.5C 7.47565,34.1851 8.47565,32.8518 9.5,31.5C 8.75731,30.8182 8.09065,30.1515 7.5,29.5C 8.49162,29.6716 9.15829,29.3382 9.5,28.5 Z"/></g>
<g><path style="opacity:1" fill="#a3901f" d="M 32.5,30.5 C 32.5,31.1667 32.5,31.8333 32.5,32.5C 32.5,33.5 32.5,34.5 32.5,35.5C 28.5,35.5 24.5,35.5 20.5,35.5C 23.8333,34.8333 27.1667,34.1667 30.5,33.5C 31.1667,32.5 31.8333,31.5 32.5,30.5 Z"/></g>
<g><path style="opacity:1" fill="#fcf859" d="M 41.5,32.5 C 41.8925,34.2838 42.5592,35.9505 43.5,37.5C 41.3926,38.4682 39.0593,38.8016 36.5,38.5C 37.925,37.078 38.925,35.4113 39.5,33.5C 40.1667,33.1667 40.8333,32.8333 41.5,32.5 Z"/></g>
<g><path style="opacity:1" fill="#f0da29" d="M 19.5,29.5 C 19.2053,31.7354 19.5386,33.7354 20.5,35.5C 22.2294,36.2362 23.2294,37.5695 23.5,39.5C 21.7162,39.1075 20.0495,38.4408 18.5,37.5C 18.5,36.1667 18.5,34.8333 18.5,33.5C 18.5,32.5 18.5,31.5 18.5,30.5C 18.5,29.8333 18.8333,29.5 19.5,29.5 Z"/></g>
<g><path style="opacity:1" fill="#f3e532" d="M 20.5,35.5 C 24.5,35.5 28.5,35.5 32.5,35.5C 30.7354,36.4614 28.7354,36.7947 26.5,36.5C 26.5,37.5 26.5,38.5 26.5,39.5C 26.1667,39.5 25.8333,39.5 25.5,39.5C 24.8333,39.5 24.1667,39.5 23.5,39.5C 23.2294,37.5695 22.2294,36.2362 20.5,35.5 Z"/></g>
<g><path style="opacity:1" fill="#f3d522" d="M 12.5,34.5 C 13.5,34.8333 14.1667,35.5 14.5,36.5C 13.6679,38.7248 14.6679,40.0581 17.5,40.5C 11.9233,45.0255 10.2566,43.6922 12.5,36.5C 11.1667,36.5 9.83333,36.5 8.5,36.5C 9.83333,35.8333 11.1667,35.1667 12.5,34.5 Z"/></g>
<g><path style="opacity:1" fill="#c8b42a" d="M 43.5,37.5 C 43.8333,37.5 44.1667,37.5 44.5,37.5C 45.1667,37.5 45.5,37.8333 45.5,38.5C 45.0679,39.7095 44.4013,40.7095 43.5,41.5C 38.8427,37.8673 37.5094,38.8673 39.5,44.5C 39.0269,45.9063 38.0269,46.573 36.5,46.5C 36.5,46.1667 36.5,45.8333 36.5,45.5C 37.1667,45.5 37.5,45.1667 37.5,44.5C 37.4828,42.4352 37.1495,40.4352 36.5,38.5C 39.0593,38.8016 41.3926,38.4682 43.5,37.5 Z"/></g>
<g><path style="opacity:1" fill="#c2a91b" d="M 7.5,36.5 C 7.83333,36.5 8.16667,36.5 8.5,36.5C 9.83333,36.5 11.1667,36.5 12.5,36.5C 10.2566,43.6922 11.9233,45.0255 17.5,40.5C 18.1667,40.5 18.5,40.8333 18.5,41.5C 16.6508,42.593 14.9842,43.9263 13.5,45.5C 10.1447,44.1448 7.8114,41.8114 6.5,38.5C 6.83333,37.8333 7.16667,37.1667 7.5,36.5 Z"/></g>
<g><path style="opacity:1" fill="#efd427" d="M 18.5,37.5 C 20.0495,38.4408 21.7162,39.1075 23.5,39.5C 24.1667,39.5 24.8333,39.5 25.5,39.5C 26.5,40.1667 27.5,40.8333 28.5,41.5C 27.1667,41.5 25.8333,41.5 24.5,41.5C 21.7594,41.2927 19.4261,40.2927 17.5,38.5C 18.1667,38.5 18.5,38.1667 18.5,37.5 Z"/></g>
<g><path style="opacity:1" fill="#f3df32" d="M 34.5,38.5 C 33.6935,39.7281 32.6935,40.7281 31.5,41.5C 31.6716,42.4916 31.3382,43.1583 30.5,43.5C 30.5,42.1667 29.8333,41.5 28.5,41.5C 27.5,40.8333 26.5,40.1667 25.5,39.5C 25.8333,39.5 26.1667,39.5 26.5,39.5C 29.2372,39.5987 31.9039,39.2653 34.5,38.5 Z"/></g>
<g><path style="opacity:1" fill="#faf14c" d="M 34.5,38.5 C 35.1667,38.5 35.8333,38.5 36.5,38.5C 37.1495,40.4352 37.4828,42.4352 37.5,44.5C 35.5,43.5 33.5,42.5 31.5,41.5C 32.6935,40.7281 33.6935,39.7281 34.5,38.5 Z"/></g>
<g><path style="opacity:1" fill="#efd224" d="M 43.5,41.5 C 42.5637,42.9744 41.2303,43.9744 39.5,44.5C 37.5094,38.8673 38.8427,37.8673 43.5,41.5 Z"/></g>
<g><path style="opacity:1" fill="#fadf2b" d="M 14.5,36.5 C 15.5,37.1667 16.5,37.8333 17.5,38.5C 19.4261,40.2927 21.7594,41.2927 24.5,41.5C 24.5,41.8333 24.5,42.1667 24.5,42.5C 23.4884,43.8717 22.4884,45.205 21.5,46.5C 20.0652,45.0867 19.0652,43.42 18.5,41.5C 18.5,40.8333 18.1667,40.5 17.5,40.5C 14.6679,40.0581 13.6679,38.7248 14.5,36.5 Z"/></g>
<g><path style="opacity:1" fill="#bda61f" d="M 31.5,41.5 C 33.5,42.5 35.5,43.5 37.5,44.5C 37.5,45.1667 37.1667,45.5 36.5,45.5C 32.941,42.4935 31.6077,43.4935 32.5,48.5C 31.2921,49.2341 29.9587,49.5674 28.5,49.5C 26.414,43.0168 24.0807,43.0168 21.5,49.5C 20.8333,49.5 20.5,49.1667 20.5,48.5C 20.8333,47.8333 21.1667,47.1667 21.5,46.5C 22.4884,45.205 23.4884,43.8717 24.5,42.5C 26.7402,43.5676 28.5736,45.2342 30,47.5C 30.49,46.2068 30.6567,44.8734 30.5,43.5C 31.3382,43.1583 31.6716,42.4916 31.5,41.5 Z"/></g>
<g><path style="opacity:0.88" fill="#d6ba1d" d="M 18.5,41.5 C 19.0652,43.42 20.0652,45.0867 21.5,46.5C 21.1667,47.1667 20.8333,47.8333 20.5,48.5C 17.7594,48.2927 15.4261,47.2927 13.5,45.5C 14.9842,43.9263 16.6508,42.593 18.5,41.5 Z"/></g>
<g><path style="opacity:1" fill="#fce938" d="M 24.5,42.5 C 24.5,42.1667 24.5,41.8333 24.5,41.5C 25.8333,41.5 27.1667,41.5 28.5,41.5C 29.8333,41.5 30.5,42.1667 30.5,43.5C 30.6567,44.8734 30.49,46.2068 30,47.5C 28.5736,45.2342 26.7402,43.5676 24.5,42.5 Z"/></g>
<g><path style="opacity:0.614" fill="#e6c81e" d="M 28.5,49.5 C 26.1667,49.5 23.8333,49.5 21.5,49.5C 24.0807,43.0168 26.414,43.0168 28.5,49.5 Z"/></g>
<g><path style="opacity:0.012" fill="#f0d323" d="M 36.5,45.5 C 36.5,45.8333 36.5,46.1667 36.5,46.5C 35.4863,47.6737 34.153,48.3404 32.5,48.5C 31.6077,43.4935 32.941,42.4935 36.5,45.5 Z"/></g>
</svg>
