<?xml version="1.0" encoding="UTF-8"?>
<!DOCTYPE svg PUBLIC "-//W3C//DTD SVG 1.1//EN" "http://www.w3.org/Graphics/SVG/1.1/DTD/svg11.dtd">
<svg xmlns="http://www.w3.org/2000/svg" version="1.1" width="53px" height="53px" style="shape-rendering:geometricPrecision; text-rendering:geometricPrecision; image-rendering:optimizeQuality; fill-rule:evenodd; clip-rule:evenodd" xmlns:xlink="http://www.w3.org/1999/xlink">
<g><path style="opacity:0.918" fill="#d0b51e" d="M 26.5,1.5 C 28.6208,1.32526 30.6208,1.65859 32.5,2.5C 31.8333,5.16667 30.1667,6.83333 27.5,7.5C 27.1667,5.5 26.8333,3.5 26.5,1.5 Z"/></g>
<g><path style="opacity:0.871" fill="#cfb61f" d="M 33.5,2.5 C 35.3684,3.26315 37.0351,4.26315 38.5,5.5C 37.2502,5.57735 36.4169,6.24402 36,7.5C 35.6667,6.5 35.3333,5.5 35,4.5C 34.5065,6.13414 34.3398,7.80081 34.5,9.5C 34.1667,9.5 33.8333,9.5 33.5,9.5C 33.5,7.16667 33.5,4.83333 33.5,2.5 Z"/></g>
<g><path style="opacity:1" fill="#d5ba20" d="M 25.5,1.5 C 25.1298,4.267 23.7964,6.267 21.5,7.5C 20.8333,6.16667 19.8333,5.16667 18.5,4.5C 18.1667,3.83333 17.8333,3.16667 17.5,2.5C 20.0961,1.73465 22.7628,1.40132 25.5,1.5 Z"/></g>
<g><path style="opacity:1" fill="#faec45" d="M 25.5,1.5 C 25.8333,1.5 26.1667,1.5 26.5,1.5C 26.8333,3.5 27.1667,5.5 27.5,7.5C 25.8333,8.16667 24.1667,8.83333 22.5,9.5C 22.1667,9.5 21.8333,9.5 21.5,9.5C 21.5,8.83333 21.5,8.16667 21.5,7.5C 23.7964,6.267 25.1298,4.267 25.5,1.5 Z"/></g>
<g><path style="opacity:1" fill="#ecd228" d="M 15.5,3.5 C 15.6567,4.87344 15.49,6.20677 15,7.5C 14.0228,6.22641 13.1894,6.22641 12.5,7.5C 12.1667,7.5 11.8333,7.5 11.5,7.5C 11.1667,7.5 10.8333,7.5 10.5,7.5C 10.1667,7.5 9.83333,7.5 9.5,7.5C 11.1475,5.6736 13.1475,4.34026 15.5,3.5 Z"/></g>
<g><path style="opacity:1" fill="#f8f152" d="M 18.5,4.5 C 19.8333,5.16667 20.8333,6.16667 21.5,7.5C 21.5,8.16667 21.5,8.83333 21.5,9.5C 19.9382,9.73286 18.6049,10.3995 17.5,11.5C 17.1667,11.5 16.8333,11.5 16.5,11.5C 14.8946,10.9941 14.5613,10.3274 15.5,9.5C 17.0276,8.19792 18.0276,6.53125 18.5,4.5 Z"/></g>
<g><path style="opacity:1" fill="#f6e033" d="M 32.5,2.5 C 32.8333,2.5 33.1667,2.5 33.5,2.5C 33.5,4.83333 33.5,7.16667 33.5,9.5C 32.8333,9.5 32.1667,9.5 31.5,9.5C 30.8333,9.5 30.1667,9.5 29.5,9.5C 27.1667,9.5 24.8333,9.5 22.5,9.5C 24.1667,8.83333 25.8333,8.16667 27.5,7.5C 30.1667,6.83333 31.8333,5.16667 32.5,2.5 Z"/></g>
<g><path style="opacity:0.886" fill="#c9af1d" d="M 38.5,5.5 C 39.1667,5.5 39.5,5.83333 39.5,6.5C 39.7845,8.41467 39.4511,10.0813 38.5,11.5C 38.6567,10.1266 38.49,8.79323 38,7.5C 36.8873,8.30501 35.7206,8.97168 34.5,9.5C 34.3398,7.80081 34.5065,6.13414 35,4.5C 35.3333,5.5 35.6667,6.5 36,7.5C 36.4169,6.24402 37.2502,5.57735 38.5,5.5 Z"/></g>
<g><path style="opacity:1" fill="#e1c624" d="M 17.5,2.5 C 17.8333,3.16667 18.1667,3.83333 18.5,4.5C 18.0276,6.53125 17.0276,8.19792 15.5,9.5C 14.7095,8.59872 13.7095,7.93205 12.5,7.5C 13.1894,6.22641 14.0228,6.22641 15,7.5C 15.49,6.20677 15.6567,4.87344 15.5,3.5C 16.1667,3.16667 16.8333,2.83333 17.5,2.5 Z"/></g>
<g><path style="opacity:0.737" fill="#e9ce25" d="M 9.5,7.5 C 9.83333,7.5 10.1667,7.5 10.5,7.5C 10.5,8.83333 10.5,10.1667 10.5,11.5C 8.83333,11.5 7.16667,11.5 5.5,11.5C 6.5,9.83333 7.83333,8.5 9.5,7.5 Z"/></g>
<g><path style="opacity:1" fill="#f7ef4e" d="M 11.5,7.5 C 11.8333,7.5 12.1667,7.5 12.5,7.5C 13.7095,7.93205 14.7095,8.59872 15.5,9.5C 14.5613,10.3274 14.8946,10.9941 16.5,11.5C 15.1667,13.1667 13.8333,14.8333 12.5,16.5C 12.1667,16.5 11.8333,16.5 11.5,16.5C 11.5,15.5 11.5,14.5 11.5,13.5C 12.5729,11.6531 12.5729,9.6531 11.5,7.5 Z"/></g>
<g><path style="opacity:1" fill="#cbb11c" d="M 29.5,9.5 C 30.1667,9.5 30.8333,9.5 31.5,9.5C 32.2905,10.4013 33.2905,11.0679 34.5,11.5C 34.1583,12.3382 33.4916,12.6716 32.5,12.5C 31.8333,12.5 31.1667,12.5 30.5,12.5C 28.7354,11.5386 26.7354,11.2053 24.5,11.5C 26.1667,10.8333 27.8333,10.1667 29.5,9.5 Z"/></g>
<g><path style="opacity:1" fill="#c1a81b" d="M 39.5,6.5 C 39.8333,6.5 40.1667,6.5 40.5,6.5C 41.5,8.5 42.5,10.5 43.5,12.5C 41.5853,12.7845 39.9187,12.4511 38.5,11.5C 39.4511,10.0813 39.7845,8.41467 39.5,6.5 Z"/></g>
<g><path style="opacity:1" fill="#dcc122" d="M 10.5,7.5 C 10.8333,7.5 11.1667,7.5 11.5,7.5C 12.5729,9.6531 12.5729,11.6531 11.5,13.5C 9.77414,13.1854 8.10747,13.0187 6.5,13C 7.38053,13.7083 8.0472,14.5416 8.5,15.5C 6.76484,16.057 5.09817,16.3903 3.5,16.5C 3.89254,14.7162 4.5592,13.0495 5.5,11.5C 7.16667,11.5 8.83333,11.5 10.5,11.5C 10.5,10.1667 10.5,8.83333 10.5,7.5 Z"/></g>
<g><path style="opacity:1" fill="#c4a91b" d="M 21.5,9.5 C 21.8333,9.5 22.1667,9.5 22.5,9.5C 24.8333,9.5 27.1667,9.5 29.5,9.5C 27.8333,10.1667 26.1667,10.8333 24.5,11.5C 23.209,11.2627 22.209,11.596 21.5,12.5C 20.391,12.5569 19.391,12.8902 18.5,13.5C 17.6618,13.1583 17.3284,12.4916 17.5,11.5C 18.6049,10.3995 19.9382,9.73286 21.5,9.5 Z"/></g>
<g><path style="opacity:1" fill="#edd627" d="M 21.5,12.5 C 22.209,11.596 23.209,11.2627 24.5,11.5C 26.7354,11.2053 28.7354,11.5386 30.5,12.5C 31.241,14.3542 32.241,16.0209 33.5,17.5C 32.609,16.8902 31.609,16.5569 30.5,16.5C 29.8333,16.5 29.5,16.8333 29.5,17.5C 28.8333,16.1667 28.1667,14.8333 27.5,13.5C 25.7354,12.5386 23.7354,12.2053 21.5,12.5 Z"/></g>
<g><path style="opacity:1" fill="#efd523" d="M 30.5,12.5 C 31.1667,12.5 31.8333,12.5 32.5,12.5C 35.5431,14.5433 37.8764,17.2099 39.5,20.5C 37.2475,20.0844 35.7475,18.751 35,16.5C 34.6174,17.056 34.1174,17.3893 33.5,17.5C 32.241,16.0209 31.241,14.3542 30.5,12.5 Z"/></g>
<g><path style="opacity:0.654" fill="#cbb11c" d="M 40.5,6.5 C 44.7871,9.79721 47.4538,14.1305 48.5,19.5C 48.1667,19.5 47.8333,19.5 47.5,19.5C 45.7354,18.5386 43.7354,18.2053 41.5,18.5C 42.2423,16.5742 43.2423,14.7409 44.5,13C 44.2716,12.6012 43.9382,12.4346 43.5,12.5C 42.5,10.5 41.5,8.5 40.5,6.5 Z"/></g>
<g><path style="opacity:1" fill="#fae93e" d="M 11.5,13.5 C 11.5,14.5 11.5,15.5 11.5,16.5C 11.1667,17.8333 10.8333,19.1667 10.5,20.5C 9.83333,21.1667 9.16667,21.8333 8.5,22.5C 6.66754,21.7515 5.00087,20.7515 3.5,19.5C 5.3691,18.8354 7.3691,18.1687 9.5,17.5C 9.13727,16.8165 8.80393,16.1499 8.5,15.5C 8.0472,14.5416 7.38053,13.7083 6.5,13C 8.10747,13.0187 9.77414,13.1854 11.5,13.5 Z"/></g>
<g><path style="opacity:1" fill="#c7ad1d" d="M 16.5,11.5 C 16.8333,11.5 17.1667,11.5 17.5,11.5C 17.3284,12.4916 17.6618,13.1583 18.5,13.5C 18.5,13.8333 18.5,14.1667 18.5,14.5C 16.8333,15.8333 15.1667,17.1667 13.5,18.5C 13.6716,17.5084 13.3382,16.8417 12.5,16.5C 13.8333,14.8333 15.1667,13.1667 16.5,11.5 Z"/></g>
<g><path style="opacity:1" fill="#f4e632" d="M 21.5,12.5 C 23.7354,12.2053 25.7354,12.5386 27.5,13.5C 24.9664,13.2591 23.2998,14.2591 22.5,16.5C 22.1667,16.5 21.8333,16.5 21.5,16.5C 20.448,16.6495 19.448,16.4828 18.5,16C 19.7383,15.31 19.7383,14.81 18.5,14.5C 18.5,14.1667 18.5,13.8333 18.5,13.5C 19.391,12.8902 20.391,12.5569 21.5,12.5 Z"/></g>
<g><path style="opacity:1" fill="#f8dc27" d="M 38.5,11.5 C 39.9187,12.4511 41.5853,12.7845 43.5,12.5C 43.9382,12.4346 44.2716,12.6012 44.5,13C 43.2423,14.7409 42.2423,16.5742 41.5,18.5C 39.5272,15.8605 37.1939,13.5272 34.5,11.5C 33.2905,11.0679 32.2905,10.4013 31.5,9.5C 32.1667,9.5 32.8333,9.5 33.5,9.5C 33.8333,9.5 34.1667,9.5 34.5,9.5C 35.7206,8.97168 36.8873,8.30501 38,7.5C 38.49,8.79323 38.6567,10.1266 38.5,11.5 Z"/></g>
<g><path style="opacity:0.98" fill="#d4b91f" d="M 8.5,15.5 C 8.80393,16.1499 9.13727,16.8165 9.5,17.5C 7.3691,18.1687 5.3691,18.8354 3.5,19.5C 3.16667,19.5 2.83333,19.5 2.5,19.5C 2.26269,18.209 2.59603,17.209 3.5,16.5C 5.09817,16.3903 6.76484,16.057 8.5,15.5 Z"/></g>
<g><path style="opacity:1" fill="#f7ef3a" d="M 18.5,14.5 C 19.7383,14.81 19.7383,15.31 18.5,16C 19.448,16.4828 20.448,16.6495 21.5,16.5C 20.5448,18.7457 19.8782,21.079 19.5,23.5C 20.5,23.5 21.5,23.5 22.5,23.5C 22.5,25.1667 22.5,26.8333 22.5,28.5C 19.308,27.4859 16.808,25.4859 15,22.5C 14.6174,23.056 14.1174,23.3893 13.5,23.5C 13.5,22.5 13.5,21.5 13.5,20.5C 13.5,19.8333 13.5,19.1667 13.5,18.5C 15.1667,17.1667 16.8333,15.8333 18.5,14.5 Z"/></g>
<g><path style="opacity:1" fill="#f2dd2a" d="M 30.5,16.5 C 31.609,16.5569 32.609,16.8902 33.5,17.5C 34.6005,18.6049 35.2671,19.9382 35.5,21.5C 35.5,22.1667 35.5,22.8333 35.5,23.5C 32.6356,21.9767 30.969,19.6433 30.5,16.5 Z"/></g>
<g><path style="opacity:1" fill="#f0d726" d="M 39.5,20.5 C 40.404,21.209 40.7373,22.209 40.5,23.5C 40.5,23.8333 40.5,24.1667 40.5,24.5C 39.1514,23.0475 37.4847,22.0475 35.5,21.5C 35.2671,19.9382 34.6005,18.6049 33.5,17.5C 34.1174,17.3893 34.6174,17.056 35,16.5C 35.7475,18.751 37.2475,20.0844 39.5,20.5 Z"/></g>
<g><path style="opacity:1" fill="#c6ac1b" d="M 11.5,16.5 C 11.8333,16.5 12.1667,16.5 12.5,16.5C 13.3382,16.8417 13.6716,17.5084 13.5,18.5C 13.5,19.1667 13.5,19.8333 13.5,20.5C 12.6618,20.8417 12.3284,21.5084 12.5,22.5C 11.8333,24.5 11.1667,26.5 10.5,28.5C 10.5,25.8333 10.5,23.1667 10.5,20.5C 10.8333,19.1667 11.1667,17.8333 11.5,16.5 Z"/></g>
<g><path style="opacity:1" fill="#fcf81c" d="M 27.5,20.5 C 25.9582,19.6993 24.2915,19.366 22.5,19.5C 22.5,18.5 22.5,17.5 22.5,16.5C 24.0418,15.6993 25.7085,15.366 27.5,15.5C 27.5,17.1667 27.5,18.8333 27.5,20.5 Z"/></g>
<g><path style="opacity:1" fill="#d2bf26" d="M 27.5,13.5 C 28.1667,14.8333 28.8333,16.1667 29.5,17.5C 29.5,18.8333 29.5,20.1667 29.5,21.5C 28.5489,22.9187 28.2155,24.5853 28.5,26.5C 27.596,25.791 27.2627,24.791 27.5,23.5C 27.5,22.5 27.5,21.5 27.5,20.5C 27.5,18.8333 27.5,17.1667 27.5,15.5C 25.7085,15.366 24.0418,15.6993 22.5,16.5C 23.2998,14.2591 24.9664,13.2591 27.5,13.5 Z"/></g>
<g><path style="opacity:1" fill="#ddc01e" d="M 34.5,11.5 C 37.1939,13.5272 39.5272,15.8605 41.5,18.5C 41.5,19.1667 41.5,19.8333 41.5,20.5C 41.7373,21.791 41.404,22.791 40.5,23.5C 40.7373,22.209 40.404,21.209 39.5,20.5C 37.8764,17.2099 35.5431,14.5433 32.5,12.5C 33.4916,12.6716 34.1583,12.3382 34.5,11.5 Z"/></g>
<g><path style="opacity:1" fill="#fbdd24" d="M 41.5,18.5 C 43.7354,18.2053 45.7354,18.5386 47.5,19.5C 46.1667,20.5 44.8333,21.5 43.5,22.5C 43.1667,22.5 42.8333,22.5 42.5,22.5C 42.6716,21.5084 42.3382,20.8417 41.5,20.5C 41.5,19.8333 41.5,19.1667 41.5,18.5 Z"/></g>
<g><path style="opacity:1" fill="#fdfb3e" d="M 22.5,19.5 C 24.2915,19.366 25.9582,19.6993 27.5,20.5C 27.5,21.5 27.5,22.5 27.5,23.5C 26.5,23.5 25.5,23.5 24.5,23.5C 23.7701,22.2876 22.7701,21.2876 21.5,20.5C 21.6236,19.8933 21.9569,19.56 22.5,19.5 Z"/></g>
<g><path style="opacity:1" fill="#f4e330" d="M 30.5,16.5 C 30.969,19.6433 32.6356,21.9767 35.5,23.5C 36.3382,23.8417 36.6716,24.5084 36.5,25.5C 35.5,25.5 34.5,25.5 33.5,25.5C 32.5416,25.0472 31.7083,24.3805 31,23.5C 30.5357,24.0944 30.369,24.7611 30.5,25.5C 29.5655,24.4324 29.2322,23.099 29.5,21.5C 29.5,20.1667 29.5,18.8333 29.5,17.5C 29.5,16.8333 29.8333,16.5 30.5,16.5 Z"/></g>
<g><path style="opacity:1" fill="#f2dd2a" d="M 35.5,21.5 C 37.4847,22.0475 39.1514,23.0475 40.5,24.5C 40.7947,26.7354 40.4614,28.7354 39.5,30.5C 39.5,30.1667 39.5,29.8333 39.5,29.5C 39.2624,27.5956 38.2624,26.2623 36.5,25.5C 36.6716,24.5084 36.3382,23.8417 35.5,23.5C 35.5,22.8333 35.5,22.1667 35.5,21.5 Z"/></g>
<g><path style="opacity:1" fill="#f6e935" d="M 22.5,28.5 C 21.791,29.404 20.791,29.7373 19.5,29.5C 18.7784,29.9175 18.2784,30.5842 18,31.5C 17.7679,30.2625 17.2679,29.2625 16.5,28.5C 14.7215,27.3303 13.7215,25.6636 13.5,23.5C 14.1174,23.3893 14.6174,23.056 15,22.5C 16.808,25.4859 19.308,27.4859 22.5,28.5 Z"/></g>
<g><path style="opacity:0.986" fill="#c1a81c" d="M 47.5,19.5 C 47.8333,19.5 48.1667,19.5 48.5,19.5C 49.4345,20.5676 49.7678,21.901 49.5,23.5C 48.209,23.2627 47.209,23.596 46.5,24.5C 44.9731,24.573 43.9731,23.9063 43.5,22.5C 44.8333,21.5 46.1667,20.5 47.5,19.5 Z"/></g>
<g><path style="opacity:0.469" fill="#ceb31d" d="M 2.5,19.5 C 2.83333,19.5 3.16667,19.5 3.5,19.5C 5.00087,20.7515 6.66754,21.7515 8.5,22.5C 8.5,22.8333 8.5,23.1667 8.5,23.5C 6.15231,23.5923 4.48565,24.5923 3.5,26.5C 2.83333,26.5 2.16667,26.5 1.5,26.5C 1.19845,23.9407 1.53178,21.6074 2.5,19.5 Z"/></g>
<g><path style="opacity:1" fill="#f5db2b" d="M 8.5,23.5 C 8.5,24.8333 8.5,26.1667 8.5,27.5C 6.7839,27.3713 5.11723,27.038 3.5,26.5C 4.48565,24.5923 6.15231,23.5923 8.5,23.5 Z"/></g>
<g><path style="opacity:1" fill="#d6bb1e" d="M 12.5,22.5 C 12.1936,25.3854 12.5269,28.0521 13.5,30.5C 14.4333,33.3702 16.1,35.7036 18.5,37.5C 18.5,37.8333 18.5,38.1667 18.5,38.5C 15.5468,37.2128 13.2135,35.2128 11.5,32.5C 11.1667,31.1667 10.8333,29.8333 10.5,28.5C 11.1667,26.5 11.8333,24.5 12.5,22.5 Z"/></g>
<g><path style="opacity:1" fill="#f6eb36" d="M 33.5,25.5 C 34.9641,27.6297 36.9641,28.963 39.5,29.5C 39.5,29.8333 39.5,30.1667 39.5,30.5C 39.1667,31.8333 38.8333,33.1667 38.5,34.5C 37.078,35.925 35.4113,36.925 33.5,37.5C 33.5,36.1667 32.8333,35.5 31.5,35.5C 33.0746,33.8863 33.7413,31.8863 33.5,29.5C 32.791,28.596 31.791,28.2627 30.5,28.5C 30.5,27.5 30.5,26.5 30.5,25.5C 30.369,24.7611 30.5357,24.0944 31,23.5C 31.7083,24.3805 32.5416,25.0472 33.5,25.5 Z"/></g>
<g><path style="opacity:0.429" fill="#c2a91c" d="M 46.5,24.5 C 47.209,23.596 48.209,23.2627 49.5,23.5C 49.7214,26.2788 49.388,28.9455 48.5,31.5C 47.8333,31.5 47.1667,31.5 46.5,31.5C 45.5707,30.6851 44.5707,29.8518 43.5,29C 44.6853,27.647 46.0186,26.4803 47.5,25.5C 47.3764,24.8933 47.0431,24.56 46.5,24.5 Z"/></g>
<g><path style="opacity:1" fill="#f4db2c" d="M 10.5,20.5 C 10.5,23.1667 10.5,25.8333 10.5,28.5C 10.8333,29.8333 11.1667,31.1667 11.5,32.5C 11.1667,32.5 10.8333,32.5 10.5,32.5C 8.16667,32.5 5.83333,32.5 3.5,32.5C 5.36032,31.0613 7.02698,29.3947 8.5,27.5C 8.5,26.1667 8.5,24.8333 8.5,23.5C 8.5,23.1667 8.5,22.8333 8.5,22.5C 9.16667,21.8333 9.83333,21.1667 10.5,20.5 Z"/></g>
<g><path style="opacity:1" fill="#f4e430" d="M 33.5,25.5 C 34.5,25.5 35.5,25.5 36.5,25.5C 38.2624,26.2623 39.2624,27.5956 39.5,29.5C 36.9641,28.963 34.9641,27.6297 33.5,25.5 Z"/></g>
<g><path style="opacity:1" fill="#ecd123" d="M 41.5,20.5 C 42.3382,20.8417 42.6716,21.5084 42.5,22.5C 42.4601,25.9876 41.7934,29.3209 40.5,32.5C 40.1667,33.1667 39.8333,33.8333 39.5,34.5C 39.1667,34.5 38.8333,34.5 38.5,34.5C 38.8333,33.1667 39.1667,31.8333 39.5,30.5C 40.4614,28.7354 40.7947,26.7354 40.5,24.5C 40.5,24.1667 40.5,23.8333 40.5,23.5C 41.404,22.791 41.7373,21.791 41.5,20.5 Z"/></g>
<g><path style="opacity:1" fill="#d2c22b" d="M 21.5,16.5 C 21.8333,16.5 22.1667,16.5 22.5,16.5C 22.5,17.5 22.5,18.5 22.5,19.5C 21.9569,19.56 21.6236,19.8933 21.5,20.5C 22.7701,21.2876 23.7701,22.2876 24.5,23.5C 24.5,25.1667 24.5,26.8333 24.5,28.5C 24.5,28.8333 24.5,29.1667 24.5,29.5C 23.8333,29.1667 23.1667,28.8333 22.5,28.5C 22.5,26.8333 22.5,25.1667 22.5,23.5C 21.5,23.5 20.5,23.5 19.5,23.5C 19.8782,21.079 20.5448,18.7457 21.5,16.5 Z"/></g>
<g><path style="opacity:1" fill="#c7ad1c" d="M 1.5,26.5 C 2.16667,26.5 2.83333,26.5 3.5,26.5C 5.11723,27.038 6.7839,27.3713 8.5,27.5C 7.02698,29.3947 5.36032,31.0613 3.5,32.5C 3.5,33.1667 3.5,33.8333 3.5,34.5C 1.96046,32.1617 1.29379,29.4951 1.5,26.5 Z"/></g>
<g><path style="opacity:1" fill="#f2e12f" d="M 13.5,20.5 C 13.5,21.5 13.5,22.5 13.5,23.5C 13.7215,25.6636 14.7215,27.3303 16.5,28.5C 16.1788,30.0481 15.1788,30.7148 13.5,30.5C 12.5269,28.0521 12.1936,25.3854 12.5,22.5C 12.3284,21.5084 12.6618,20.8417 13.5,20.5 Z"/></g>
<g><path style="opacity:1" fill="#faf94d" d="M 24.5,23.5 C 25.5,23.5 26.5,23.5 27.5,23.5C 27.2627,24.791 27.596,25.791 28.5,26.5C 28.5,27.5 28.5,28.5 28.5,29.5C 27.2921,28.7659 25.9587,28.4326 24.5,28.5C 24.5,26.8333 24.5,25.1667 24.5,23.5 Z"/></g>
<g><path style="opacity:1" fill="#bdad22" d="M 29.5,21.5 C 29.2322,23.099 29.5655,24.4324 30.5,25.5C 30.5,26.5 30.5,27.5 30.5,28.5C 31.791,28.2627 32.791,28.596 33.5,29.5C 32.8333,30.8333 32.1667,32.1667 31.5,33.5C 31.5,33.1667 31.5,32.8333 31.5,32.5C 31.5,31.5 31.5,30.5 31.5,29.5C 30.5,29.5 29.5,29.5 28.5,29.5C 28.5,28.5 28.5,27.5 28.5,26.5C 28.2155,24.5853 28.5489,22.9187 29.5,21.5 Z"/></g>
<g><path style="opacity:1" fill="#d2c325" d="M 22.5,28.5 C 23.1667,28.8333 23.8333,29.1667 24.5,29.5C 22.754,30.0013 21.754,30.6679 21.5,31.5C 21.5,32.5 21.5,33.5 21.5,34.5C 21.5,35.1667 21.5,35.8333 21.5,36.5C 19.8372,34.5615 19.1706,32.2282 19.5,29.5C 20.791,29.7373 21.791,29.404 22.5,28.5 Z"/></g>
<g><path style="opacity:1" fill="#f2de2d" d="M 16.5,28.5 C 17.2679,29.2625 17.7679,30.2625 18,31.5C 18.2784,30.5842 18.7784,29.9175 19.5,29.5C 19.1706,32.2282 19.8372,34.5615 21.5,36.5C 22.1667,36.5 22.8333,36.5 23.5,36.5C 22.8333,37.1667 22.1667,37.8333 21.5,38.5C 20.391,38.4431 19.391,38.1098 18.5,37.5C 16.1,35.7036 14.4333,33.3702 13.5,30.5C 15.1788,30.7148 16.1788,30.0481 16.5,28.5 Z"/></g>
<g><path style="opacity:1" fill="#fdfb2c" d="M 24.5,28.5 C 25.9587,28.4326 27.2921,28.7659 28.5,29.5C 29.5,29.5 30.5,29.5 31.5,29.5C 31.5,30.5 31.5,31.5 31.5,32.5C 28.2356,31.6758 24.9023,31.3424 21.5,31.5C 21.754,30.6679 22.754,30.0013 24.5,29.5C 24.5,29.1667 24.5,28.8333 24.5,28.5 Z"/></g>
<g><path style="opacity:1" fill="#f7e02f" d="M 42.5,22.5 C 42.8333,22.5 43.1667,22.5 43.5,22.5C 43.9731,23.9063 44.9731,24.573 46.5,24.5C 47.0431,24.56 47.3764,24.8933 47.5,25.5C 46.0186,26.4803 44.6853,27.647 43.5,29C 44.5707,29.8518 45.5707,30.6851 46.5,31.5C 45.1667,32.1667 43.8333,32.8333 42.5,33.5C 41.8333,33.1667 41.1667,32.8333 40.5,32.5C 41.7934,29.3209 42.4601,25.9876 42.5,22.5 Z"/></g>
<g><path style="opacity:0.987" fill="#c3aa1c" d="M 3.5,32.5 C 5.83333,32.5 8.16667,32.5 10.5,32.5C 9.52435,33.8149 8.52435,35.1482 7.5,36.5C 8.68884,37.4287 10.0222,37.762 11.5,37.5C 12.7199,39.0496 12.7199,40.7163 11.5,42.5C 10.596,41.791 10.2627,40.791 10.5,39.5C 9.16667,39.5 7.83333,39.5 6.5,39.5C 4.74973,38.3406 3.74973,36.674 3.5,34.5C 3.5,33.8333 3.5,33.1667 3.5,32.5 Z"/></g>
<g><path style="opacity:1" fill="#fbf815" d="M 21.5,31.5 C 24.9023,31.3424 28.2356,31.6758 31.5,32.5C 31.5,32.8333 31.5,33.1667 31.5,33.5C 28.1667,33.8333 24.8333,34.1667 21.5,34.5C 21.5,33.5 21.5,32.5 21.5,31.5 Z"/></g>
<g><path style="opacity:1" fill="#a6941c" d="M 33.5,29.5 C 33.7413,31.8863 33.0746,33.8863 31.5,35.5C 29.3792,35.3253 27.3792,35.6586 25.5,36.5C 24.8333,36.5 24.1667,36.5 23.5,36.5C 22.8333,36.5 22.1667,36.5 21.5,36.5C 21.5,35.8333 21.5,35.1667 21.5,34.5C 24.8333,34.1667 28.1667,33.8333 31.5,33.5C 32.1667,32.1667 32.8333,30.8333 33.5,29.5 Z"/></g>
<g><path style="opacity:1" fill="#cab11f" d="M 46.5,31.5 C 47.1667,31.5 47.8333,31.5 48.5,31.5C 48.3964,33.7028 47.7298,35.7028 46.5,37.5C 45.8333,37.1667 45.1667,36.8333 44.5,36.5C 43.8333,35.5 43.1667,34.5 42.5,33.5C 43.8333,32.8333 45.1667,32.1667 46.5,31.5 Z"/></g>
<g><path style="opacity:1" fill="#f8e73d" d="M 40.5,32.5 C 41.1667,32.8333 41.8333,33.1667 42.5,33.5C 43.1667,34.5 43.8333,35.5 44.5,36.5C 42.8333,37.1667 41.1667,37.8333 39.5,38.5C 38.6618,38.1583 38.3284,37.4916 38.5,36.5C 38.8333,35.8333 39.1667,35.1667 39.5,34.5C 39.8333,33.8333 40.1667,33.1667 40.5,32.5 Z"/></g>
<g><path style="opacity:1" fill="#fadf28" d="M 10.5,32.5 C 10.8333,32.5 11.1667,32.5 11.5,32.5C 11.5,34.1667 11.5,35.8333 11.5,37.5C 10.0222,37.762 8.68884,37.4287 7.5,36.5C 8.52435,35.1482 9.52435,33.8149 10.5,32.5 Z"/></g>
<g><path style="opacity:1" fill="#f8ef39" d="M 31.5,35.5 C 32.8333,35.5 33.5,36.1667 33.5,37.5C 33.1583,38.3382 32.4916,38.6716 31.5,38.5C 29.3736,37.9518 27.3736,37.2852 25.5,36.5C 27.3792,35.6586 29.3792,35.3253 31.5,35.5 Z"/></g>
<g><path style="opacity:1" fill="#fcf550" d="M 38.5,36.5 C 38.3284,37.4916 38.6618,38.1583 39.5,38.5C 40.0283,39.8474 40.195,41.1807 40,42.5C 39.1841,41.1772 38.0174,40.5106 36.5,40.5C 36.1583,39.6618 35.4916,39.3284 34.5,39.5C 35.795,38.5116 37.1283,37.5116 38.5,36.5 Z"/></g>
<g><path style="opacity:1" fill="#f8df2d" d="M 11.5,32.5 C 13.2135,35.2128 15.5468,37.2128 18.5,38.5C 18.5,38.8333 18.5,39.1667 18.5,39.5C 17.5084,39.3284 16.8417,39.6618 16.5,40.5C 15.5637,41.9744 14.2303,42.9744 12.5,43.5C 11.8333,43.5 11.5,43.1667 11.5,42.5C 12.7199,40.7163 12.7199,39.0496 11.5,37.5C 11.5,35.8333 11.5,34.1667 11.5,32.5 Z"/></g>
<g><path style="opacity:1" fill="#f4e530" d="M 23.5,36.5 C 24.1667,36.5 24.8333,36.5 25.5,36.5C 27.3736,37.2852 29.3736,37.9518 31.5,38.5C 28.1667,39.8333 24.8333,39.8333 21.5,38.5C 22.1667,37.8333 22.8333,37.1667 23.5,36.5 Z"/></g>
<g><path style="opacity:0.999" fill="#cbb01c" d="M 6.5,39.5 C 7.83333,39.5 9.16667,39.5 10.5,39.5C 10.2627,40.791 10.596,41.791 11.5,42.5C 11.5,43.1667 11.8333,43.5 12.5,43.5C 12.5,44.1667 12.1667,44.5 11.5,44.5C 8.83333,43.8333 7.16667,42.1667 6.5,39.5 Z"/></g>
<g><path style="opacity:1" fill="#f0d82b" d="M 38.5,34.5 C 38.8333,34.5 39.1667,34.5 39.5,34.5C 39.1667,35.1667 38.8333,35.8333 38.5,36.5C 37.1283,37.5116 35.795,38.5116 34.5,39.5C 33.1667,39.8333 31.8333,40.1667 30.5,40.5C 28.2362,41.2186 25.9029,41.552 23.5,41.5C 21.9724,40.6908 20.3057,40.0241 18.5,39.5C 18.5,39.1667 18.5,38.8333 18.5,38.5C 18.5,38.1667 18.5,37.8333 18.5,37.5C 19.391,38.1098 20.391,38.4431 21.5,38.5C 24.8333,39.8333 28.1667,39.8333 31.5,38.5C 32.4916,38.6716 33.1583,38.3382 33.5,37.5C 35.4113,36.925 37.078,35.925 38.5,34.5 Z"/></g>
<g><path style="opacity:1" fill="#f8e73c" d="M 16.5,40.5 C 16.8417,39.6618 17.5084,39.3284 18.5,39.5C 20.3057,40.0241 21.9724,40.6908 23.5,41.5C 23.5,41.8333 23.5,42.1667 23.5,42.5C 21.8712,43.6253 20.3712,44.9586 19,46.5C 18.9977,43.9488 18.1644,41.9488 16.5,40.5 Z"/></g>
<g><path style="opacity:1" fill="#f5f156" d="M 34.5,39.5 C 35.4916,39.3284 36.1583,39.6618 36.5,40.5C 35.5028,40.4701 34.8361,40.9701 34.5,42C 35.2335,43.7659 35.5668,45.5992 35.5,47.5C 35.1667,47.5 34.8333,47.5 34.5,47.5C 34.1667,46.5 33.5,45.8333 32.5,45.5C 31.8333,44.1667 30.8333,43.1667 29.5,42.5C 29.8333,41.8333 30.1667,41.1667 30.5,40.5C 31.8333,40.1667 33.1667,39.8333 34.5,39.5 Z"/></g>
<g><path style="opacity:1" fill="#d3ba24" d="M 44.5,36.5 C 45.1667,36.8333 45.8333,37.1667 46.5,37.5C 43.4575,41.5436 39.7908,44.8769 35.5,47.5C 35.5668,45.5992 35.2335,43.7659 34.5,42C 34.8361,40.9701 35.5028,40.4701 36.5,40.5C 38.0174,40.5106 39.1841,41.1772 40,42.5C 40.195,41.1807 40.0283,39.8474 39.5,38.5C 41.1667,37.8333 42.8333,37.1667 44.5,36.5 Z"/></g>
<g><path style="opacity:1" fill="#f7ee4b" d="M 30.5,40.5 C 30.1667,41.1667 29.8333,41.8333 29.5,42.5C 28.5902,44.0188 27.7568,45.6854 27,47.5C 26.6174,46.944 26.1174,46.6107 25.5,46.5C 25.2671,44.9382 24.6005,43.6049 23.5,42.5C 23.5,42.1667 23.5,41.8333 23.5,41.5C 25.9029,41.552 28.2362,41.2186 30.5,40.5 Z"/></g>
<g><path style="opacity:0.986" fill="#c0a91f" d="M 16.5,40.5 C 18.1644,41.9488 18.9977,43.9488 19,46.5C 20.3712,44.9586 21.8712,43.6253 23.5,42.5C 24.6005,43.6049 25.2671,44.9382 25.5,46.5C 22.9645,44.2262 20.9645,44.8929 19.5,48.5C 16.2459,48.2064 13.5792,46.873 11.5,44.5C 12.1667,44.5 12.5,44.1667 12.5,43.5C 14.2303,42.9744 15.5637,41.9744 16.5,40.5 Z"/></g>
<g><path style="opacity:0.922" fill="#cdb31d" d="M 25.5,46.5 C 25.5569,47.609 25.8902,48.609 26.5,49.5C 24.0504,49.702 21.717,49.3686 19.5,48.5C 20.9645,44.8929 22.9645,44.2262 25.5,46.5 Z"/></g>
<g><path style="opacity:0.741" fill="#dbc225" d="M 32.5,45.5 C 33.5,45.8333 34.1667,46.5 34.5,47.5C 32.6976,48.4582 30.6976,49.1249 28.5,49.5C 29.1481,47.9142 29.6481,46.2475 30,44.5C 30.6708,45.2524 31.5041,45.5858 32.5,45.5 Z"/></g>
<g><path style="opacity:0.353" fill="#b8a321" d="M 29.5,42.5 C 30.8333,43.1667 31.8333,44.1667 32.5,45.5C 31.5041,45.5858 30.6708,45.2524 30,44.5C 29.6481,46.2475 29.1481,47.9142 28.5,49.5C 27.8333,49.5 27.1667,49.5 26.5,49.5C 25.8902,48.609 25.5569,47.609 25.5,46.5C 26.1174,46.6107 26.6174,46.944 27,47.5C 27.7568,45.6854 28.5902,44.0188 29.5,42.5 Z"/></g>
</svg>
