<?xml version="1.0" encoding="UTF-8"?>
<!DOCTYPE svg PUBLIC "-//W3C//DTD SVG 1.1//EN" "http://www.w3.org/Graphics/SVG/1.1/DTD/svg11.dtd">
<svg xmlns="http://www.w3.org/2000/svg" version="1.1" width="53px" height="53px" style="shape-rendering:geometricPrecision; text-rendering:geometricPrecision; image-rendering:optimizeQuality; fill-rule:evenodd; clip-rule:evenodd" xmlns:xlink="http://www.w3.org/1999/xlink">
<g><path style="opacity:1" fill="#e5c924" d="M 24.5,1.5 C 24.8896,6.42239 23.7229,6.75572 21,2.5C 20.6012,2.72845 20.4346,3.06178 20.5,3.5C 19.6618,3.84171 19.3284,4.50838 19.5,5.5C 19.1667,5.5 18.8333,5.5 18.5,5.5C 18.5,4.83333 18.5,4.16667 18.5,3.5C 18.5,3.16667 18.5,2.83333 18.5,2.5C 20.3792,1.65859 22.3792,1.32526 24.5,1.5 Z"/></g>
<g><path style="opacity:0.204" fill="#d8bd1e" d="M 28.5,1.5 C 33.0868,2.02131 37.0868,3.68798 40.5,6.5C 38.5,5.83333 36.5,5.16667 34.5,4.5C 33.8333,4.83333 33.1667,5.16667 32.5,5.5C 32.0954,4.45018 31.4288,4.45018 30.5,5.5C 29.2949,4.42312 28.6282,3.08979 28.5,1.5 Z"/></g>
<g><path style="opacity:1" fill="#eccf22" d="M 18.5,2.5 C 18.5,2.83333 18.5,3.16667 18.5,3.5C 17.71,4.60853 17.21,5.94186 17,7.5C 16.3292,6.74756 15.4959,6.41423 14.5,6.5C 13.6618,6.15829 13.3284,5.49162 13.5,4.5C 15.0495,3.5592 16.7162,2.89254 18.5,2.5 Z"/></g>
<g><path style="opacity:1" fill="#d7be24" d="M 24.5,1.5 C 25.5,1.5 26.5,1.5 27.5,1.5C 27.5,2.16667 27.5,2.83333 27.5,3.5C 26.3332,5.04143 24.9999,6.37476 23.5,7.5C 22.5,6.16667 21.5,4.83333 20.5,3.5C 20.4346,3.06178 20.6012,2.72845 21,2.5C 23.7229,6.75572 24.8896,6.42239 24.5,1.5 Z"/></g>
<g><path style="opacity:1" fill="#c7ad1c" d="M 34.5,4.5 C 36.5,5.16667 38.5,5.83333 40.5,6.5C 39.089,8.53905 37.089,9.53905 34.5,9.5C 34.5,7.83333 34.5,6.16667 34.5,4.5 Z"/></g>
<g><path style="opacity:1" fill="#fbeb40" d="M 27.5,3.5 C 28.2632,5.36841 29.2632,7.03508 30.5,8.5C 31.5573,9.20595 31.2239,9.53928 29.5,9.5C 27.8333,9.5 26.1667,9.5 24.5,9.5C 24.1667,8.83333 23.8333,8.16667 23.5,7.5C 24.9999,6.37476 26.3332,5.04143 27.5,3.5 Z"/></g>
<g><path style="opacity:1" fill="#cdb31f" d="M 27.5,1.5 C 27.8333,1.5 28.1667,1.5 28.5,1.5C 28.6282,3.08979 29.2949,4.42312 30.5,5.5C 31.4288,4.45018 32.0954,4.45018 32.5,5.5C 31.8333,6.5 31.1667,7.5 30.5,8.5C 29.2632,7.03508 28.2632,5.36841 27.5,3.5C 27.5,2.83333 27.5,2.16667 27.5,1.5 Z"/></g>
<g><path style="opacity:1" fill="#d8bb1e" d="M 18.5,3.5 C 18.5,4.16667 18.5,4.83333 18.5,5.5C 18.7019,9.84534 17.3686,10.512 14.5,7.5C 14.5,7.16667 14.5,6.83333 14.5,6.5C 15.4959,6.41423 16.3292,6.74756 17,7.5C 17.21,5.94186 17.71,4.60853 18.5,3.5 Z"/></g>
<g><path style="opacity:1" fill="#fae332" d="M 34.5,4.5 C 34.5,6.16667 34.5,7.83333 34.5,9.5C 34.5,9.83333 34.5,10.1667 34.5,10.5C 33.8333,10.5 33.1667,10.5 32.5,10.5C 31.209,10.7373 30.209,10.404 29.5,9.5C 31.2239,9.53928 31.5573,9.20595 30.5,8.5C 31.1667,7.5 31.8333,6.5 32.5,5.5C 33.1667,5.16667 33.8333,4.83333 34.5,4.5 Z"/></g>
<g><path style="opacity:1" fill="#eed021" d="M 11.5,6.5 C 11.6287,8.2161 11.962,9.88277 12.5,11.5C 10.8828,10.962 9.2161,10.6287 7.5,10.5C 8.5,8.83333 9.83333,7.5 11.5,6.5 Z"/></g>
<g><path style="opacity:1" fill="#fdf551" d="M 20.5,3.5 C 21.5,4.83333 22.5,6.16667 23.5,7.5C 23.8333,8.16667 24.1667,8.83333 24.5,9.5C 23.209,9.26269 22.209,9.59603 21.5,10.5C 20.8333,10.5 20.1667,10.5 19.5,10.5C 19.5,8.83333 19.5,7.16667 19.5,5.5C 19.3284,4.50838 19.6618,3.84171 20.5,3.5 Z"/></g>
<g><path style="opacity:1" fill="#dac42a" d="M 13.5,4.5 C 13.3284,5.49162 13.6618,6.15829 14.5,6.5C 14.5,6.83333 14.5,7.16667 14.5,7.5C 13.2651,9.017 13.2651,10.6837 14.5,12.5C 14.0431,13.2975 13.3764,13.6309 12.5,13.5C 12.5,13.1667 12.5,12.8333 12.5,12.5C 12.5,12.1667 12.5,11.8333 12.5,11.5C 11.962,9.88277 11.6287,8.2161 11.5,6.5C 11.8333,5.5 12.5,4.83333 13.5,4.5 Z"/></g>
<g><path style="opacity:1" fill="#faf454" d="M 18.5,5.5 C 18.8333,5.5 19.1667,5.5 19.5,5.5C 19.5,7.16667 19.5,8.83333 19.5,10.5C 17.5398,12.1563 15.5398,13.823 13.5,15.5C 11.8946,14.9941 11.5613,14.3274 12.5,13.5C 13.3764,13.6309 14.0431,13.2975 14.5,12.5C 13.2651,10.6837 13.2651,9.017 14.5,7.5C 17.3686,10.512 18.7019,9.84534 18.5,5.5 Z"/></g>
<g><path style="opacity:0.91" fill="#d3b81c" d="M 42.5,8.5 C 44.5869,9.58457 45.9202,11.2512 46.5,13.5C 45.8333,13.5 45.1667,13.5 44.5,13.5C 43.1667,13.5 41.8333,13.5 40.5,13.5C 41.6085,12.71 42.9419,12.21 44.5,12C 43.1772,11.1841 42.5106,10.0174 42.5,8.5 Z"/></g>
<g><path style="opacity:1" fill="#ceb520" d="M 21.5,10.5 C 22.209,9.59603 23.209,9.26269 24.5,9.5C 26.1667,9.5 27.8333,9.5 29.5,9.5C 30.209,10.404 31.209,10.7373 32.5,10.5C 32.5,11.1667 32.8333,11.5 33.5,11.5C 33.1583,12.3382 32.4916,12.6716 31.5,12.5C 30.5,12.5 29.5,12.5 28.5,12.5C 26.5,12.5 24.5,12.5 22.5,12.5C 23.2625,11.7321 24.2625,11.2321 25.5,11C 24.2068,10.51 22.8734,10.3433 21.5,10.5 Z"/></g>
<g><path style="opacity:1" fill="#f8df2d" d="M 32.5,10.5 C 33.1667,10.5 33.8333,10.5 34.5,10.5C 36.153,10.6596 37.4863,11.3263 38.5,12.5C 38.8417,13.3382 39.5084,13.6716 40.5,13.5C 40.1667,14.1667 39.8333,14.8333 39.5,15.5C 37.7721,13.7745 35.7721,12.4411 33.5,11.5C 32.8333,11.5 32.5,11.1667 32.5,10.5 Z"/></g>
<g><path style="opacity:1" fill="#f5da28" d="M 40.5,6.5 C 41.1667,6.5 41.5,6.83333 41.5,7.5C 40.7368,9.36841 39.7368,11.0351 38.5,12.5C 37.4863,11.3263 36.153,10.6596 34.5,10.5C 34.5,10.1667 34.5,9.83333 34.5,9.5C 37.089,9.53905 39.089,8.53905 40.5,6.5 Z"/></g>
<g><path style="opacity:1" fill="#dbc122" d="M 7.5,10.5 C 9.2161,10.6287 10.8828,10.962 12.5,11.5C 12.5,11.8333 12.5,12.1667 12.5,12.5C 6.65243,11.0237 5.98577,12.3571 10.5,16.5C 9.41065,18.1171 7.74398,18.9504 5.5,19C 6.05596,19.3826 6.38929,19.8826 6.5,20.5C 6.16667,20.5 5.83333,20.5 5.5,20.5C 4.5,19.8333 3.5,19.1667 2.5,18.5C 2.83333,17.8333 3.16667,17.1667 3.5,16.5C 5.19919,16.6602 6.86586,16.4935 8.5,16C 7.36362,14.8549 6.36362,13.6883 5.5,12.5C 5.83333,11.5 6.5,10.8333 7.5,10.5 Z"/></g>
<g><path style="opacity:1" fill="#bda41b" d="M 41.5,7.5 C 42.1667,7.5 42.5,7.83333 42.5,8.5C 42.5106,10.0174 43.1772,11.1841 44.5,12C 42.9419,12.21 41.6085,12.71 40.5,13.5C 39.5084,13.6716 38.8417,13.3382 38.5,12.5C 39.7368,11.0351 40.7368,9.36841 41.5,7.5 Z"/></g>
<g><path style="opacity:1" fill="#f5e835" d="M 20.5,13.5 C 20.8417,12.6618 21.5084,12.3284 22.5,12.5C 24.5,12.5 26.5,12.5 28.5,12.5C 28.5,13.1667 28.5,13.8333 28.5,14.5C 27.5,14.5 26.5,14.5 25.5,14.5C 24.0813,13.5489 22.4147,13.2155 20.5,13.5 Z"/></g>
<g><path style="opacity:1" fill="#d4b81d" d="M 33.5,11.5 C 35.7721,12.4411 37.7721,13.7745 39.5,15.5C 39.5,15.8333 39.5,16.1667 39.5,16.5C 39.5,17.1667 39.1667,17.5 38.5,17.5C 37.5637,16.0256 36.2303,15.0256 34.5,14.5C 33.5,13.8333 32.5,13.1667 31.5,12.5C 32.4916,12.6716 33.1583,12.3382 33.5,11.5 Z"/></g>
<g><path style="opacity:1" fill="#c6ac1c" d="M 19.5,10.5 C 20.1667,10.5 20.8333,10.5 21.5,10.5C 22.8734,10.3433 24.2068,10.51 25.5,11C 24.2625,11.2321 23.2625,11.7321 22.5,12.5C 21.5084,12.3284 20.8417,12.6618 20.5,13.5C 19.5,14.1667 18.5,14.8333 17.5,15.5C 16.0256,16.4363 15.0256,17.7697 14.5,19.5C 13.6618,19.8417 13.3284,20.5084 13.5,21.5C 12.596,22.209 12.2627,23.209 12.5,24.5C 11.5655,23.4324 11.2322,22.099 11.5,20.5C 11.5569,19.391 11.8902,18.391 12.5,17.5C 12.8333,16.8333 13.1667,16.1667 13.5,15.5C 15.5398,13.823 17.5398,12.1563 19.5,10.5 Z"/></g>
<g><path style="opacity:1" fill="#fbdf28" d="M 40.5,13.5 C 41.8333,13.5 43.1667,13.5 44.5,13.5C 43.075,14.922 42.075,16.5887 41.5,18.5C 40.8333,17.8333 40.1667,17.1667 39.5,16.5C 39.5,16.1667 39.5,15.8333 39.5,15.5C 39.8333,14.8333 40.1667,14.1667 40.5,13.5 Z"/></g>
<g><path style="opacity:1" fill="#faef4a" d="M 12.5,12.5 C 12.5,12.8333 12.5,13.1667 12.5,13.5C 11.5613,14.3274 11.8946,14.9941 13.5,15.5C 13.1667,16.1667 12.8333,16.8333 12.5,17.5C 11.8333,17.1667 11.1667,16.8333 10.5,16.5C 5.98577,12.3571 6.65243,11.0237 12.5,12.5 Z"/></g>
<g><path style="opacity:1" fill="#f6ee3a" d="M 20.5,13.5 C 22.4147,13.2155 24.0813,13.5489 25.5,14.5C 25.5,14.8333 25.5,15.1667 25.5,15.5C 23.7541,17.2516 21.7541,18.5849 19.5,19.5C 19.573,17.9731 18.9063,16.9731 17.5,16.5C 17.5,16.1667 17.5,15.8333 17.5,15.5C 18.5,14.8333 19.5,14.1667 20.5,13.5 Z"/></g>
<g><path style="opacity:1" fill="#d7c221" d="M 25.5,15.5 C 25.5,15.1667 25.5,14.8333 25.5,14.5C 26.5,14.5 27.5,14.5 28.5,14.5C 29.8333,14.5 31.1667,14.5 32.5,14.5C 32.5,15.8333 32.5,17.1667 32.5,18.5C 32.7373,19.791 32.404,20.791 31.5,21.5C 31.6716,20.5084 31.3382,19.8417 30.5,19.5C 30.5,18.5 30.5,17.5 30.5,16.5C 29.1667,16.5 27.8333,16.5 26.5,16.5C 26.5,15.8333 26.1667,15.5 25.5,15.5 Z"/></g>
<g><path style="opacity:0.965" fill="#efd122" d="M 5.5,12.5 C 6.36362,13.6883 7.36362,14.8549 8.5,16C 6.86586,16.4935 5.19919,16.6602 3.5,16.5C 3.6596,14.847 4.32627,13.5137 5.5,12.5 Z"/></g>
<g><path style="opacity:1" fill="#cab01d" d="M 44.5,13.5 C 45.1667,13.5 45.8333,13.5 46.5,13.5C 47.9313,14.7804 48.5979,16.4471 48.5,18.5C 46.1667,18.5 43.8333,18.5 41.5,18.5C 42.075,16.5887 43.075,14.922 44.5,13.5 Z"/></g>
<g><path style="opacity:1" fill="#f2dc29" d="M 28.5,12.5 C 29.5,12.5 30.5,12.5 31.5,12.5C 32.5,13.1667 33.5,13.8333 34.5,14.5C 35.1667,16.5 35.8333,18.5 36.5,20.5C 35.5084,20.3284 34.8417,20.6618 34.5,21.5C 33.8333,20.5 33.1667,19.5 32.5,18.5C 32.5,17.1667 32.5,15.8333 32.5,14.5C 31.1667,14.5 29.8333,14.5 28.5,14.5C 28.5,13.8333 28.5,13.1667 28.5,12.5 Z"/></g>
<g><path style="opacity:1" fill="#f7eb35" d="M 17.5,16.5 C 18.9063,16.9731 19.573,17.9731 19.5,19.5C 19.5,20.5 19.5,21.5 19.5,22.5C 19.5,22.8333 19.5,23.1667 19.5,23.5C 17.5605,21.3698 16.8938,19.0365 17.5,16.5 Z"/></g>
<g><path style="opacity:1" fill="#fefb1b" d="M 26.5,16.5 C 27.8333,16.5 29.1667,16.5 30.5,16.5C 30.5,17.5 30.5,18.5 30.5,19.5C 29.8826,19.6107 29.3826,19.944 29,20.5C 28.015,19.1859 26.8484,18.1859 25.5,17.5C 25.5,16.8333 25.8333,16.5 26.5,16.5 Z"/></g>
<g><path style="opacity:1" fill="#fcea3d" d="M 10.5,16.5 C 11.1667,16.8333 11.8333,17.1667 12.5,17.5C 11.8902,18.391 11.5569,19.391 11.5,20.5C 10.596,21.209 10.2627,22.209 10.5,23.5C 10.1667,23.5 9.83333,23.5 9.5,23.5C 8.83333,22.1667 7.83333,21.1667 6.5,20.5C 6.38929,19.8826 6.05596,19.3826 5.5,19C 7.74398,18.9504 9.41065,18.1171 10.5,16.5 Z"/></g>
<g><path style="opacity:1" fill="#fbf833" d="M 25.5,17.5 C 26.8484,18.1859 28.015,19.1859 29,20.5C 29.3826,19.944 29.8826,19.6107 30.5,19.5C 30.4431,20.609 30.1098,21.609 29.5,22.5C 27.9505,21.5592 26.2838,20.8925 24.5,20.5C 22.4501,19.6782 22.7835,18.6782 25.5,17.5 Z"/></g>
<g><path style="opacity:1" fill="#efd323" d="M 34.5,14.5 C 36.2303,15.0256 37.5637,16.0256 38.5,17.5C 38.8333,18.1667 39.1667,18.8333 39.5,19.5C 38.8333,19.8333 38.1667,20.1667 37.5,20.5C 37.1667,20.5 36.8333,20.5 36.5,20.5C 35.8333,18.5 35.1667,16.5 34.5,14.5 Z"/></g>
<g><path style="opacity:1" fill="#fbde27" d="M 41.5,19.5 C 41.5,19.1667 41.5,18.8333 41.5,18.5C 43.8333,18.5 46.1667,18.5 48.5,18.5C 47.5637,19.9744 46.2303,20.9744 44.5,21.5C 44.0269,20.0937 43.0269,19.427 41.5,19.5 Z"/></g>
<g><path style="opacity:1" fill="#efd424" d="M 39.5,19.5 C 40.36,22.6324 41.36,25.6324 42.5,28.5C 42.1075,30.2838 41.4408,31.9505 40.5,33.5C 40.1667,34.1667 39.8333,34.8333 39.5,35.5C 39.1667,35.5 38.8333,35.5 38.5,35.5C 38.5,34.8333 38.5,34.1667 38.5,33.5C 39.3382,33.1583 39.6716,32.4916 39.5,31.5C 40.3382,31.1583 40.6716,30.4916 40.5,29.5C 40.3357,26.1826 39.3357,23.1826 37.5,20.5C 38.1667,20.1667 38.8333,19.8333 39.5,19.5 Z"/></g>
<g><path style="opacity:1" fill="#e6c81e" d="M 2.5,18.5 C 3.5,19.1667 4.5,19.8333 5.5,20.5C 6.2268,23.2028 4.89346,24.5362 1.5,24.5C 1.51715,22.4352 1.85048,20.4352 2.5,18.5 Z"/></g>
<g><path style="opacity:1" fill="#d6bb21" d="M 5.5,20.5 C 5.83333,20.5 6.16667,20.5 6.5,20.5C 7.83333,21.1667 8.83333,22.1667 9.5,23.5C 8.50838,23.3284 7.84171,23.6618 7.5,24.5C 5.6203,24.2291 4.28696,24.8958 3.5,26.5C 2.83333,26.1667 2.16667,25.8333 1.5,25.5C 1.5,25.1667 1.5,24.8333 1.5,24.5C 4.89346,24.5362 6.2268,23.2028 5.5,20.5 Z"/></g>
<g><path style="opacity:1" fill="#cebb24" d="M 25.5,15.5 C 26.1667,15.5 26.5,15.8333 26.5,16.5C 25.8333,16.5 25.5,16.8333 25.5,17.5C 22.7835,18.6782 22.4501,19.6782 24.5,20.5C 24.5,20.8333 24.5,21.1667 24.5,21.5C 24.5,23.5 24.5,25.5 24.5,27.5C 24.7148,29.1788 24.0481,30.1788 22.5,30.5C 21.5,30.5 20.5,30.5 19.5,30.5C 20.1667,29.8333 20.8333,29.1667 21.5,28.5C 23.3079,27.0821 23.9746,25.0821 23.5,22.5C 22.1667,22.5 20.8333,22.5 19.5,22.5C 19.5,21.5 19.5,20.5 19.5,19.5C 21.7541,18.5849 23.7541,17.2516 25.5,15.5 Z"/></g>
<g><path style="opacity:1" fill="#f2dd2b" d="M 36.5,20.5 C 37.0421,23.9122 38.3754,26.9122 40.5,29.5C 40.6716,30.4916 40.3382,31.1583 39.5,31.5C 36.7086,28.8316 35.0419,25.4983 34.5,21.5C 34.8417,20.6618 35.5084,20.3284 36.5,20.5 Z"/></g>
<g><path style="opacity:1" fill="#f0d827" d="M 36.5,20.5 C 36.8333,20.5 37.1667,20.5 37.5,20.5C 39.3357,23.1826 40.3357,26.1826 40.5,29.5C 38.3754,26.9122 37.0421,23.9122 36.5,20.5 Z"/></g>
<g><path style="opacity:0.821" fill="#e2c51e" d="M 49.5,20.5 C 50.4345,21.5676 50.7678,22.901 50.5,24.5C 49.8333,24.5 49.1667,24.5 48.5,24.5C 46.1451,23.0418 46.4785,21.7085 49.5,20.5 Z"/></g>
<g><path style="opacity:1" fill="#f1db29" d="M 14.5,19.5 C 15.3565,23.34 17.3565,26.34 20.5,28.5C 19.2223,28.7822 18.2223,29.4489 17.5,30.5C 17.1667,30.5 16.8333,30.5 16.5,30.5C 16.1667,30.5 15.8333,30.5 15.5,30.5C 14.0712,27.6916 13.4045,24.6916 13.5,21.5C 13.3284,20.5084 13.6618,19.8417 14.5,19.5 Z"/></g>
<g><path style="opacity:1" fill="#f4e330" d="M 17.5,15.5 C 17.5,15.8333 17.5,16.1667 17.5,16.5C 16.8938,19.0365 17.5605,21.3698 19.5,23.5C 20.4408,25.0495 21.1075,26.7162 21.5,28.5C 21.1667,28.5 20.8333,28.5 20.5,28.5C 17.3565,26.34 15.3565,23.34 14.5,19.5C 15.0256,17.7697 16.0256,16.4363 17.5,15.5 Z"/></g>
<g><path style="opacity:1" fill="#fbfa47" d="M 24.5,21.5 C 24.5,21.1667 24.5,20.8333 24.5,20.5C 26.2838,20.8925 27.9505,21.5592 29.5,22.5C 29.5,23.1667 29.5,23.8333 29.5,24.5C 27.326,24.2503 25.6594,23.2503 24.5,21.5 Z"/></g>
<g><path style="opacity:1" fill="#c2a91d" d="M 48.5,18.5 C 49.3382,18.8417 49.6716,19.5084 49.5,20.5C 46.4785,21.7085 46.1451,23.0418 48.5,24.5C 48.5,24.8333 48.5,25.1667 48.5,25.5C 46.8599,24.6799 45.1932,23.8466 43.5,23C 44.056,22.6174 44.3893,22.1174 44.5,21.5C 46.2303,20.9744 47.5637,19.9744 48.5,18.5 Z"/></g>
<g><path style="opacity:1" fill="#f5e936" d="M 19.5,22.5 C 20.8333,22.5 22.1667,22.5 23.5,22.5C 23.9746,25.0821 23.3079,27.0821 21.5,28.5C 21.1075,26.7162 20.4408,25.0495 19.5,23.5C 19.5,23.1667 19.5,22.8333 19.5,22.5 Z"/></g>
<g><path style="opacity:1" fill="#f3e22f" d="M 32.5,18.5 C 33.1667,19.5 33.8333,20.5 34.5,21.5C 35.0419,25.4983 36.7086,28.8316 39.5,31.5C 39.6716,32.4916 39.3382,33.1583 38.5,33.5C 37.1667,32.1667 35.8333,30.8333 34.5,29.5C 34.313,27.4357 33.813,25.4357 33,23.5C 32.7216,24.4158 32.2216,25.0825 31.5,25.5C 31.5,24.1667 31.5,22.8333 31.5,21.5C 32.404,20.791 32.7373,19.791 32.5,18.5 Z"/></g>
<g><path style="opacity:1" fill="#f8eb35" d="M 34.5,29.5 C 33.5,29.5 32.5,29.5 31.5,29.5C 31.5,28.1667 31.5,26.8333 31.5,25.5C 32.2216,25.0825 32.7216,24.4158 33,23.5C 33.813,25.4357 34.313,27.4357 34.5,29.5 Z"/></g>
<g><path style="opacity:1" fill="#e4c820" d="M 39.5,16.5 C 40.1667,17.1667 40.8333,17.8333 41.5,18.5C 41.5,18.8333 41.5,19.1667 41.5,19.5C 42.4025,22.3915 42.7359,25.3915 42.5,28.5C 41.36,25.6324 40.36,22.6324 39.5,19.5C 39.1667,18.8333 38.8333,18.1667 38.5,17.5C 39.1667,17.5 39.5,17.1667 39.5,16.5 Z"/></g>
<g><path style="opacity:1" fill="#f8de2b" d="M 7.5,24.5 C 8.10978,25.391 8.44312,26.391 8.5,27.5C 6.7839,27.3713 5.11723,27.038 3.5,26.5C 4.28696,24.8958 5.6203,24.2291 7.5,24.5 Z"/></g>
<g><path style="opacity:1" fill="#fae433" d="M 9.5,23.5 C 9.83333,23.5 10.1667,23.5 10.5,23.5C 10.5,25.1667 10.5,26.8333 10.5,28.5C 9.83333,28.1667 9.16667,27.8333 8.5,27.5C 8.44312,26.391 8.10978,25.391 7.5,24.5C 7.84171,23.6618 8.50838,23.3284 9.5,23.5 Z"/></g>
<g><path style="opacity:1" fill="#d0b51e" d="M 11.5,20.5 C 11.2322,22.099 11.5655,23.4324 12.5,24.5C 12.5,26.1667 12.5,27.8333 12.5,29.5C 12.6716,30.4916 12.3382,31.1583 11.5,31.5C 11.4431,30.391 11.1098,29.391 10.5,28.5C 10.5,26.8333 10.5,25.1667 10.5,23.5C 10.2627,22.209 10.596,21.209 11.5,20.5 Z"/></g>
<g><path style="opacity:1" fill="#f5f350" d="M 24.5,21.5 C 25.6594,23.2503 27.326,24.2503 29.5,24.5C 28.8505,26.4352 28.5172,28.4352 28.5,30.5C 27.4739,29.147 26.1405,28.147 24.5,27.5C 24.5,25.5 24.5,23.5 24.5,21.5 Z"/></g>
<g><path style="opacity:1" fill="#f9e12f" d="M 41.5,19.5 C 43.0269,19.427 44.0269,20.0937 44.5,21.5C 44.3893,22.1174 44.056,22.6174 43.5,23C 45.1932,23.8466 46.8599,24.6799 48.5,25.5C 46.7392,26.3127 45.0725,27.3127 43.5,28.5C 43.1667,28.5 42.8333,28.5 42.5,28.5C 42.7359,25.3915 42.4025,22.3915 41.5,19.5 Z"/></g>
<g><path style="opacity:1" fill="#edd223" d="M 13.5,21.5 C 13.4045,24.6916 14.0712,27.6916 15.5,30.5C 14.8333,30.5 14.1667,30.5 13.5,30.5C 13.5,29.8333 13.1667,29.5 12.5,29.5C 12.5,27.8333 12.5,26.1667 12.5,24.5C 12.2627,23.209 12.596,22.209 13.5,21.5 Z"/></g>
<g><path style="opacity:1" fill="#c6ac1c" d="M 1.5,25.5 C 2.16667,25.8333 2.83333,26.1667 3.5,26.5C 5.11723,27.038 6.7839,27.3713 8.5,27.5C 8.16667,29.8333 6.83333,31.1667 4.5,31.5C 6.78452,28.8495 5.78452,27.5162 1.5,27.5C 1.5,26.8333 1.5,26.1667 1.5,25.5 Z"/></g>
<g><path style="opacity:1" fill="#ac951a" d="M 30.5,19.5 C 31.3382,19.8417 31.6716,20.5084 31.5,21.5C 31.5,22.8333 31.5,24.1667 31.5,25.5C 31.0276,27.5313 30.0276,29.1979 28.5,30.5C 28.5172,28.4352 28.8505,26.4352 29.5,24.5C 29.5,23.8333 29.5,23.1667 29.5,22.5C 30.1098,21.609 30.4431,20.609 30.5,19.5 Z"/></g>
<g><path style="opacity:1" fill="#b9a31e" d="M 48.5,24.5 C 49.1667,24.5 49.8333,24.5 50.5,24.5C 50.5,25.5 50.5,26.5 50.5,27.5C 46.8001,27.4597 46.1335,28.4597 48.5,30.5C 48.5,31.1667 48.1667,31.5 47.5,31.5C 46.1283,30.4884 44.795,29.4884 43.5,28.5C 45.0725,27.3127 46.7392,26.3127 48.5,25.5C 48.5,25.1667 48.5,24.8333 48.5,24.5 Z"/></g>
<g><path style="opacity:1" fill="#dcbf1d" d="M 1.5,27.5 C 5.78452,27.5162 6.78452,28.8495 4.5,31.5C 3.83333,31.8333 3.16667,32.1667 2.5,32.5C 1.962,30.8828 1.62867,29.2161 1.5,27.5 Z"/></g>
<g><path style="opacity:1" fill="#f2d828" d="M 8.5,27.5 C 9.16667,27.8333 9.83333,28.1667 10.5,28.5C 11.1098,29.391 11.4431,30.391 11.5,31.5C 11.8333,32.1667 12.1667,32.8333 12.5,33.5C 11.8333,33.8333 11.1667,34.1667 10.5,34.5C 8.73535,33.5386 6.73535,33.2053 4.5,33.5C 4.5,32.8333 4.5,32.1667 4.5,31.5C 6.83333,31.1667 8.16667,29.8333 8.5,27.5 Z"/></g>
<g><path style="opacity:0.256" fill="#eacd20" d="M 50.5,27.5 C 50.7373,28.791 50.404,29.791 49.5,30.5C 49.1667,30.5 48.8333,30.5 48.5,30.5C 46.1335,28.4597 46.8001,27.4597 50.5,27.5 Z"/></g>
<g><path style="opacity:1" fill="#d0c22b" d="M 31.5,25.5 C 31.5,26.8333 31.5,28.1667 31.5,29.5C 31.5,29.8333 31.5,30.1667 31.5,30.5C 31.5,30.8333 31.5,31.1667 31.5,31.5C 30.209,31.7373 29.209,31.404 28.5,30.5C 30.0276,29.1979 31.0276,27.5313 31.5,25.5 Z"/></g>
<g><path style="opacity:1" fill="#f4e834" d="M 31.5,30.5 C 31.5,30.1667 31.5,29.8333 31.5,29.5C 32.5,29.5 33.5,29.5 34.5,29.5C 35.8333,30.8333 37.1667,32.1667 38.5,33.5C 38.5,34.1667 38.5,34.8333 38.5,35.5C 37.5,36.1667 36.5,36.8333 35.5,37.5C 34.9759,35.6943 34.3092,34.0276 33.5,32.5C 33.5,31.1667 32.8333,30.5 31.5,30.5 Z"/></g>
<g><path style="opacity:1" fill="#eed222" d="M 13.5,30.5 C 14.1667,30.5 14.8333,30.5 15.5,30.5C 15.8333,30.5 16.1667,30.5 16.5,30.5C 16.5,32.1667 16.5,33.8333 16.5,35.5C 14.7497,34.3406 13.7497,32.674 13.5,30.5 Z"/></g>
<g><path style="opacity:1" fill="#fcfb37" d="M 24.5,27.5 C 26.1405,28.147 27.4739,29.147 28.5,30.5C 29.209,31.404 30.209,31.7373 31.5,31.5C 31.5,32.1667 31.5,32.8333 31.5,33.5C 31.1667,33.5 30.8333,33.5 30.5,33.5C 28.7857,32.2616 26.7857,31.595 24.5,31.5C 23.8333,31.5 23.1667,31.5 22.5,31.5C 22.5,31.1667 22.5,30.8333 22.5,30.5C 24.0481,30.1788 24.7148,29.1788 24.5,27.5 Z"/></g>
<g><path style="opacity:1" fill="#fbea3c" d="M 42.5,28.5 C 42.8333,28.5 43.1667,28.5 43.5,28.5C 44.795,29.4884 46.1283,30.4884 47.5,31.5C 45.8333,32.1667 44.1667,32.8333 42.5,33.5C 41.8333,33.5 41.1667,33.5 40.5,33.5C 41.4408,31.9505 42.1075,30.2838 42.5,28.5 Z"/></g>
<g><path style="opacity:1" fill="#c1ac1c" d="M 20.5,28.5 C 20.8333,28.5 21.1667,28.5 21.5,28.5C 20.8333,29.1667 20.1667,29.8333 19.5,30.5C 19.5,31.8333 19.5,33.1667 19.5,34.5C 18.8333,34.5 18.5,34.8333 18.5,35.5C 17.5489,34.0813 17.2155,32.4147 17.5,30.5C 18.2223,29.4489 19.2223,28.7822 20.5,28.5 Z"/></g>
<g><path style="opacity:1" fill="#faf710" d="M 19.5,30.5 C 20.5,30.5 21.5,30.5 22.5,30.5C 22.5,30.8333 22.5,31.1667 22.5,31.5C 21.9569,31.56 21.6236,31.8933 21.5,32.5C 22.2427,33.1818 22.9094,33.8485 23.5,34.5C 22.1667,34.5 20.8333,34.5 19.5,34.5C 19.5,33.1667 19.5,31.8333 19.5,30.5 Z"/></g>
<g><path style="opacity:1" fill="#fffc16" d="M 22.5,31.5 C 23.1667,31.5 23.8333,31.5 24.5,31.5C 25.2297,33.045 26.563,33.8784 28.5,34C 27.2068,34.49 25.8734,34.6567 24.5,34.5C 24.1667,34.5 23.8333,34.5 23.5,34.5C 22.9094,33.8485 22.2427,33.1818 21.5,32.5C 21.6236,31.8933 21.9569,31.56 22.5,31.5 Z"/></g>
<g><path style="opacity:1" fill="#f9f523" d="M 24.5,31.5 C 26.7857,31.595 28.7857,32.2616 30.5,33.5C 30.0296,34.6935 29.0296,35.3601 27.5,35.5C 26.2739,35.4805 25.2739,35.1471 24.5,34.5C 25.8734,34.6567 27.2068,34.49 28.5,34C 26.563,33.8784 25.2297,33.045 24.5,31.5 Z"/></g>
<g><path style="opacity:1" fill="#bea924" d="M 48.5,30.5 C 48.8333,30.5 49.1667,30.5 49.5,30.5C 49.4431,31.609 49.1098,32.609 48.5,33.5C 46.5168,33.1568 45.1834,33.8235 44.5,35.5C 43.5,35.1667 42.8333,34.5 42.5,33.5C 44.1667,32.8333 45.8333,32.1667 47.5,31.5C 48.1667,31.5 48.5,31.1667 48.5,30.5 Z"/></g>
<g><path style="opacity:1" fill="#bfa61b" d="M 4.5,33.5 C 6.73535,33.2053 8.73535,33.5386 10.5,34.5C 10.5,34.8333 10.5,35.1667 10.5,35.5C 9.16667,36.1667 8.16667,37.1667 7.5,38.5C 6.35521,37.2073 6.68854,36.0407 8.5,35C 6.94186,34.79 5.60853,34.29 4.5,33.5 Z"/></g>
<g><path style="opacity:1" fill="#d8bc1d" d="M 12.5,29.5 C 13.1667,29.5 13.5,29.8333 13.5,30.5C 13.7497,32.674 14.7497,34.3406 16.5,35.5C 16.5,35.8333 16.5,36.1667 16.5,36.5C 16.5,36.8333 16.5,37.1667 16.5,37.5C 16.1667,37.5 15.8333,37.5 15.5,37.5C 14.5,36.1667 13.5,34.8333 12.5,33.5C 12.1667,32.8333 11.8333,32.1667 11.5,31.5C 12.3382,31.1583 12.6716,30.4916 12.5,29.5 Z"/></g>
<g><path style="opacity:1" fill="#f0d827" d="M 16.5,30.5 C 16.8333,30.5 17.1667,30.5 17.5,30.5C 17.2155,32.4147 17.5489,34.0813 18.5,35.5C 21.2804,36.0784 23.9471,36.7451 26.5,37.5C 22.3601,36.9557 21.6935,37.9557 24.5,40.5C 21.5498,39.6916 18.8831,38.3582 16.5,36.5C 16.5,36.1667 16.5,35.8333 16.5,35.5C 16.5,33.8333 16.5,32.1667 16.5,30.5 Z"/></g>
<g><path style="opacity:1" fill="#f5ec39" d="M 33.5,32.5 C 34.3092,34.0276 34.9759,35.6943 35.5,37.5C 34.4863,38.6737 33.153,39.3404 31.5,39.5C 30.448,39.6495 29.448,39.4828 28.5,39C 30.0581,38.79 31.3915,38.29 32.5,37.5C 32.366,35.7085 32.6993,34.0418 33.5,32.5 Z"/></g>
<g><path style="opacity:1" fill="#fbf04a" d="M 40.5,33.5 C 41.1667,33.5 41.8333,33.5 42.5,33.5C 42.8333,34.5 43.5,35.1667 44.5,35.5C 44.3284,36.4916 44.6618,37.1583 45.5,37.5C 45.5,38.1667 45.1667,38.5 44.5,38.5C 42.4352,38.4828 40.4352,38.1495 38.5,37.5C 38.8333,36.8333 39.1667,36.1667 39.5,35.5C 39.8333,34.8333 40.1667,34.1667 40.5,33.5 Z"/></g>
<g><path style="opacity:0.855" fill="#dec322" d="M 48.5,33.5 C 48.3404,35.153 47.6737,36.4863 46.5,37.5C 46.1667,37.5 45.8333,37.5 45.5,37.5C 44.6618,37.1583 44.3284,36.4916 44.5,35.5C 45.1834,33.8235 46.5168,33.1568 48.5,33.5 Z"/></g>
<g><path style="opacity:1" fill="#d2b61c" d="M 4.5,31.5 C 4.5,32.1667 4.5,32.8333 4.5,33.5C 5.60853,34.29 6.94186,34.79 8.5,35C 6.68854,36.0407 6.35521,37.2073 7.5,38.5C 7.83333,38.5 8.16667,38.5 8.5,38.5C 8.16667,39.1667 7.83333,39.8333 7.5,40.5C 5.347,38.2063 3.68034,35.5396 2.5,32.5C 3.16667,32.1667 3.83333,31.8333 4.5,31.5 Z"/></g>
<g><path style="opacity:1" fill="#ab991c" d="M 30.5,33.5 C 30.8333,33.5 31.1667,33.5 31.5,33.5C 31.5,34.5 31.5,35.5 31.5,36.5C 30.209,36.2627 29.209,36.596 28.5,37.5C 27.8333,37.5 27.1667,37.5 26.5,37.5C 23.9471,36.7451 21.2804,36.0784 18.5,35.5C 18.5,34.8333 18.8333,34.5 19.5,34.5C 20.8333,34.5 22.1667,34.5 23.5,34.5C 23.8333,34.5 24.1667,34.5 24.5,34.5C 25.2739,35.1471 26.2739,35.4805 27.5,35.5C 29.0296,35.3601 30.0296,34.6935 30.5,33.5 Z"/></g>
<g><path style="opacity:1" fill="#9b871b" d="M 31.5,30.5 C 32.8333,30.5 33.5,31.1667 33.5,32.5C 32.6993,34.0418 32.366,35.7085 32.5,37.5C 31.1667,37.5 29.8333,37.5 28.5,37.5C 29.209,36.596 30.209,36.2627 31.5,36.5C 31.5,35.5 31.5,34.5 31.5,33.5C 31.5,32.8333 31.5,32.1667 31.5,31.5C 31.5,31.1667 31.5,30.8333 31.5,30.5 Z"/></g>
<g><path style="opacity:1" fill="#f9de2a" d="M 12.5,33.5 C 13.5,34.8333 14.5,36.1667 15.5,37.5C 14.8333,37.5 14.5,37.8333 14.5,38.5C 12.5447,38.2014 11.2114,37.2014 10.5,35.5C 10.5,35.1667 10.5,34.8333 10.5,34.5C 11.1667,34.1667 11.8333,33.8333 12.5,33.5 Z"/></g>
<g><path style="opacity:1" fill="#f3da2b" d="M 15.5,37.5 C 15.8333,37.5 16.1667,37.5 16.5,37.5C 17.1667,38.5 17.8333,39.5 18.5,40.5C 18.2155,42.4147 18.5489,44.0813 19.5,45.5C 19.2172,46.2891 18.7172,46.9558 18,47.5C 17.8078,45.4233 17.3078,43.4233 16.5,41.5C 15.8165,41.8627 15.1499,42.1961 14.5,42.5C 14.5,41.1667 14.5,39.8333 14.5,38.5C 14.5,37.8333 14.8333,37.5 15.5,37.5 Z"/></g>
<g><path style="opacity:1" fill="#efe132" d="M 26.5,37.5 C 27.1667,37.5 27.8333,37.5 28.5,37.5C 29.8333,37.5 31.1667,37.5 32.5,37.5C 31.3915,38.29 30.0581,38.79 28.5,39C 29.448,39.4828 30.448,39.6495 31.5,39.5C 31.5,39.8333 31.5,40.1667 31.5,40.5C 29.1667,40.5 26.8333,40.5 24.5,40.5C 21.6935,37.9557 22.3601,36.9557 26.5,37.5 Z"/></g>
<g><path style="opacity:1" fill="#f3e94b" d="M 38.5,37.5 C 38.9925,39.8185 39.9925,41.8185 41.5,43.5C 39.8525,45.3264 37.8525,46.6597 35.5,47.5C 35.2267,45.549 35.8934,44.049 37.5,43C 36.4734,42.4867 35.4734,41.9867 34.5,41.5C 34.5,41.1667 34.5,40.8333 34.5,40.5C 35.795,39.5116 37.1283,38.5116 38.5,37.5 Z"/></g>
<g><path style="opacity:1" fill="#bba21b" d="M 8.5,38.5 C 9.83333,38.5 11.1667,38.5 12.5,38.5C 12.5674,39.9587 12.2341,41.2921 11.5,42.5C 10.5326,41.1938 9.19928,40.5271 7.5,40.5C 7.83333,39.8333 8.16667,39.1667 8.5,38.5 Z"/></g>
<g><path style="opacity:1" fill="#f4e238" d="M 38.5,35.5 C 38.8333,35.5 39.1667,35.5 39.5,35.5C 39.1667,36.1667 38.8333,36.8333 38.5,37.5C 37.1283,38.5116 35.795,39.5116 34.5,40.5C 33.391,40.5569 32.391,40.8902 31.5,41.5C 31.5,41.1667 31.5,40.8333 31.5,40.5C 31.5,40.1667 31.5,39.8333 31.5,39.5C 33.153,39.3404 34.4863,38.6737 35.5,37.5C 36.5,36.8333 37.5,36.1667 38.5,35.5 Z"/></g>
<g><path style="opacity:1" fill="#bfaa25" d="M 38.5,37.5 C 40.4352,38.1495 42.4352,38.4828 44.5,38.5C 43.3915,39.29 42.0581,39.79 40.5,40C 41.3366,41.0113 41.67,42.1779 41.5,43.5C 39.9925,41.8185 38.9925,39.8185 38.5,37.5 Z"/></g>
<g><path style="opacity:0.986" fill="#cfb41c" d="M 7.5,40.5 C 9.19928,40.5271 10.5326,41.1938 11.5,42.5C 11.5,43.1667 11.8333,43.5 12.5,43.5C 13.3132,44.6527 14.3132,44.6527 15.5,43.5C 16.4287,44.6888 16.762,46.0222 16.5,47.5C 12.6367,46.3064 9.6367,43.973 7.5,40.5 Z"/></g>
<g><path style="opacity:1" fill="#f8e231" d="M 18.5,40.5 C 19.4916,40.3284 20.1583,40.6618 20.5,41.5C 20.3284,42.4916 20.6618,43.1583 21.5,43.5C 21.1667,44.5 20.5,45.1667 19.5,45.5C 18.5489,44.0813 18.2155,42.4147 18.5,40.5 Z"/></g>
<g><path style="opacity:1" fill="#ead025" d="M 16.5,36.5 C 18.8831,38.3582 21.5498,39.6916 24.5,40.5C 26.8333,40.5 29.1667,40.5 31.5,40.5C 31.5,40.8333 31.5,41.1667 31.5,41.5C 30.5,41.5 29.5,41.5 28.5,41.5C 25.8333,41.5 23.1667,41.5 20.5,41.5C 20.1583,40.6618 19.4916,40.3284 18.5,40.5C 17.8333,39.5 17.1667,38.5 16.5,37.5C 16.5,37.1667 16.5,36.8333 16.5,36.5 Z"/></g>
<g><path style="opacity:0.894" fill="#ebd128" d="M 45.5,37.5 C 45.8333,37.5 46.1667,37.5 46.5,37.5C 45.5806,40.0892 43.914,42.0892 41.5,43.5C 41.67,42.1779 41.3366,41.0113 40.5,40C 42.0581,39.79 43.3915,39.29 44.5,38.5C 45.1667,38.5 45.5,38.1667 45.5,37.5 Z"/></g>
<g><path style="opacity:1" fill="#f5d823" d="M 10.5,35.5 C 11.2114,37.2014 12.5447,38.2014 14.5,38.5C 14.5,39.8333 14.5,41.1667 14.5,42.5C 13.8333,42.8333 13.1667,43.1667 12.5,43.5C 11.8333,43.5 11.5,43.1667 11.5,42.5C 12.2341,41.2921 12.5674,39.9587 12.5,38.5C 11.1667,38.5 9.83333,38.5 8.5,38.5C 8.16667,38.5 7.83333,38.5 7.5,38.5C 8.16667,37.1667 9.16667,36.1667 10.5,35.5 Z"/></g>
<g><path style="opacity:1" fill="#f7e63c" d="M 20.5,41.5 C 23.1667,41.5 25.8333,41.5 28.5,41.5C 29.1667,42.1667 29.8333,42.8333 30.5,43.5C 29.5084,43.3284 28.8417,43.6618 28.5,44.5C 27.8333,44.8333 27.1667,45.1667 26.5,45.5C 26.3318,42.9486 25.3318,42.2819 23.5,43.5C 22.8333,43.5 22.1667,43.5 21.5,43.5C 20.6618,43.1583 20.3284,42.4916 20.5,41.5 Z"/></g>
<g><path style="opacity:1" fill="#fbf451" d="M 34.5,40.5 C 34.5,40.8333 34.5,41.1667 34.5,41.5C 33.5655,42.5676 33.2322,43.901 33.5,45.5C 32.2418,46.0164 31.2418,45.3497 30.5,43.5C 29.8333,42.8333 29.1667,42.1667 28.5,41.5C 29.5,41.5 30.5,41.5 31.5,41.5C 32.391,40.8902 33.391,40.5569 34.5,40.5 Z"/></g>
<g><path style="opacity:1" fill="#bba522" d="M 34.5,41.5 C 35.4734,41.9867 36.4734,42.4867 37.5,43C 35.8934,44.049 35.2267,45.549 35.5,47.5C 34.8333,46.8333 34.1667,46.1667 33.5,45.5C 33.2322,43.901 33.5655,42.5676 34.5,41.5 Z"/></g>
<g><path style="opacity:1" fill="#c2aa1e" d="M 19.5,45.5 C 20.5,45.1667 21.1667,44.5 21.5,43.5C 22.1667,43.5 22.8333,43.5 23.5,43.5C 23.4914,45.3084 23.9914,46.9751 25,48.5C 26.0386,47.7562 26.5386,46.7562 26.5,45.5C 27.1667,45.1667 27.8333,44.8333 28.5,44.5C 27.962,46.1172 27.6287,47.7839 27.5,49.5C 23.5422,49.7489 19.8756,49.0823 16.5,47.5C 16.762,46.0222 16.4287,44.6888 15.5,43.5C 14.3132,44.6527 13.3132,44.6527 12.5,43.5C 13.1667,43.1667 13.8333,42.8333 14.5,42.5C 15.1499,42.1961 15.8165,41.8627 16.5,41.5C 17.3078,43.4233 17.8078,45.4233 18,47.5C 18.7172,46.9558 19.2172,46.2891 19.5,45.5 Z"/></g>
<g><path style="opacity:1" fill="#bda925" d="M 28.5,44.5 C 28.8417,43.6618 29.5084,43.3284 30.5,43.5C 31.2418,45.3497 32.2418,46.0164 33.5,45.5C 34.1667,46.1667 34.8333,46.8333 35.5,47.5C 34.791,48.404 33.791,48.7373 32.5,48.5C 31.5,46.8333 30.1667,45.5 28.5,44.5 Z"/></g>
<g><path style="opacity:1" fill="#f9e83b" d="M 26.5,45.5 C 26.5386,46.7562 26.0386,47.7562 25,48.5C 23.9914,46.9751 23.4914,45.3084 23.5,43.5C 25.3318,42.2819 26.3318,42.9486 26.5,45.5 Z"/></g>
<g><path style="opacity:0.988" fill="#e9cb20" d="M 28.5,44.5 C 30.1667,45.5 31.5,46.8333 32.5,48.5C 30.9582,49.3007 29.2915,49.634 27.5,49.5C 27.6287,47.7839 27.962,46.1172 28.5,44.5 Z"/></g>
</svg>
