<?xml version="1.0" encoding="UTF-8"?>
<!DOCTYPE svg PUBLIC "-//W3C//DTD SVG 1.1//EN" "http://www.w3.org/Graphics/SVG/1.1/DTD/svg11.dtd">
<svg xmlns="http://www.w3.org/2000/svg" version="1.1" width="53px" height="53px" style="shape-rendering:geometricPrecision; text-rendering:geometricPrecision; image-rendering:optimizeQuality; fill-rule:evenodd; clip-rule:evenodd" xmlns:xlink="http://www.w3.org/1999/xlink">
<g><path style="opacity:1" fill="#dbc022" d="M 30.5,1.5 C 30.2283,4.73221 28.5616,6.73221 25.5,7.5C 24.5423,6.0384 23.3756,4.70507 22,3.5C 21.1353,8.93077 19.1353,9.59743 16,5.5C 15.5045,7.4727 15.3379,9.4727 15.5,11.5C 13.7839,11.3713 12.1172,11.038 10.5,10.5C 11.209,9.59603 12.209,9.26269 13.5,9.5C 13.5,8.16667 13.5,6.83333 13.5,5.5C 15.3854,3.68851 17.7187,2.52184 20.5,2C 23.8168,1.50166 27.1501,1.33499 30.5,1.5 Z"/></g>
<g><path style="opacity:1" fill="#ccb11c" d="M 31.5,2.5 C 39.8863,4.5463 45.8863,9.5463 49.5,17.5C 47.6883,17.2287 46.0217,16.562 44.5,15.5C 45.6527,14.3132 45.6527,13.3132 44.5,12.5C 42.7411,12.0461 40.7411,12.0461 38.5,12.5C 38.6621,10.4727 38.4955,8.4727 38,6.5C 33.4148,10.5969 31.2481,9.26356 31.5,2.5 Z"/></g>
<g><path style="opacity:1" fill="#faf14e" d="M 25.5,7.5 C 24.5,8.16667 23.5,8.83333 22.5,9.5C 16.9877,11.0118 12.9877,14.3451 10.5,19.5C 9.83333,19.5 9.16667,19.5 8.5,19.5C 7.63638,18.3117 6.63638,17.1451 5.5,16C 7.5767,15.8078 9.5767,15.3078 11.5,14.5C 10.8333,13.5 10.1667,12.5 9.5,11.5C 9.62358,10.8933 9.95691,10.56 10.5,10.5C 12.1172,11.038 13.7839,11.3713 15.5,11.5C 15.3379,9.4727 15.5045,7.4727 16,5.5C 19.1353,9.59743 21.1353,8.93077 22,3.5C 23.3756,4.70507 24.5423,6.0384 25.5,7.5 Z"/></g>
<g><path style="opacity:0.984" fill="#e4c824" d="M 13.5,5.5 C 13.5,6.83333 13.5,8.16667 13.5,9.5C 12.209,9.26269 11.209,9.59603 10.5,10.5C 9.95691,10.56 9.62358,10.8933 9.5,11.5C 10.1667,12.5 10.8333,13.5 11.5,14.5C 9.5767,15.3078 7.5767,15.8078 5.5,16C 6.63638,17.1451 7.63638,18.3117 8.5,19.5C 7.20327,21.7719 5.20327,22.6052 2.5,22C 7.3378,20.7174 7.67113,18.8841 3.5,16.5C 5.46432,11.538 8.79765,7.87134 13.5,5.5 Z"/></g>
<g><path style="opacity:1" fill="#f3e12f" d="M 20.5,12.5 C 22.134,11.8389 23.9674,11.5056 26,11.5C 28.8655,11.2999 31.3655,11.9666 33.5,13.5C 34.851,18.5358 37.0176,23.2025 40,27.5C 40.7796,29.3869 40.6129,31.0536 39.5,32.5C 36.444,27.6286 33.7774,22.6286 31.5,17.5C 31.5858,16.5041 31.2524,15.6708 30.5,15C 28.8659,14.5065 27.1992,14.3398 25.5,14.5C 24.4479,12.744 22.7812,12.0773 20.5,12.5 Z"/></g>
<g><path style="opacity:1" fill="#ccb11c" d="M 22.5,9.5 C 29.7217,8.28326 35.3884,10.6166 39.5,16.5C 39.5654,16.9382 39.3988,17.2716 39,17.5C 37.549,15.5359 35.7157,14.2026 33.5,13.5C 31.3655,11.9666 28.8655,11.2999 26,11.5C 23.9674,11.5056 22.134,11.8389 20.5,12.5C 19.2905,12.9321 18.2905,13.5987 17.5,14.5C 16.1667,15.1667 15.1667,16.1667 14.5,17.5C 13.3263,18.5137 12.6596,19.847 12.5,21.5C 10.1034,29.3065 12.4367,35.3065 19.5,39.5C 19.5,40.1667 19.1667,40.5 18.5,40.5C 16.2279,39.5589 14.2279,38.2255 12.5,36.5C 9.49471,31.1197 8.82804,25.453 10.5,19.5C 12.9877,14.3451 16.9877,11.0118 22.5,9.5 Z"/></g>
<g><path style="opacity:1" fill="#f6ed37" d="M 20.5,12.5 C 22.7812,12.0773 24.4479,12.744 25.5,14.5C 24.1667,14.8333 24.1667,15.1667 25.5,15.5C 24.8333,16.8333 23.8333,17.8333 22.5,18.5C 20.2752,17.6679 18.9419,18.6679 18.5,21.5C 17.5318,19.3926 17.1984,17.0593 17.5,14.5C 18.2905,13.5987 19.2905,12.9321 20.5,12.5 Z"/></g>
<g><path style="opacity:1" fill="#f7dc29" d="M 30.5,1.5 C 31.1667,1.5 31.5,1.83333 31.5,2.5C 31.2481,9.26356 33.4148,10.5969 38,6.5C 38.4955,8.4727 38.6621,10.4727 38.5,12.5C 40.7411,12.0461 42.7411,12.0461 44.5,12.5C 43.2702,14.2972 42.6036,16.2972 42.5,18.5C 49.4125,17.694 50.0792,19.0273 44.5,22.5C 43.8333,23.5 43.1667,24.5 42.5,25.5C 42.8676,21.9557 41.8676,18.9557 39.5,16.5C 35.3884,10.6166 29.7217,8.28326 22.5,9.5C 23.5,8.83333 24.5,8.16667 25.5,7.5C 28.5616,6.73221 30.2283,4.73221 30.5,1.5 Z"/></g>
<g><path style="opacity:1" fill="#f6ea35" d="M 17.5,14.5 C 17.1984,17.0593 17.5318,19.3926 18.5,21.5C 19.9008,21.9709 21.2342,22.6376 22.5,23.5C 21.6906,25.0709 21.3573,26.7376 21.5,28.5C 20.1667,28.5 18.8333,28.5 17.5,28.5C 16.9648,24.691 15.9648,21.0244 14.5,17.5C 15.1667,16.1667 16.1667,15.1667 17.5,14.5 Z"/></g>
<g><path style="opacity:1" fill="#f6eb36" d="M 31.5,17.5 C 33.7774,22.6286 36.444,27.6286 39.5,32.5C 37.6533,37.0124 34.3199,39.679 29.5,40.5C 28.4711,39.8743 27.4711,39.041 26.5,38C 27.448,37.5172 28.448,37.3505 29.5,37.5C 30.4959,37.5858 31.3292,37.2524 32,36.5C 32.4955,34.5273 32.6621,32.5273 32.5,30.5C 31.5,30.5 30.5,30.5 29.5,30.5C 29.271,25.9903 29.9376,21.6569 31.5,17.5 Z"/></g>
<g><path style="opacity:1" fill="#fbf824" d="M 25.5,15.5 C 26.8333,15.5 28.1667,15.5 29.5,15.5C 29.552,17.9029 29.2186,20.2362 28.5,22.5C 26.7085,22.634 25.0418,22.3007 23.5,21.5C 22.7375,20.7321 21.7375,20.2321 20.5,20C 21.0442,19.2828 21.7109,18.7828 22.5,18.5C 23.8333,17.8333 24.8333,16.8333 25.5,15.5 Z"/></g>
<g><path style="opacity:1" fill="#c3b022" d="M 25.5,14.5 C 27.1992,14.3398 28.8659,14.5065 30.5,15C 31.2524,15.6708 31.5858,16.5041 31.5,17.5C 29.9376,21.6569 29.271,25.9903 29.5,30.5C 30.5,30.5 31.5,30.5 32.5,30.5C 32.6621,32.5273 32.4955,34.5273 32,36.5C 31.3292,37.2524 30.4959,37.5858 29.5,37.5C 25.6836,36.5176 21.6836,35.8509 17.5,35.5C 17.5,34.5 17.5,33.5 17.5,32.5C 17.5,31.5 17.5,30.5 17.5,29.5C 19.099,29.7678 20.4324,29.4345 21.5,28.5C 21.3573,26.7376 21.6906,25.0709 22.5,23.5C 21.2342,22.6376 19.9008,21.9709 18.5,21.5C 18.9419,18.6679 20.2752,17.6679 22.5,18.5C 21.7109,18.7828 21.0442,19.2828 20.5,20C 21.7375,20.2321 22.7375,20.7321 23.5,21.5C 23.5,23.5 23.5,25.5 23.5,27.5C 22.9517,30.0838 21.285,31.0838 18.5,30.5C 18.33,31.8221 18.6634,32.9887 19.5,34C 23.1914,34.4196 26.8581,34.9196 30.5,35.5C 30.5,34.1667 30.5,32.8333 30.5,31.5C 29.1667,31.5 27.8333,31.5 26.5,31.5C 26.5,30.5 26.5,29.5 26.5,28.5C 27.7384,26.7857 28.405,24.7857 28.5,22.5C 29.2186,20.2362 29.552,17.9029 29.5,15.5C 28.1667,15.5 26.8333,15.5 25.5,15.5C 24.1667,15.1667 24.1667,14.8333 25.5,14.5 Z"/></g>
<g><path style="opacity:1" fill="#f3e12f" d="M 14.5,17.5 C 15.9648,21.0244 16.9648,24.691 17.5,28.5C 18.8333,28.5 20.1667,28.5 21.5,28.5C 20.4324,29.4345 19.099,29.7678 17.5,29.5C 17.5,30.5 17.5,31.5 17.5,32.5C 15.9186,30.3263 14.4186,27.9929 13,25.5C 12.51,24.2068 12.3433,22.8734 12.5,21.5C 12.6596,19.847 13.3263,18.5137 14.5,17.5 Z"/></g>
<g><path style="opacity:0.688" fill="#dec11e" d="M 49.5,19.5 C 50.4682,21.6074 50.8016,23.9407 50.5,26.5C 45.5316,24.8837 45.1982,22.5504 49.5,19.5 Z"/></g>
<g><path style="opacity:1" fill="#bea61d" d="M 44.5,12.5 C 45.6527,13.3132 45.6527,14.3132 44.5,15.5C 46.0217,16.562 47.6883,17.2287 49.5,17.5C 49.5,18.1667 49.5,18.8333 49.5,19.5C 45.1982,22.5504 45.5316,24.8837 50.5,26.5C 50.5,27.5 50.5,28.5 50.5,29.5C 48.6916,29.4914 47.0249,29.9914 45.5,31C 47.0629,31.7589 48.0629,32.9256 48.5,34.5C 41.5108,31.3313 41.8441,29.1647 49.5,28C 46.921,26.9243 45.2543,25.091 44.5,22.5C 50.0792,19.0273 49.4125,17.694 42.5,18.5C 42.6036,16.2972 43.2702,14.2972 44.5,12.5 Z"/></g>
<g><path style="opacity:1" fill="#f9f851" d="M 23.5,21.5 C 25.0418,22.3007 26.7085,22.634 28.5,22.5C 28.405,24.7857 27.7384,26.7857 26.5,28.5C 25.791,27.596 24.791,27.2627 23.5,27.5C 23.5,25.5 23.5,23.5 23.5,21.5 Z"/></g>
<g><path style="opacity:1" fill="#efd729" d="M 33.5,13.5 C 35.7157,14.2026 37.549,15.5359 39,17.5C 39.3988,17.2716 39.5654,16.9382 39.5,16.5C 41.8676,18.9557 42.8676,21.9557 42.5,25.5C 42.4535,28.9686 41.7868,32.302 40.5,35.5C 38.5,36.8333 36.8333,38.5 35.5,40.5C 33.0326,40.7549 31.0326,41.7549 29.5,43.5C 28.8333,43.5 28.1667,43.5 27.5,43.5C 24.4651,42.6255 21.4651,41.6255 18.5,40.5C 19.1667,40.5 19.5,40.1667 19.5,39.5C 22.8241,41.3967 26.1574,41.73 29.5,40.5C 34.3199,39.679 37.6533,37.0124 39.5,32.5C 40.6129,31.0536 40.7796,29.3869 40,27.5C 37.0176,23.2025 34.851,18.5358 33.5,13.5 Z"/></g>
<g><path style="opacity:1" fill="#fae83c" d="M 44.5,22.5 C 45.2543,25.091 46.921,26.9243 49.5,28C 41.8441,29.1647 41.5108,31.3313 48.5,34.5C 48.5,34.8333 48.5,35.1667 48.5,35.5C 45.8333,35.5 43.1667,35.5 40.5,35.5C 41.7868,32.302 42.4535,28.9686 42.5,25.5C 43.1667,24.5 43.8333,23.5 44.5,22.5 Z"/></g>
<g><path style="opacity:1" fill="#d4b91d" d="M 1.5,23.5 C 8.06783,24.4745 8.7345,26.6412 3.5,30C 8.98283,30.756 9.6495,32.756 5.5,36C 7.80982,36.4966 10.1432,36.6633 12.5,36.5C 12.6716,37.4916 12.3382,38.1583 11.5,38.5C 9.39263,37.5318 7.0593,37.1984 4.5,37.5C 2.04391,33.2622 1.04391,28.5955 1.5,23.5 Z"/></g>
<g><path style="opacity:1" fill="#f5dc2d" d="M 3.5,16.5 C 7.67113,18.8841 7.3378,20.7174 2.5,22C 5.20327,22.6052 7.20327,21.7719 8.5,19.5C 9.16667,19.5 9.83333,19.5 10.5,19.5C 8.82804,25.453 9.49471,31.1197 12.5,36.5C 10.1432,36.6633 7.80982,36.4966 5.5,36C 9.6495,32.756 8.98283,30.756 3.5,30C 8.7345,26.6412 8.06783,24.4745 1.5,23.5C 1.76697,21.0347 2.43363,18.7014 3.5,16.5 Z"/></g>
<g><path style="opacity:1" fill="#f0d827" d="M 12.5,21.5 C 12.3433,22.8734 12.51,24.2068 13,25.5C 14.4186,27.9929 15.9186,30.3263 17.5,32.5C 17.5,33.5 17.5,34.5 17.5,35.5C 18.8062,36.4674 19.4729,37.8007 19.5,39.5C 12.4367,35.3065 10.1034,29.3065 12.5,21.5 Z"/></g>
<g><path style="opacity:0.669" fill="#e7cb22" d="M 50.5,29.5 C 50.405,31.7857 49.7384,33.7857 48.5,35.5C 48.5,35.1667 48.5,34.8333 48.5,34.5C 48.0629,32.9256 47.0629,31.7589 45.5,31C 47.0249,29.9914 48.6916,29.4914 50.5,29.5 Z"/></g>
<g><path style="opacity:1" fill="#faf724" d="M 23.5,27.5 C 24.791,27.2627 25.791,27.596 26.5,28.5C 26.5,29.5 26.5,30.5 26.5,31.5C 27.8333,31.5 29.1667,31.5 30.5,31.5C 30.5,32.8333 30.5,34.1667 30.5,35.5C 26.8581,34.9196 23.1914,34.4196 19.5,34C 18.6634,32.9887 18.33,31.8221 18.5,30.5C 21.285,31.0838 22.9517,30.0838 23.5,27.5 Z"/></g>
<g><path style="opacity:1" fill="#fbf758" d="M 40.5,35.5 C 40.427,37.0269 41.0937,38.0269 42.5,38.5C 43.2916,39.9669 43.2916,41.3002 42.5,42.5C 40.1987,41.6751 37.8654,41.0084 35.5,40.5C 36.8333,38.5 38.5,36.8333 40.5,35.5 Z"/></g>
<g><path style="opacity:1" fill="#f4e532" d="M 17.5,35.5 C 21.6836,35.8509 25.6836,36.5176 29.5,37.5C 28.448,37.3505 27.448,37.5172 26.5,38C 27.4711,39.041 28.4711,39.8743 29.5,40.5C 26.1574,41.73 22.8241,41.3967 19.5,39.5C 19.4729,37.8007 18.8062,36.4674 17.5,35.5 Z"/></g>
<g><path style="opacity:1" fill="#ddc425" d="M 40.5,35.5 C 43.1667,35.5 45.8333,35.5 48.5,35.5C 48.0248,37.7837 47.0248,39.7837 45.5,41.5C 44.7281,40.3065 43.7281,39.3065 42.5,38.5C 41.0937,38.0269 40.427,37.0269 40.5,35.5 Z"/></g>
<g><path style="opacity:1" fill="#f8de2b" d="M 12.5,36.5 C 14.2279,38.2255 16.2279,39.5589 18.5,40.5C 21.4651,41.6255 24.4651,42.6255 27.5,43.5C 27.7845,45.4147 27.4511,47.0813 26.5,48.5C 26.1667,48.5 25.8333,48.5 25.5,48.5C 23.5201,42.2581 20.6868,41.9248 17,47.5C 16.5045,45.5273 16.3379,43.5273 16.5,41.5C 14.4176,41.472 12.5843,42.1387 11,43.5C 10.6155,41.8034 10.7822,40.1368 11.5,38.5C 12.3382,38.1583 12.6716,37.4916 12.5,36.5 Z"/></g>
<g><path style="opacity:1" fill="#eccf22" d="M 42.5,44.5 C 41.078,45.925 39.4113,46.925 37.5,47.5C 37.7135,45.8561 37.3802,44.3561 36.5,43C 38.8805,42.2615 40.8805,42.7615 42.5,44.5 Z"/></g>
<g><path style="opacity:0.008" fill="#c0ac27" d="M 42.5,38.5 C 43.7281,39.3065 44.7281,40.3065 45.5,41.5C 44.8333,42.8333 43.8333,43.8333 42.5,44.5C 40.8805,42.7615 38.8805,42.2615 36.5,43C 37.3802,44.3561 37.7135,45.8561 37.5,47.5C 37.5,48.1667 37.1667,48.5 36.5,48.5C 36.5,47.8333 36.1667,47.5 35.5,47.5C 35.5,45.1667 35.5,42.8333 35.5,40.5C 37.8654,41.0084 40.1987,41.6751 42.5,42.5C 43.2916,41.3002 43.2916,39.9669 42.5,38.5 Z"/></g>
<g><path style="opacity:1" fill="#f9f14c" d="M 35.5,40.5 C 35.5,42.8333 35.5,45.1667 35.5,47.5C 34.391,47.4431 33.391,47.1098 32.5,46.5C 31.8333,45.1667 30.8333,44.1667 29.5,43.5C 31.0326,41.7549 33.0326,40.7549 35.5,40.5 Z"/></g>
<g><path style="opacity:1" fill="#c5ac1c" d="M 4.5,37.5 C 7.0593,37.1984 9.39263,37.5318 11.5,38.5C 10.7822,40.1368 10.6155,41.8034 11,43.5C 12.5843,42.1387 14.4176,41.472 16.5,41.5C 16.3379,43.5273 16.5045,45.5273 17,47.5C 20.6868,41.9248 23.5201,42.2581 25.5,48.5C 25.5654,48.9382 25.3988,49.2716 25,49.5C 22.623,44.2011 20.4563,44.2011 18.5,49.5C 12.2852,47.2837 7.61852,43.2837 4.5,37.5 Z"/></g>
<g><path style="opacity:1" fill="#b49e1f" d="M 27.5,43.5 C 28.1667,43.5 28.8333,43.5 29.5,43.5C 30.8333,44.1667 31.8333,45.1667 32.5,46.5C 29.2053,45.1755 27.872,46.5089 28.5,50.5C 27.8333,50.5 27.1667,50.5 26.5,50.5C 26.5,49.8333 26.5,49.1667 26.5,48.5C 27.4511,47.0813 27.7845,45.4147 27.5,43.5 Z"/></g>
<g><path style="opacity:1" fill="#e2c622" d="M 32.5,46.5 C 33.391,47.1098 34.391,47.4431 35.5,47.5C 36.1667,47.5 36.5,47.8333 36.5,48.5C 34.0075,49.7736 31.3408,50.4403 28.5,50.5C 27.872,46.5089 29.2053,45.1755 32.5,46.5 Z"/></g>
<g><path style="opacity:0.907" fill="#dabe1e" d="M 25.5,48.5 C 25.8333,48.5 26.1667,48.5 26.5,48.5C 26.5,49.1667 26.5,49.8333 26.5,50.5C 23.7212,50.7214 21.0545,50.388 18.5,49.5C 20.4563,44.2011 22.623,44.2011 25,49.5C 25.3988,49.2716 25.5654,48.9382 25.5,48.5 Z"/></g>
</svg>
