<?xml version="1.0" encoding="UTF-8"?>
<!DOCTYPE svg PUBLIC "-//W3C//DTD SVG 1.1//EN" "http://www.w3.org/Graphics/SVG/1.1/DTD/svg11.dtd">
<svg xmlns="http://www.w3.org/2000/svg" version="1.1" width="53px" height="53px" style="shape-rendering:geometricPrecision; text-rendering:geometricPrecision; image-rendering:optimizeQuality; fill-rule:evenodd; clip-rule:evenodd" xmlns:xlink="http://www.w3.org/1999/xlink">
<g><path style="opacity:1" fill="#e5ca25" d="M 23.5,1.5 C 23.275,6.59335 21.9417,7.26002 19.5,3.5C 18.537,3.96983 18.537,4.6365 19.5,5.5C 18.5489,6.91866 18.2155,8.58533 18.5,10.5C 15.6689,9.9213 13.3356,8.58797 11.5,6.5C 14.9132,3.68798 18.9132,2.02131 23.5,1.5 Z"/></g>
<g><path style="opacity:1" fill="#d2b71e" d="M 23.5,1.5 C 36.7348,1.75202 45.4014,8.08535 49.5,20.5C 44.6428,20.6506 43.6428,18.9839 46.5,15.5C 46.0302,14.537 45.3635,14.537 44.5,15.5C 43.0813,14.5489 41.4147,14.2155 39.5,14.5C 39.6633,12.1432 39.4966,9.80982 39,7.5C 37.4157,8.86135 35.5824,9.52801 33.5,9.5C 33.7852,7.71199 33.4519,6.04533 32.5,4.5C 31.8933,4.62358 31.56,4.95691 31.5,5.5C 28.5261,8.28548 26.3594,7.61881 25,3.5C 23.8118,4.56341 23.3118,5.89674 23.5,7.5C 21.6203,7.77089 20.287,7.10422 19.5,5.5C 18.537,4.6365 18.537,3.96983 19.5,3.5C 21.9417,7.26002 23.275,6.59335 23.5,1.5 Z"/></g>
<g><path style="opacity:0.996" fill="#e8cd26" d="M 10.5,7.5 C 11.688,9.98848 13.0213,12.3218 14.5,14.5C 14.1667,15.5 13.5,16.1667 12.5,16.5C 10.3926,15.5318 8.0593,15.1984 5.5,15.5C 4.16667,17.8333 2.83333,20.1667 1.5,22.5C 2.20907,16.0751 5.20907,11.0751 10.5,7.5 Z"/></g>
<g><path style="opacity:1" fill="#f8e943" d="M 31.5,5.5 C 32.1239,5.91695 32.4573,6.58362 32.5,7.5C 32.2528,8.71335 31.5862,9.38002 30.5,9.5C 26.4338,9.30698 22.4338,9.64032 18.5,10.5C 18.2155,8.58533 18.5489,6.91866 19.5,5.5C 20.287,7.10422 21.6203,7.77089 23.5,7.5C 23.3118,5.89674 23.8118,4.56341 25,3.5C 26.3594,7.61881 28.5261,8.28548 31.5,5.5 Z"/></g>
<g><path style="opacity:1" fill="#f9f354" d="M 11.5,6.5 C 13.3356,8.58797 15.6689,9.9213 18.5,10.5C 17.4726,12.1942 16.1392,13.5275 14.5,14.5C 13.0213,12.3218 11.688,9.98848 10.5,7.5C 10.5,6.83333 10.8333,6.5 11.5,6.5 Z"/></g>
<g><path style="opacity:1" fill="#f8de2c" d="M 31.5,5.5 C 31.56,4.95691 31.8933,4.62358 32.5,4.5C 33.4519,6.04533 33.7852,7.71199 33.5,9.5C 35.5824,9.52801 37.4157,8.86135 39,7.5C 39.4966,9.80982 39.6633,12.1432 39.5,14.5C 41.4147,14.2155 43.0813,14.5489 44.5,15.5C 44.2671,17.0618 43.6005,18.3951 42.5,19.5C 41.1667,18.1667 39.8333,16.8333 38.5,15.5C 36.513,12.5153 33.8463,10.5153 30.5,9.5C 31.5862,9.38002 32.2528,8.71335 32.5,7.5C 32.4573,6.58362 32.1239,5.91695 31.5,5.5 Z"/></g>
<g><path style="opacity:1" fill="#caaf1d" d="M 30.5,9.5 C 33.8463,10.5153 36.513,12.5153 38.5,15.5C 38.5,16.1667 38.1667,16.5 37.5,16.5C 32.9205,12.0218 27.5872,10.6884 21.5,12.5C 19.246,13.1237 17.5794,14.457 16.5,16.5C 15.0256,17.4363 14.0256,18.7697 13.5,20.5C 12.596,21.209 12.2627,22.209 12.5,23.5C 11.8333,24.8333 11.1667,26.1667 10.5,27.5C 10.4165,23.6648 11.0832,19.9981 12.5,16.5C 13.5,16.1667 14.1667,15.5 14.5,14.5C 16.1392,13.5275 17.4726,12.1942 18.5,10.5C 22.4338,9.64032 26.4338,9.30698 30.5,9.5 Z"/></g>
<g><path style="opacity:1" fill="#ecd727" d="M 21.5,12.5 C 27.5872,10.6884 32.9205,12.0218 37.5,16.5C 39.3122,18.4605 40.3122,20.7939 40.5,23.5C 37.8232,19.8618 34.4898,16.8618 30.5,14.5C 30.1667,14.5 29.8333,14.5 29.5,14.5C 28.5084,14.3284 27.8417,14.6618 27.5,15.5C 23.6897,14.976 21.6897,16.6426 21.5,20.5C 20.8333,20.5 20.5,20.1667 20.5,19.5C 21.3763,15.3368 24.043,13.1701 28.5,13C 26.1902,12.5034 23.8568,12.3367 21.5,12.5 Z"/></g>
<g><path style="opacity:1" fill="#f8ef3a" d="M 21.5,12.5 C 23.8568,12.3367 26.1902,12.5034 28.5,13C 24.043,13.1701 21.3763,15.3368 20.5,19.5C 19.8333,19.5 19.5,19.8333 19.5,20.5C 18.5116,19.205 17.5116,17.8717 16.5,16.5C 17.5794,14.457 19.246,13.1237 21.5,12.5 Z"/></g>
<g><path style="opacity:1" fill="#fcf91e" d="M 27.5,15.5 C 27.5,17.5 27.5,19.5 27.5,21.5C 26.1667,21.5 24.8333,21.5 23.5,21.5C 23.1583,20.6618 22.4916,20.3284 21.5,20.5C 21.6897,16.6426 23.6897,14.976 27.5,15.5 Z"/></g>
<g><path style="opacity:1" fill="#f3e02d" d="M 30.5,14.5 C 34.4898,16.8618 37.8232,19.8618 40.5,23.5C 40.8016,26.0593 40.4682,28.3926 39.5,30.5C 37.0242,26.8572 34.3576,23.3572 31.5,20C 30.7665,18.2341 30.4332,16.4008 30.5,14.5 Z"/></g>
<g><path style="opacity:1" fill="#f5e733" d="M 16.5,16.5 C 17.5116,17.8717 18.5116,19.205 19.5,20.5C 19.8212,22.0481 20.8212,22.7148 22.5,22.5C 22.5,24.5 22.5,26.5 22.5,28.5C 21.209,28.2627 20.209,28.596 19.5,29.5C 16.7511,27.0029 14.7511,24.0029 13.5,20.5C 14.0256,18.7697 15.0256,17.4363 16.5,16.5 Z"/></g>
<g><path style="opacity:1" fill="#dfc21f" d="M 5.5,15.5 C 6.80978,17.1477 8.14311,18.8144 9.5,20.5C 7.43456,21.8567 5.43456,23.19 3.5,24.5C 2.83333,24.5 2.16667,24.5 1.5,24.5C 1.5,23.8333 1.5,23.1667 1.5,22.5C 2.83333,20.1667 4.16667,17.8333 5.5,15.5 Z"/></g>
<g><path style="opacity:1" fill="#f5e834" d="M 29.5,14.5 C 29.8333,14.5 30.1667,14.5 30.5,14.5C 30.4332,16.4008 30.7665,18.2341 31.5,20C 34.3576,23.3572 37.0242,26.8572 39.5,30.5C 39.5,31.5 39.5,32.5 39.5,33.5C 38.8333,36.1667 37.1667,37.8333 34.5,38.5C 35.4756,37.1851 36.4756,35.8518 37.5,34.5C 36.0705,32.1074 34.7372,29.7741 33.5,27.5C 32.1667,27.5 30.8333,27.5 29.5,27.5C 29.5,23.1667 29.5,18.8333 29.5,14.5 Z"/></g>
<g><path style="opacity:1" fill="#f9e538" d="M 5.5,15.5 C 8.0593,15.1984 10.3926,15.5318 12.5,16.5C 11.0832,19.9981 10.4165,23.6648 10.5,27.5C 11.1495,29.4352 11.4828,31.4352 11.5,33.5C 8.83333,33.5 6.16667,33.5 3.5,33.5C 5.78501,31.8818 7.78501,29.8818 9.5,27.5C 7.48233,26.4912 5.48233,25.4912 3.5,24.5C 5.43456,23.19 7.43456,21.8567 9.5,20.5C 8.14311,18.8144 6.80978,17.1477 5.5,15.5 Z"/></g>
<g><path style="opacity:1" fill="#eed426" d="M 38.5,15.5 C 39.8333,16.8333 41.1667,18.1667 42.5,19.5C 44.1209,21.1172 46.1209,22.2838 48.5,23C 46.3825,24.0491 44.7158,25.5491 43.5,27.5C 42.3472,29.636 41.0138,31.636 39.5,33.5C 39.5,32.5 39.5,31.5 39.5,30.5C 40.4682,28.3926 40.8016,26.0593 40.5,23.5C 40.3122,20.7939 39.3122,18.4605 37.5,16.5C 38.1667,16.5 38.5,16.1667 38.5,15.5 Z"/></g>
<g><path style="opacity:0.885" fill="#e0c31e" d="M 50.5,24.5 C 50.5,26.5 50.5,28.5 50.5,30.5C 43.8333,28.5 43.8333,26.5 50.5,24.5 Z"/></g>
<g><path style="opacity:1" fill="#f0d928" d="M 13.5,20.5 C 14.7511,24.0029 16.7511,27.0029 19.5,29.5C 19.6621,31.5273 19.4955,33.5273 19,35.5C 15.1694,32.2482 13.0027,28.2482 12.5,23.5C 12.2627,22.209 12.596,21.209 13.5,20.5 Z"/></g>
<g><path style="opacity:1" fill="#d4b81e" d="M 1.5,24.5 C 2.16667,24.5 2.83333,24.5 3.5,24.5C 5.48233,25.4912 7.48233,26.4912 9.5,27.5C 7.78501,29.8818 5.78501,31.8818 3.5,33.5C 3.5,34.1667 3.16667,34.5 2.5,34.5C 1.67577,31.2356 1.34243,27.9023 1.5,24.5 Z"/></g>
<g><path style="opacity:1" fill="#c6b627" d="M 29.5,14.5 C 29.5,18.8333 29.5,23.1667 29.5,27.5C 30.8333,27.5 32.1667,27.5 33.5,27.5C 33.5,27.8333 33.5,28.1667 33.5,28.5C 32.8333,30.1667 32.1667,31.8333 31.5,33.5C 31.6602,31.8008 31.4935,30.1341 31,28.5C 29.9887,29.3366 28.8221,29.67 27.5,29.5C 27.5,26.8333 27.5,24.1667 27.5,21.5C 27.5,19.5 27.5,17.5 27.5,15.5C 27.8417,14.6618 28.5084,14.3284 29.5,14.5 Z"/></g>
<g><path style="opacity:1" fill="#bea71e" d="M 49.5,20.5 C 50.4345,21.5676 50.7678,22.901 50.5,24.5C 43.8333,26.5 43.8333,28.5 50.5,30.5C 50.573,32.0269 49.9063,33.0269 48.5,33.5C 46.5165,33.3832 44.8498,34.0499 43.5,35.5C 44.6302,36.6223 45.2969,37.9557 45.5,39.5C 44.8333,39.1667 44.1667,38.8333 43.5,38.5C 40.2734,33.8607 41.6067,31.6941 47.5,32C 45.9586,30.6288 44.6253,29.1288 43.5,27.5C 44.7158,25.5491 46.3825,24.0491 48.5,23C 46.1209,22.2838 44.1209,21.1172 42.5,19.5C 43.6005,18.3951 44.2671,17.0618 44.5,15.5C 45.3635,14.537 46.0302,14.537 46.5,15.5C 43.6428,18.9839 44.6428,20.6506 49.5,20.5 Z"/></g>
<g><path style="opacity:1" fill="#dfc823" d="M 20.5,19.5 C 20.5,20.1667 20.8333,20.5 21.5,20.5C 22.4916,20.3284 23.1583,20.6618 23.5,21.5C 24.0916,24.1272 24.4249,26.7938 24.5,29.5C 23.5,29.5 22.5,29.5 21.5,29.5C 21.5,30.8333 21.5,32.1667 21.5,33.5C 23.5,33.5 25.5,33.5 27.5,33.5C 25.369,34.3138 23.0356,34.8138 20.5,35C 22.4727,35.4955 24.4727,35.6621 26.5,35.5C 26.5,35.8333 26.5,36.1667 26.5,36.5C 24.396,36.2011 22.396,36.5344 20.5,37.5C 21.3805,38.9705 22.7139,39.8038 24.5,40C 22.1152,40.5564 19.7819,40.3897 17.5,39.5C 16.0892,37.086 14.0892,35.4194 11.5,34.5C 11.5,34.1667 11.5,33.8333 11.5,33.5C 11.4828,31.4352 11.1495,29.4352 10.5,27.5C 11.1667,26.1667 11.8333,24.8333 12.5,23.5C 13.0027,28.2482 15.1694,32.2482 19,35.5C 19.4955,33.5273 19.6621,31.5273 19.5,29.5C 20.209,28.596 21.209,28.2627 22.5,28.5C 22.5,26.5 22.5,24.5 22.5,22.5C 20.8212,22.7148 19.8212,22.0481 19.5,20.5C 19.5,19.8333 19.8333,19.5 20.5,19.5 Z"/></g>
<g><path style="opacity:1" fill="#fdfb3c" d="M 23.5,21.5 C 24.8333,21.5 26.1667,21.5 27.5,21.5C 27.5,24.1667 27.5,26.8333 27.5,29.5C 28.8221,29.67 29.9887,29.3366 31,28.5C 31.4935,30.1341 31.6602,31.8008 31.5,33.5C 30.1667,33.5 28.8333,33.5 27.5,33.5C 25.5,33.5 23.5,33.5 21.5,33.5C 21.5,32.1667 21.5,30.8333 21.5,29.5C 22.5,29.5 23.5,29.5 24.5,29.5C 24.4249,26.7938 24.0916,24.1272 23.5,21.5 Z"/></g>
<g><path style="opacity:1" fill="#aa981e" d="M 33.5,28.5 C 33.5,30.8333 33.5,33.1667 33.5,35.5C 31.1667,35.5 28.8333,35.5 26.5,35.5C 24.4727,35.6621 22.4727,35.4955 20.5,35C 23.0356,34.8138 25.369,34.3138 27.5,33.5C 28.8333,33.5 30.1667,33.5 31.5,33.5C 32.1667,31.8333 32.8333,30.1667 33.5,28.5 Z"/></g>
<g><path style="opacity:0.998" fill="#e8cb21" d="M 48.5,33.5 C 48.539,36.089 47.539,38.089 45.5,39.5C 45.2969,37.9557 44.6302,36.6223 43.5,35.5C 44.8498,34.0499 46.5165,33.3832 48.5,33.5 Z"/></g>
<g><path style="opacity:1" fill="#f8df2e" d="M 11.5,34.5 C 14.0892,35.4194 16.0892,37.086 17.5,39.5C 16.5084,39.3284 15.8417,39.6618 15.5,40.5C 13.323,40.5861 11.323,41.2528 9.5,42.5C 9.16667,42.1667 8.83333,41.8333 8.5,41.5C 9.7878,39.2612 10.7878,36.9279 11.5,34.5 Z"/></g>
<g><path style="opacity:1" fill="#faee47" d="M 43.5,27.5 C 44.6253,29.1288 45.9586,30.6288 47.5,32C 41.6067,31.6941 40.2734,33.8607 43.5,38.5C 41.1667,39.1667 38.8333,39.8333 36.5,40.5C 35.8333,40.1667 35.1667,39.8333 34.5,39.5C 34.5,39.1667 34.5,38.8333 34.5,38.5C 37.1667,37.8333 38.8333,36.1667 39.5,33.5C 41.0138,31.636 42.3472,29.636 43.5,27.5 Z"/></g>
<g><path style="opacity:1" fill="#c5ab1c" d="M 3.5,33.5 C 6.16667,33.5 8.83333,33.5 11.5,33.5C 11.5,33.8333 11.5,34.1667 11.5,34.5C 10.7878,36.9279 9.7878,39.2612 8.5,41.5C 8.83333,41.8333 9.16667,42.1667 9.5,42.5C 11.323,41.2528 13.323,40.5861 15.5,40.5C 14.5162,42.15 12.5162,43.15 9.5,43.5C 6.13883,41.4527 3.80549,38.4527 2.5,34.5C 3.16667,34.5 3.5,34.1667 3.5,33.5 Z"/></g>
<g><path style="opacity:1" fill="#f6eb36" d="M 33.5,27.5 C 34.7372,29.7741 36.0705,32.1074 37.5,34.5C 36.4756,35.8518 35.4756,37.1851 34.5,38.5C 31.0399,40.4366 28.3732,39.7699 26.5,36.5C 26.5,36.1667 26.5,35.8333 26.5,35.5C 28.8333,35.5 31.1667,35.5 33.5,35.5C 33.5,33.1667 33.5,30.8333 33.5,28.5C 33.5,28.1667 33.5,27.8333 33.5,27.5 Z"/></g>
<g><path style="opacity:1" fill="#f4df30" d="M 26.5,36.5 C 28.3732,39.7699 31.0399,40.4366 34.5,38.5C 34.5,38.8333 34.5,39.1667 34.5,39.5C 31.0764,40.5095 27.7431,41.5095 24.5,42.5C 21.8851,43.4499 19.8851,45.1165 18.5,47.5C 17.5269,45.0521 17.1936,42.3854 17.5,39.5C 19.7819,40.3897 22.1152,40.5564 24.5,40C 22.7139,39.8038 21.3805,38.9705 20.5,37.5C 22.396,36.5344 24.396,36.2011 26.5,36.5 Z"/></g>
<g><path style="opacity:1" fill="#fcf451" d="M 34.5,39.5 C 35.1667,39.8333 35.8333,40.1667 36.5,40.5C 37.2178,42.1368 37.3845,43.8034 37,45.5C 35.0266,44.3601 33.1933,43.0267 31.5,41.5C 30.8933,41.6236 30.56,41.9569 30.5,42.5C 28.891,50.271 26.891,50.271 24.5,42.5C 27.7431,41.5095 31.0764,40.5095 34.5,39.5 Z"/></g>
<g><path style="opacity:1" fill="#f0d325" d="M 44.5,41.5 C 43.4154,43.5869 41.7488,44.9202 39.5,45.5C 38.7822,43.8632 38.6155,42.1966 39,40.5C 40.6995,41.4061 42.5328,41.7394 44.5,41.5 Z"/></g>
<g><path style="opacity:1" fill="#cfb41e" d="M 15.5,40.5 C 15.8417,39.6618 16.5084,39.3284 17.5,39.5C 17.1936,42.3854 17.5269,45.0521 18.5,47.5C 18.5,48.1667 18.5,48.8333 18.5,49.5C 14.6355,48.7385 11.6355,46.7385 9.5,43.5C 12.5162,43.15 14.5162,42.15 15.5,40.5 Z"/></g>
<g><path style="opacity:1" fill="#c7b329" d="M 43.5,38.5 C 44.1667,38.8333 44.8333,39.1667 45.5,39.5C 45.6716,40.4916 45.3382,41.1583 44.5,41.5C 42.5328,41.7394 40.6995,41.4061 39,40.5C 38.6155,42.1966 38.7822,43.8632 39.5,45.5C 39.0269,46.9063 38.0269,47.573 36.5,47.5C 35.0552,45.9373 33.3885,44.604 31.5,43.5C 31.5,42.8333 31.1667,42.5 30.5,42.5C 30.56,41.9569 30.8933,41.6236 31.5,41.5C 33.1933,43.0267 35.0266,44.3601 37,45.5C 37.3845,43.8034 37.2178,42.1368 36.5,40.5C 38.8333,39.8333 41.1667,39.1667 43.5,38.5 Z"/></g>
<g><path style="opacity:1" fill="#b8a321" d="M 24.5,42.5 C 26.891,50.271 28.891,50.271 30.5,42.5C 31.1667,42.5 31.5,42.8333 31.5,43.5C 30.8505,45.4352 30.5172,47.4352 30.5,49.5C 29.4324,50.4345 28.099,50.7678 26.5,50.5C 24.9688,42.9345 22.6354,42.6012 19.5,49.5C 19.1667,49.5 18.8333,49.5 18.5,49.5C 18.5,48.8333 18.5,48.1667 18.5,47.5C 19.8851,45.1165 21.8851,43.4499 24.5,42.5 Z"/></g>
<g><path style="opacity:0.967" fill="#e1c41e" d="M 26.5,50.5 C 24.0504,50.702 21.717,50.3686 19.5,49.5C 22.6354,42.6012 24.9688,42.9345 26.5,50.5 Z"/></g>
<g><path style="opacity:1" fill="#ecce22" d="M 31.5,43.5 C 33.3885,44.604 35.0552,45.9373 36.5,47.5C 34.8984,49.0739 32.8984,49.7406 30.5,49.5C 30.5172,47.4352 30.8505,45.4352 31.5,43.5 Z"/></g>
</svg>
